solid OpenSCAD_Model
  facet normal 1 -0 0
    outer loop
      vertex 120 0 40
      vertex 120 80 0
      vertex 120 80 40
    endloop
  endfacet
  facet normal 1 0 0
    outer loop
      vertex 120 80 0
      vertex 120 0 40
      vertex 120 0 0
    endloop
  endfacet
  facet normal 0 0 1
    outer loop
      vertex 120 80 40
      vertex 117 77 40
      vertex 120 0 40
    endloop
  endfacet
  facet normal 0 0 1
    outer loop
      vertex 120 80 40
      vertex 3 77 40
      vertex 117 77 40
    endloop
  endfacet
  facet normal 0 0 1
    outer loop
      vertex 3 77 40
      vertex 0 80 40
      vertex 3 3 40
    endloop
  endfacet
  facet normal -0 0 1
    outer loop
      vertex 0 80 40
      vertex 3 77 40
      vertex 120 80 40
    endloop
  endfacet
  facet normal -0 0 1
    outer loop
      vertex 117 3 40
      vertex 120 0 40
      vertex 117 77 40
    endloop
  endfacet
  facet normal -0 0 1
    outer loop
      vertex 3 3 40
      vertex 120 0 40
      vertex 117 3 40
    endloop
  endfacet
  facet normal 0 0 1
    outer loop
      vertex 3 3 40
      vertex 0 0 40
      vertex 120 0 40
    endloop
  endfacet
  facet normal 0 0 1
    outer loop
      vertex 0 0 40
      vertex 3 3 40
      vertex 0 80 40
    endloop
  endfacet
  facet normal 0 0 -1
    outer loop
      vertex 0 0 0
      vertex 120 80 0
      vertex 120 0 0
    endloop
  endfacet
  facet normal -0 0 -1
    outer loop
      vertex 120 80 0
      vertex 0 0 0
      vertex 0 80 0
    endloop
  endfacet
  facet normal -1 0 0
    outer loop
      vertex 0 0 0
      vertex 0 80 40
      vertex 0 80 0
    endloop
  endfacet
  facet normal -1 -0 0
    outer loop
      vertex 0 80 40
      vertex 0 0 0
      vertex 0 0 40
    endloop
  endfacet
  facet normal 0 1 -0
    outer loop
      vertex 120 80 0
      vertex 0 80 40
      vertex 120 80 40
    endloop
  endfacet
  facet normal 0 1 0
    outer loop
      vertex 0 80 40
      vertex 120 80 0
      vertex 0 80 0
    endloop
  endfacet
  facet normal 0 -1 0
    outer loop
      vertex 0 0 40
      vertex 30 0 32
      vertex 120 0 40
    endloop
  endfacet
  facet normal 0 -1 0
    outer loop
      vertex 0 0 40
      vertex 30 0 8
      vertex 30 0 32
    endloop
  endfacet
  facet normal 0 -1 -0
    outer loop
      vertex 30 0 8
      vertex 0 0 0
      vertex 90 0 8
    endloop
  endfacet
  facet normal 0 -1 0
    outer loop
      vertex 0 0 0
      vertex 30 0 8
      vertex 0 0 40
    endloop
  endfacet
  facet normal 0 -1 0
    outer loop
      vertex 90 0 32
      vertex 120 0 40
      vertex 30 0 32
    endloop
  endfacet
  facet normal 0 -1 0
    outer loop
      vertex 90 0 8
      vertex 120 0 40
      vertex 90 0 32
    endloop
  endfacet
  facet normal 0 -1 0
    outer loop
      vertex 90 0 8
      vertex 120 0 0
      vertex 120 0 40
    endloop
  endfacet
  facet normal 0 -1 0
    outer loop
      vertex 120 0 0
      vertex 90 0 8
      vertex 0 0 0
    endloop
  endfacet
  facet normal -1 0 0
    outer loop
      vertex 117 3 3
      vertex 117 77 40
      vertex 117 77 3
    endloop
  endfacet
  facet normal -1 -0 0
    outer loop
      vertex 117 77 40
      vertex 117 3 3
      vertex 117 3 40
    endloop
  endfacet
  facet normal -0 0 1
    outer loop
      vertex 3 77 3
      vertex 117 3 3
      vertex 117 77 3
    endloop
  endfacet
  facet normal 0 0 1
    outer loop
      vertex 117 3 3
      vertex 3 77 3
      vertex 3 3 3
    endloop
  endfacet
  facet normal 1 -0 0
    outer loop
      vertex 3 3 40
      vertex 3 77 3
      vertex 3 77 40
    endloop
  endfacet
  facet normal 1 0 0
    outer loop
      vertex 3 77 3
      vertex 3 3 40
      vertex 3 3 3
    endloop
  endfacet
  facet normal 0 -1 0
    outer loop
      vertex 3 77 3
      vertex 117 77 40
      vertex 3 77 40
    endloop
  endfacet
  facet normal 0 -1 -0
    outer loop
      vertex 117 77 40
      vertex 3 77 3
      vertex 117 77 3
    endloop
  endfacet
  facet normal 0 1 0
    outer loop
      vertex 117 3 40
      vertex 90 3 32
      vertex 3 3 40
    endloop
  endfacet
  facet normal 0 1 -0
    outer loop
      vertex 117 3 3
      vertex 90 3 32
      vertex 117 3 40
    endloop
  endfacet
  facet normal 0 1 0
    outer loop
      vertex 90 3 8
      vertex 117 3 3
      vertex 30 3 8
    endloop
  endfacet
  facet normal 0 1 0
    outer loop
      vertex 90 3 32
      vertex 117 3 3
      vertex 90 3 8
    endloop
  endfacet
  facet normal 0 1 -0
    outer loop
      vertex 30 3 32
      vertex 3 3 40
      vertex 90 3 32
    endloop
  endfacet
  facet normal 0 1 0
    outer loop
      vertex 3 3 3
      vertex 30 3 32
      vertex 30 3 8
    endloop
  endfacet
  facet normal 0 1 0
    outer loop
      vertex 30 3 32
      vertex 3 3 3
      vertex 3 3 40
    endloop
  endfacet
  facet normal 0 1 0
    outer loop
      vertex 3 3 3
      vertex 30 3 8
      vertex 117 3 3
    endloop
  endfacet
  facet normal -1 0 0
    outer loop
      vertex 90 0 8
      vertex 90 3 32
      vertex 90 3 8
    endloop
  endfacet
  facet normal -1 -0 0
    outer loop
      vertex 90 3 32
      vertex 90 0 8
      vertex 90 0 32
    endloop
  endfacet
  facet normal 0 0 -1
    outer loop
      vertex 30 0 32
      vertex 90 3 32
      vertex 90 0 32
    endloop
  endfacet
  facet normal -0 0 -1
    outer loop
      vertex 90 3 32
      vertex 30 0 32
      vertex 30 3 32
    endloop
  endfacet
  facet normal -0 0 1
    outer loop
      vertex 30 3 8
      vertex 90 0 8
      vertex 90 3 8
    endloop
  endfacet
  facet normal 0 0 1
    outer loop
      vertex 90 0 8
      vertex 30 3 8
      vertex 30 0 8
    endloop
  endfacet
  facet normal 1 -0 0
    outer loop
      vertex 30 0 32
      vertex 30 3 8
      vertex 30 3 32
    endloop
  endfacet
  facet normal 1 0 0
    outer loop
      vertex 30 3 8
      vertex 30 0 32
      vertex 30 0 8
    endloop
  endfacet
endsolid OpenSCAD_Model
