solid OpenSCAD_Model
  facet normal 0 -1 0
    outer loop
      vertex 100 0 0
      vertex 0 0 30
      vertex 0 0 0
    endloop
  endfacet
  facet normal 0 1 0
    outer loop
      vertex 0 60 30
      vertex 100 60 0
      vertex 0 60 0
    endloop
  endfacet
  facet normal 0 0 -1
    outer loop
      vertex 0 0 0
      vertex 100 60 0
      vertex 100 0 0
    endloop
  endfacet
  facet normal -0 0 -1
    outer loop
      vertex 100 60 0
      vertex 0 0 0
      vertex 0 60 0
    endloop
  endfacet
  facet normal -1 0 0
    outer loop
      vertex 0 0 0
      vertex 0 60 30
      vertex 0 60 0
    endloop
  endfacet
  facet normal -1 -0 0
    outer loop
      vertex 0 60 30
      vertex 0 0 0
      vertex 0 0 30
    endloop
  endfacet
  facet normal 0.287348 0 0.957826
    outer loop
      vertex 0 60 30
      vertex 100 0 0
      vertex 100 60 0
    endloop
  endfacet
  facet normal 0.287348 0 0.957826
    outer loop
      vertex 100 0 0
      vertex 0 60 30
      vertex 0 0 30
    endloop
  endfacet
endsolid OpenSCAD_Model
