solid OpenSCAD_Model
  facet normal 1 0 0
    outer loop
      vertex 80 36 4
      vertex 80 40 50
      vertex 80 36 50
    endloop
  endfacet
  facet normal 1 0 0
    outer loop
      vertex 80 40 50
      vertex 80 36 4
      vertex 80 40 0
    endloop
  endfacet
  facet normal 1 0 0
    outer loop
      vertex 80 0 0
      vertex 80 36 4
      vertex 80 0 4
    endloop
  endfacet
  facet normal 1 0 0
    outer loop
      vertex 80 36 4
      vertex 80 0 0
      vertex 80 40 0
    endloop
  endfacet
  facet normal -0 0 1
    outer loop
      vertex 0 36 4
      vertex 80 0 4
      vertex 80 36 4
    endloop
  endfacet
  facet normal 0 0 1
    outer loop
      vertex 80 0 4
      vertex 0 36 4
      vertex 0 0 4
    endloop
  endfacet
  facet normal 0 0 -1
    outer loop
      vertex 0 0 0
      vertex 80 40 0
      vertex 80 0 0
    endloop
  endfacet
  facet normal -0 0 -1
    outer loop
      vertex 80 40 0
      vertex 0 0 0
      vertex 0 40 0
    endloop
  endfacet
  facet normal -1 0 0
    outer loop
      vertex 0 40 0
      vertex 0 36 4
      vertex 0 40 50
    endloop
  endfacet
  facet normal -1 0 0
    outer loop
      vertex 0 0 0
      vertex 0 36 4
      vertex 0 40 0
    endloop
  endfacet
  facet normal -1 -0 0
    outer loop
      vertex 0 36 4
      vertex 0 0 0
      vertex 0 0 4
    endloop
  endfacet
  facet normal -1 -0 0
    outer loop
      vertex 0 40 50
      vertex 0 36 4
      vertex 0 36 50
    endloop
  endfacet
  facet normal 0 1 -0
    outer loop
      vertex 20.5853 40 32.9424
      vertex 0 40 50
      vertex 39.4147 40 32.9424
    endloop
  endfacet
  facet normal 0 1 0
    outer loop
      vertex 0 40 50
      vertex 20.5853 40 32.9424
      vertex 20 40 33
    endloop
  endfacet
  facet normal 0 1 -0
    outer loop
      vertex 38.852 40 32.7716
      vertex 20.5853 40 32.9424
      vertex 39.4147 40 32.9424
    endloop
  endfacet
  facet normal 0 1 0
    outer loop
      vertex 38.852 40 32.7716
      vertex 21.148 40 32.7716
      vertex 20.5853 40 32.9424
    endloop
  endfacet
  facet normal 0 1 -0
    outer loop
      vertex 38.3333 40 32.4944
      vertex 21.148 40 32.7716
      vertex 38.852 40 32.7716
    endloop
  endfacet
  facet normal 0 1 0
    outer loop
      vertex 38.3333 40 32.4944
      vertex 21.6667 40 32.4944
      vertex 21.148 40 32.7716
    endloop
  endfacet
  facet normal 0 1 -0
    outer loop
      vertex 37.8787 40 32.1213
      vertex 21.6667 40 32.4944
      vertex 38.3333 40 32.4944
    endloop
  endfacet
  facet normal 0 1 0
    outer loop
      vertex 37.8787 40 32.1213
      vertex 22.1213 40 32.1213
      vertex 21.6667 40 32.4944
    endloop
  endfacet
  facet normal 0 1 -0
    outer loop
      vertex 37.5056 40 31.6667
      vertex 22.1213 40 32.1213
      vertex 37.8787 40 32.1213
    endloop
  endfacet
  facet normal 0 1 0
    outer loop
      vertex 37.5056 40 31.6667
      vertex 22.4944 40 31.6667
      vertex 22.1213 40 32.1213
    endloop
  endfacet
  facet normal 0 1 -0
    outer loop
      vertex 37.2284 40 31.148
      vertex 22.4944 40 31.6667
      vertex 37.5056 40 31.6667
    endloop
  endfacet
  facet normal 0 1 0
    outer loop
      vertex 37.2284 40 31.148
      vertex 22.7716 40 31.148
      vertex 22.4944 40 31.6667
    endloop
  endfacet
  facet normal 0 1 -0
    outer loop
      vertex 37.0576 40 30.5853
      vertex 22.7716 40 31.148
      vertex 37.2284 40 31.148
    endloop
  endfacet
  facet normal 0 1 0
    outer loop
      vertex 37.0576 40 30.5853
      vertex 22.9424 40 30.5853
      vertex 22.7716 40 31.148
    endloop
  endfacet
  facet normal 0 1 -0
    outer loop
      vertex 37 40 30
      vertex 22.9424 40 30.5853
      vertex 37.0576 40 30.5853
    endloop
  endfacet
  facet normal 0 1 0
    outer loop
      vertex 37 40 30
      vertex 23 40 30
      vertex 22.9424 40 30.5853
    endloop
  endfacet
  facet normal 0 1 0
    outer loop
      vertex 37.0576 40 29.4147
      vertex 23 40 30
      vertex 37 40 30
    endloop
  endfacet
  facet normal 0 1 0
    outer loop
      vertex 37.0576 40 29.4147
      vertex 22.9424 40 29.4147
      vertex 23 40 30
    endloop
  endfacet
  facet normal 0 1 0
    outer loop
      vertex 37.2284 40 28.8519
      vertex 22.9424 40 29.4147
      vertex 37.0576 40 29.4147
    endloop
  endfacet
  facet normal 0 1 0
    outer loop
      vertex 37.2284 40 28.8519
      vertex 22.7716 40 28.8519
      vertex 22.9424 40 29.4147
    endloop
  endfacet
  facet normal 0 1 0
    outer loop
      vertex 37.5056 40 28.3333
      vertex 22.7716 40 28.8519
      vertex 37.2284 40 28.8519
    endloop
  endfacet
  facet normal 0 1 0
    outer loop
      vertex 37.5056 40 28.3333
      vertex 22.4944 40 28.3333
      vertex 22.7716 40 28.8519
    endloop
  endfacet
  facet normal 0 1 0
    outer loop
      vertex 37.8787 40 27.8787
      vertex 22.4944 40 28.3333
      vertex 37.5056 40 28.3333
    endloop
  endfacet
  facet normal 0 1 0
    outer loop
      vertex 37.8787 40 27.8787
      vertex 22.1213 40 27.8787
      vertex 22.4944 40 28.3333
    endloop
  endfacet
  facet normal 0 1 0
    outer loop
      vertex 38.3333 40 27.5056
      vertex 22.1213 40 27.8787
      vertex 37.8787 40 27.8787
    endloop
  endfacet
  facet normal 0 1 0
    outer loop
      vertex 38.3333 40 27.5056
      vertex 21.6667 40 27.5056
      vertex 22.1213 40 27.8787
    endloop
  endfacet
  facet normal 0 1 0
    outer loop
      vertex 38.852 40 27.2284
      vertex 21.6667 40 27.5056
      vertex 38.3333 40 27.5056
    endloop
  endfacet
  facet normal 0 1 0
    outer loop
      vertex 38.852 40 27.2284
      vertex 21.148 40 27.2284
      vertex 21.6667 40 27.5056
    endloop
  endfacet
  facet normal 0 1 0
    outer loop
      vertex 0 40 0
      vertex 38.852 40 27.2284
      vertex 39.4147 40 27.0576
    endloop
  endfacet
  facet normal 0 1 0
    outer loop
      vertex 38.852 40 27.2284
      vertex 0 40 0
      vertex 21.148 40 27.2284
    endloop
  endfacet
  facet normal 0 1 0
    outer loop
      vertex 0 40 0
      vertex 39.4147 40 27.0576
      vertex 40 40 27
    endloop
  endfacet
  facet normal 0 1 0
    outer loop
      vertex 21.148 40 27.2284
      vertex 0 40 0
      vertex 20.5853 40 27.0576
    endloop
  endfacet
  facet normal 0 1 0
    outer loop
      vertex 40.5853 40 32.9424
      vertex 80 40 50
      vertex 59.4147 40 32.9424
    endloop
  endfacet
  facet normal 0 1 0
    outer loop
      vertex 80 40 50
      vertex 40.5853 40 32.9424
      vertex 40 40 33
    endloop
  endfacet
  facet normal 0 1 -0
    outer loop
      vertex 58.852 40 32.7716
      vertex 40.5853 40 32.9424
      vertex 59.4147 40 32.9424
    endloop
  endfacet
  facet normal 0 1 0
    outer loop
      vertex 58.852 40 32.7716
      vertex 41.148 40 32.7716
      vertex 40.5853 40 32.9424
    endloop
  endfacet
  facet normal 0 1 -0
    outer loop
      vertex 58.3333 40 32.4944
      vertex 41.148 40 32.7716
      vertex 58.852 40 32.7716
    endloop
  endfacet
  facet normal 0 1 0
    outer loop
      vertex 58.3333 40 32.4944
      vertex 41.6667 40 32.4944
      vertex 41.148 40 32.7716
    endloop
  endfacet
  facet normal 0 1 -0
    outer loop
      vertex 57.8787 40 32.1213
      vertex 41.6667 40 32.4944
      vertex 58.3333 40 32.4944
    endloop
  endfacet
  facet normal 0 1 0
    outer loop
      vertex 57.8787 40 32.1213
      vertex 42.1213 40 32.1213
      vertex 41.6667 40 32.4944
    endloop
  endfacet
  facet normal 0 1 -0
    outer loop
      vertex 57.5056 40 31.6667
      vertex 42.1213 40 32.1213
      vertex 57.8787 40 32.1213
    endloop
  endfacet
  facet normal 0 1 0
    outer loop
      vertex 57.5056 40 31.6667
      vertex 42.4944 40 31.6667
      vertex 42.1213 40 32.1213
    endloop
  endfacet
  facet normal 0 1 -0
    outer loop
      vertex 57.2284 40 31.148
      vertex 42.4944 40 31.6667
      vertex 57.5056 40 31.6667
    endloop
  endfacet
  facet normal 0 1 0
    outer loop
      vertex 57.2284 40 31.148
      vertex 42.7716 40 31.148
      vertex 42.4944 40 31.6667
    endloop
  endfacet
  facet normal 0 1 -0
    outer loop
      vertex 57.0576 40 30.5853
      vertex 42.7716 40 31.148
      vertex 57.2284 40 31.148
    endloop
  endfacet
  facet normal 0 1 0
    outer loop
      vertex 57.0576 40 30.5853
      vertex 42.9424 40 30.5853
      vertex 42.7716 40 31.148
    endloop
  endfacet
  facet normal 0 1 -0
    outer loop
      vertex 57 40 30
      vertex 42.9424 40 30.5853
      vertex 57.0576 40 30.5853
    endloop
  endfacet
  facet normal 0 1 0
    outer loop
      vertex 57 40 30
      vertex 43 40 30
      vertex 42.9424 40 30.5853
    endloop
  endfacet
  facet normal 0 1 0
    outer loop
      vertex 57.0576 40 29.4147
      vertex 43 40 30
      vertex 57 40 30
    endloop
  endfacet
  facet normal 0 1 0
    outer loop
      vertex 57.0576 40 29.4147
      vertex 42.9424 40 29.4147
      vertex 43 40 30
    endloop
  endfacet
  facet normal 0 1 0
    outer loop
      vertex 57.2284 40 28.8519
      vertex 42.9424 40 29.4147
      vertex 57.0576 40 29.4147
    endloop
  endfacet
  facet normal 0 1 0
    outer loop
      vertex 57.2284 40 28.8519
      vertex 42.7716 40 28.8519
      vertex 42.9424 40 29.4147
    endloop
  endfacet
  facet normal 0 1 0
    outer loop
      vertex 57.5056 40 28.3333
      vertex 42.7716 40 28.8519
      vertex 57.2284 40 28.8519
    endloop
  endfacet
  facet normal 0 1 0
    outer loop
      vertex 57.5056 40 28.3333
      vertex 42.4944 40 28.3333
      vertex 42.7716 40 28.8519
    endloop
  endfacet
  facet normal 0 1 0
    outer loop
      vertex 57.8787 40 27.8787
      vertex 42.4944 40 28.3333
      vertex 57.5056 40 28.3333
    endloop
  endfacet
  facet normal 0 1 0
    outer loop
      vertex 57.8787 40 27.8787
      vertex 42.1213 40 27.8787
      vertex 42.4944 40 28.3333
    endloop
  endfacet
  facet normal 0 1 0
    outer loop
      vertex 58.3333 40 27.5056
      vertex 42.1213 40 27.8787
      vertex 57.8787 40 27.8787
    endloop
  endfacet
  facet normal 0 1 0
    outer loop
      vertex 58.3333 40 27.5056
      vertex 41.6667 40 27.5056
      vertex 42.1213 40 27.8787
    endloop
  endfacet
  facet normal 0 1 0
    outer loop
      vertex 58.852 40 27.2284
      vertex 41.6667 40 27.5056
      vertex 58.3333 40 27.5056
    endloop
  endfacet
  facet normal 0 1 0
    outer loop
      vertex 58.852 40 27.2284
      vertex 41.148 40 27.2284
      vertex 41.6667 40 27.5056
    endloop
  endfacet
  facet normal 0 1 0
    outer loop
      vertex 80 40 0
      vertex 58.852 40 27.2284
      vertex 59.4147 40 27.0576
    endloop
  endfacet
  facet normal 0 1 0
    outer loop
      vertex 58.852 40 27.2284
      vertex 80 40 0
      vertex 41.148 40 27.2284
    endloop
  endfacet
  facet normal 0 1 0
    outer loop
      vertex 80 40 0
      vertex 59.4147 40 27.0576
      vertex 60 40 27
    endloop
  endfacet
  facet normal 0 1 0
    outer loop
      vertex 41.148 40 27.2284
      vertex 80 40 0
      vertex 40.5853 40 27.0576
    endloop
  endfacet
  facet normal 0 1 0
    outer loop
      vertex 59.4147 40 32.9424
      vertex 80 40 50
      vertex 60 40 33
    endloop
  endfacet
  facet normal 0 1 0
    outer loop
      vertex 80 40 50
      vertex 60.5853 40 32.9424
      vertex 60 40 33
    endloop
  endfacet
  facet normal 0 1 0
    outer loop
      vertex 80 40 50
      vertex 61.148 40 32.7716
      vertex 60.5853 40 32.9424
    endloop
  endfacet
  facet normal 0 1 0
    outer loop
      vertex 80 40 50
      vertex 61.6667 40 32.4944
      vertex 61.148 40 32.7716
    endloop
  endfacet
  facet normal 0 1 0
    outer loop
      vertex 80 40 50
      vertex 62.1213 40 32.1213
      vertex 61.6667 40 32.4944
    endloop
  endfacet
  facet normal 0 1 0
    outer loop
      vertex 80 40 50
      vertex 62.4944 40 31.6667
      vertex 62.1213 40 32.1213
    endloop
  endfacet
  facet normal 0 1 0
    outer loop
      vertex 80 40 50
      vertex 62.7716 40 31.148
      vertex 62.4944 40 31.6667
    endloop
  endfacet
  facet normal 0 1 0
    outer loop
      vertex 80 40 50
      vertex 62.9424 40 30.5853
      vertex 62.7716 40 31.148
    endloop
  endfacet
  facet normal 0 1 0
    outer loop
      vertex 80 40 50
      vertex 63 40 30
      vertex 62.9424 40 30.5853
    endloop
  endfacet
  facet normal 0 1 0
    outer loop
      vertex 80 40 50
      vertex 62.9424 40 29.4147
      vertex 63 40 30
    endloop
  endfacet
  facet normal 0 1 -0
    outer loop
      vertex 80 40 0
      vertex 62.9424 40 29.4147
      vertex 80 40 50
    endloop
  endfacet
  facet normal 0 1 0
    outer loop
      vertex 62.9424 40 29.4147
      vertex 80 40 0
      vertex 62.7716 40 28.8519
    endloop
  endfacet
  facet normal 0 1 0
    outer loop
      vertex 40.5853 40 27.0576
      vertex 80 40 0
      vertex 40 40 27
    endloop
  endfacet
  facet normal 0 1 0
    outer loop
      vertex 0 40 0
      vertex 40 40 27
      vertex 80 40 0
    endloop
  endfacet
  facet normal 0 1 0
    outer loop
      vertex 60.5853 40 27.0576
      vertex 80 40 0
      vertex 60 40 27
    endloop
  endfacet
  facet normal 0 1 0
    outer loop
      vertex 61.148 40 27.2284
      vertex 80 40 0
      vertex 60.5853 40 27.0576
    endloop
  endfacet
  facet normal 0 1 0
    outer loop
      vertex 61.6667 40 27.5056
      vertex 80 40 0
      vertex 61.148 40 27.2284
    endloop
  endfacet
  facet normal 0 1 0
    outer loop
      vertex 62.1213 40 27.8787
      vertex 80 40 0
      vertex 61.6667 40 27.5056
    endloop
  endfacet
  facet normal 0 1 0
    outer loop
      vertex 62.4944 40 28.3333
      vertex 80 40 0
      vertex 62.1213 40 27.8787
    endloop
  endfacet
  facet normal 0 1 0
    outer loop
      vertex 62.7716 40 28.8519
      vertex 80 40 0
      vertex 62.4944 40 28.3333
    endloop
  endfacet
  facet normal 0 1 0
    outer loop
      vertex 80 40 50
      vertex 40 40 33
      vertex 0 40 50
    endloop
  endfacet
  facet normal 0 1 -0
    outer loop
      vertex 39.4147 40 32.9424
      vertex 0 40 50
      vertex 40 40 33
    endloop
  endfacet
  facet normal 0 1 -0
    outer loop
      vertex 19.4147 40 32.9424
      vertex 0 40 50
      vertex 20 40 33
    endloop
  endfacet
  facet normal 0 1 -0
    outer loop
      vertex 18.8519 40 32.7716
      vertex 0 40 50
      vertex 19.4147 40 32.9424
    endloop
  endfacet
  facet normal 0 1 -0
    outer loop
      vertex 18.3333 40 32.4944
      vertex 0 40 50
      vertex 18.8519 40 32.7716
    endloop
  endfacet
  facet normal 0 1 -0
    outer loop
      vertex 17.8787 40 32.1213
      vertex 0 40 50
      vertex 18.3333 40 32.4944
    endloop
  endfacet
  facet normal 0 1 -0
    outer loop
      vertex 17.5056 40 31.6667
      vertex 0 40 50
      vertex 17.8787 40 32.1213
    endloop
  endfacet
  facet normal 0 1 -0
    outer loop
      vertex 17.2284 40 31.148
      vertex 0 40 50
      vertex 17.5056 40 31.6667
    endloop
  endfacet
  facet normal 0 1 -0
    outer loop
      vertex 17.0576 40 30.5853
      vertex 0 40 50
      vertex 17.2284 40 31.148
    endloop
  endfacet
  facet normal 0 1 -0
    outer loop
      vertex 17 40 30
      vertex 0 40 50
      vertex 17.0576 40 30.5853
    endloop
  endfacet
  facet normal 0 1 0
    outer loop
      vertex 17.0576 40 29.4147
      vertex 0 40 50
      vertex 17 40 30
    endloop
  endfacet
  facet normal 0 1 0
    outer loop
      vertex 0 40 0
      vertex 17.0576 40 29.4147
      vertex 17.2284 40 28.8519
    endloop
  endfacet
  facet normal 0 1 0
    outer loop
      vertex 0 40 0
      vertex 17.2284 40 28.8519
      vertex 17.5056 40 28.3333
    endloop
  endfacet
  facet normal 0 1 0
    outer loop
      vertex 20.5853 40 27.0576
      vertex 0 40 0
      vertex 20 40 27
    endloop
  endfacet
  facet normal 0 1 0
    outer loop
      vertex 20 40 27
      vertex 0 40 0
      vertex 19.4147 40 27.0576
    endloop
  endfacet
  facet normal 0 1 0
    outer loop
      vertex 17.0576 40 29.4147
      vertex 0 40 0
      vertex 0 40 50
    endloop
  endfacet
  facet normal 0 1 0
    outer loop
      vertex 17.8787 40 27.8787
      vertex 0 40 0
      vertex 17.5056 40 28.3333
    endloop
  endfacet
  facet normal 0 1 0
    outer loop
      vertex 18.3333 40 27.5056
      vertex 0 40 0
      vertex 17.8787 40 27.8787
    endloop
  endfacet
  facet normal 0 1 0
    outer loop
      vertex 18.8519 40 27.2284
      vertex 0 40 0
      vertex 18.3333 40 27.5056
    endloop
  endfacet
  facet normal 0 1 0
    outer loop
      vertex 19.4147 40 27.0576
      vertex 0 40 0
      vertex 18.8519 40 27.2284
    endloop
  endfacet
  facet normal 0 -1 0
    outer loop
      vertex 0 0 0
      vertex 80 0 4
      vertex 0 0 4
    endloop
  endfacet
  facet normal 0 -1 -0
    outer loop
      vertex 80 0 4
      vertex 0 0 0
      vertex 80 0 0
    endloop
  endfacet
  facet normal -0 0 1
    outer loop
      vertex 0 40 50
      vertex 80 36 50
      vertex 80 40 50
    endloop
  endfacet
  facet normal 0 0 1
    outer loop
      vertex 80 36 50
      vertex 0 40 50
      vertex 0 36 50
    endloop
  endfacet
  facet normal 0 -1 0
    outer loop
      vertex 59.4147 36 32.9424
      vertex 80 36 50
      vertex 40.5853 36 32.9424
    endloop
  endfacet
  facet normal 0 -1 0
    outer loop
      vertex 80 36 50
      vertex 59.4147 36 32.9424
      vertex 60 36 33
    endloop
  endfacet
  facet normal 0 -1 0
    outer loop
      vertex 41.148 36 32.7716
      vertex 59.4147 36 32.9424
      vertex 40.5853 36 32.9424
    endloop
  endfacet
  facet normal 0 -1 0
    outer loop
      vertex 41.148 36 32.7716
      vertex 58.852 36 32.7716
      vertex 59.4147 36 32.9424
    endloop
  endfacet
  facet normal 0 -1 0
    outer loop
      vertex 41.6667 36 32.4944
      vertex 58.852 36 32.7716
      vertex 41.148 36 32.7716
    endloop
  endfacet
  facet normal 0 -1 0
    outer loop
      vertex 41.6667 36 32.4944
      vertex 58.3333 36 32.4944
      vertex 58.852 36 32.7716
    endloop
  endfacet
  facet normal 0 -1 0
    outer loop
      vertex 42.1213 36 32.1213
      vertex 58.3333 36 32.4944
      vertex 41.6667 36 32.4944
    endloop
  endfacet
  facet normal 0 -1 0
    outer loop
      vertex 42.1213 36 32.1213
      vertex 57.8787 36 32.1213
      vertex 58.3333 36 32.4944
    endloop
  endfacet
  facet normal 0 -1 0
    outer loop
      vertex 42.4944 36 31.6667
      vertex 57.8787 36 32.1213
      vertex 42.1213 36 32.1213
    endloop
  endfacet
  facet normal 0 -1 0
    outer loop
      vertex 42.4944 36 31.6667
      vertex 57.5056 36 31.6667
      vertex 57.8787 36 32.1213
    endloop
  endfacet
  facet normal 0 -1 0
    outer loop
      vertex 42.7716 36 31.148
      vertex 57.5056 36 31.6667
      vertex 42.4944 36 31.6667
    endloop
  endfacet
  facet normal 0 -1 0
    outer loop
      vertex 42.7716 36 31.148
      vertex 57.2284 36 31.148
      vertex 57.5056 36 31.6667
    endloop
  endfacet
  facet normal 0 -1 0
    outer loop
      vertex 42.9424 36 30.5853
      vertex 57.2284 36 31.148
      vertex 42.7716 36 31.148
    endloop
  endfacet
  facet normal 0 -1 0
    outer loop
      vertex 42.9424 36 30.5853
      vertex 57.0576 36 30.5853
      vertex 57.2284 36 31.148
    endloop
  endfacet
  facet normal 0 -1 0
    outer loop
      vertex 43 36 30
      vertex 57.0576 36 30.5853
      vertex 42.9424 36 30.5853
    endloop
  endfacet
  facet normal 0 -1 0
    outer loop
      vertex 43 36 30
      vertex 57 36 30
      vertex 57.0576 36 30.5853
    endloop
  endfacet
  facet normal 0 -1 0
    outer loop
      vertex 42.9424 36 29.4147
      vertex 57 36 30
      vertex 43 36 30
    endloop
  endfacet
  facet normal 0 -1 0
    outer loop
      vertex 42.9424 36 29.4147
      vertex 57.0576 36 29.4147
      vertex 57 36 30
    endloop
  endfacet
  facet normal 0 -1 0
    outer loop
      vertex 42.7716 36 28.8519
      vertex 57.0576 36 29.4147
      vertex 42.9424 36 29.4147
    endloop
  endfacet
  facet normal 0 -1 0
    outer loop
      vertex 42.7716 36 28.8519
      vertex 57.2284 36 28.8519
      vertex 57.0576 36 29.4147
    endloop
  endfacet
  facet normal 0 -1 0
    outer loop
      vertex 42.4944 36 28.3333
      vertex 57.2284 36 28.8519
      vertex 42.7716 36 28.8519
    endloop
  endfacet
  facet normal 0 -1 0
    outer loop
      vertex 42.4944 36 28.3333
      vertex 57.5056 36 28.3333
      vertex 57.2284 36 28.8519
    endloop
  endfacet
  facet normal 0 -1 0
    outer loop
      vertex 42.1213 36 27.8787
      vertex 57.5056 36 28.3333
      vertex 42.4944 36 28.3333
    endloop
  endfacet
  facet normal 0 -1 0
    outer loop
      vertex 42.1213 36 27.8787
      vertex 57.8787 36 27.8787
      vertex 57.5056 36 28.3333
    endloop
  endfacet
  facet normal 0 -1 0
    outer loop
      vertex 41.6667 36 27.5056
      vertex 57.8787 36 27.8787
      vertex 42.1213 36 27.8787
    endloop
  endfacet
  facet normal 0 -1 0
    outer loop
      vertex 41.6667 36 27.5056
      vertex 58.3333 36 27.5056
      vertex 57.8787 36 27.8787
    endloop
  endfacet
  facet normal 0 -1 0
    outer loop
      vertex 41.148 36 27.2284
      vertex 58.3333 36 27.5056
      vertex 41.6667 36 27.5056
    endloop
  endfacet
  facet normal 0 -1 0
    outer loop
      vertex 41.148 36 27.2284
      vertex 58.852 36 27.2284
      vertex 58.3333 36 27.5056
    endloop
  endfacet
  facet normal 0 -1 0
    outer loop
      vertex 40.5853 36 27.0576
      vertex 58.852 36 27.2284
      vertex 41.148 36 27.2284
    endloop
  endfacet
  facet normal 0 -1 0
    outer loop
      vertex 40.5853 36 27.0576
      vertex 59.4147 36 27.0576
      vertex 58.852 36 27.2284
    endloop
  endfacet
  facet normal 0 -1 0
    outer loop
      vertex 80 36 4
      vertex 40.5853 36 27.0576
      vertex 40 36 27
    endloop
  endfacet
  facet normal 0 -1 0
    outer loop
      vertex 40.5853 36 27.0576
      vertex 80 36 4
      vertex 59.4147 36 27.0576
    endloop
  endfacet
  facet normal 0 -1 0
    outer loop
      vertex 39.4147 36 32.9424
      vertex 0 36 50
      vertex 20.5853 36 32.9424
    endloop
  endfacet
  facet normal 0 -1 0
    outer loop
      vertex 0 36 50
      vertex 39.4147 36 32.9424
      vertex 40 36 33
    endloop
  endfacet
  facet normal 0 -1 0
    outer loop
      vertex 21.148 36 32.7716
      vertex 39.4147 36 32.9424
      vertex 20.5853 36 32.9424
    endloop
  endfacet
  facet normal 0 -1 0
    outer loop
      vertex 21.148 36 32.7716
      vertex 38.852 36 32.7716
      vertex 39.4147 36 32.9424
    endloop
  endfacet
  facet normal 0 -1 0
    outer loop
      vertex 21.6667 36 32.4944
      vertex 38.852 36 32.7716
      vertex 21.148 36 32.7716
    endloop
  endfacet
  facet normal 0 -1 0
    outer loop
      vertex 21.6667 36 32.4944
      vertex 38.3333 36 32.4944
      vertex 38.852 36 32.7716
    endloop
  endfacet
  facet normal 0 -1 0
    outer loop
      vertex 22.1213 36 32.1213
      vertex 38.3333 36 32.4944
      vertex 21.6667 36 32.4944
    endloop
  endfacet
  facet normal 0 -1 0
    outer loop
      vertex 22.1213 36 32.1213
      vertex 37.8787 36 32.1213
      vertex 38.3333 36 32.4944
    endloop
  endfacet
  facet normal 0 -1 0
    outer loop
      vertex 22.4944 36 31.6667
      vertex 37.8787 36 32.1213
      vertex 22.1213 36 32.1213
    endloop
  endfacet
  facet normal 0 -1 0
    outer loop
      vertex 22.4944 36 31.6667
      vertex 37.5056 36 31.6667
      vertex 37.8787 36 32.1213
    endloop
  endfacet
  facet normal 0 -1 0
    outer loop
      vertex 22.7716 36 31.148
      vertex 37.5056 36 31.6667
      vertex 22.4944 36 31.6667
    endloop
  endfacet
  facet normal 0 -1 0
    outer loop
      vertex 22.7716 36 31.148
      vertex 37.2284 36 31.148
      vertex 37.5056 36 31.6667
    endloop
  endfacet
  facet normal 0 -1 0
    outer loop
      vertex 22.9424 36 30.5853
      vertex 37.2284 36 31.148
      vertex 22.7716 36 31.148
    endloop
  endfacet
  facet normal 0 -1 0
    outer loop
      vertex 22.9424 36 30.5853
      vertex 37.0576 36 30.5853
      vertex 37.2284 36 31.148
    endloop
  endfacet
  facet normal 0 -1 0
    outer loop
      vertex 23 36 30
      vertex 37.0576 36 30.5853
      vertex 22.9424 36 30.5853
    endloop
  endfacet
  facet normal 0 -1 0
    outer loop
      vertex 23 36 30
      vertex 37 36 30
      vertex 37.0576 36 30.5853
    endloop
  endfacet
  facet normal 0 -1 0
    outer loop
      vertex 22.9424 36 29.4147
      vertex 37 36 30
      vertex 23 36 30
    endloop
  endfacet
  facet normal 0 -1 0
    outer loop
      vertex 22.9424 36 29.4147
      vertex 37.0576 36 29.4147
      vertex 37 36 30
    endloop
  endfacet
  facet normal 0 -1 0
    outer loop
      vertex 22.7716 36 28.8519
      vertex 37.0576 36 29.4147
      vertex 22.9424 36 29.4147
    endloop
  endfacet
  facet normal 0 -1 0
    outer loop
      vertex 22.7716 36 28.8519
      vertex 37.2284 36 28.8519
      vertex 37.0576 36 29.4147
    endloop
  endfacet
  facet normal 0 -1 0
    outer loop
      vertex 22.4944 36 28.3333
      vertex 37.2284 36 28.8519
      vertex 22.7716 36 28.8519
    endloop
  endfacet
  facet normal 0 -1 0
    outer loop
      vertex 22.4944 36 28.3333
      vertex 37.5056 36 28.3333
      vertex 37.2284 36 28.8519
    endloop
  endfacet
  facet normal 0 -1 0
    outer loop
      vertex 22.1213 36 27.8787
      vertex 37.5056 36 28.3333
      vertex 22.4944 36 28.3333
    endloop
  endfacet
  facet normal 0 -1 0
    outer loop
      vertex 22.1213 36 27.8787
      vertex 37.8787 36 27.8787
      vertex 37.5056 36 28.3333
    endloop
  endfacet
  facet normal 0 -1 0
    outer loop
      vertex 21.6667 36 27.5056
      vertex 37.8787 36 27.8787
      vertex 22.1213 36 27.8787
    endloop
  endfacet
  facet normal 0 -1 0
    outer loop
      vertex 21.6667 36 27.5056
      vertex 38.3333 36 27.5056
      vertex 37.8787 36 27.8787
    endloop
  endfacet
  facet normal 0 -1 0
    outer loop
      vertex 21.148 36 27.2284
      vertex 38.3333 36 27.5056
      vertex 21.6667 36 27.5056
    endloop
  endfacet
  facet normal 0 -1 0
    outer loop
      vertex 21.148 36 27.2284
      vertex 38.852 36 27.2284
      vertex 38.3333 36 27.5056
    endloop
  endfacet
  facet normal 0 -1 0
    outer loop
      vertex 20.5853 36 27.0576
      vertex 38.852 36 27.2284
      vertex 21.148 36 27.2284
    endloop
  endfacet
  facet normal 0 -1 0
    outer loop
      vertex 20.5853 36 27.0576
      vertex 39.4147 36 27.0576
      vertex 38.852 36 27.2284
    endloop
  endfacet
  facet normal 0 -1 0
    outer loop
      vertex 0 36 4
      vertex 20.5853 36 27.0576
      vertex 20 36 27
    endloop
  endfacet
  facet normal 0 -1 -0
    outer loop
      vertex 20.5853 36 27.0576
      vertex 0 36 4
      vertex 39.4147 36 27.0576
    endloop
  endfacet
  facet normal 0 -1 0
    outer loop
      vertex 20.5853 36 32.9424
      vertex 0 36 50
      vertex 20 36 33
    endloop
  endfacet
  facet normal 0 -1 0
    outer loop
      vertex 0 36 50
      vertex 19.4147 36 32.9424
      vertex 20 36 33
    endloop
  endfacet
  facet normal 0 -1 0
    outer loop
      vertex 0 36 50
      vertex 18.8519 36 32.7716
      vertex 19.4147 36 32.9424
    endloop
  endfacet
  facet normal 0 -1 0
    outer loop
      vertex 0 36 50
      vertex 18.3333 36 32.4944
      vertex 18.8519 36 32.7716
    endloop
  endfacet
  facet normal 0 -1 0
    outer loop
      vertex 0 36 50
      vertex 17.8787 36 32.1213
      vertex 18.3333 36 32.4944
    endloop
  endfacet
  facet normal 0 -1 0
    outer loop
      vertex 0 36 50
      vertex 17.5056 36 31.6667
      vertex 17.8787 36 32.1213
    endloop
  endfacet
  facet normal 0 -1 0
    outer loop
      vertex 0 36 50
      vertex 17.2284 36 31.148
      vertex 17.5056 36 31.6667
    endloop
  endfacet
  facet normal 0 -1 0
    outer loop
      vertex 0 36 50
      vertex 17.0576 36 30.5853
      vertex 17.2284 36 31.148
    endloop
  endfacet
  facet normal 0 -1 0
    outer loop
      vertex 0 36 50
      vertex 17 36 30
      vertex 17.0576 36 30.5853
    endloop
  endfacet
  facet normal 0 -1 0
    outer loop
      vertex 0 36 50
      vertex 17.0576 36 29.4147
      vertex 17 36 30
    endloop
  endfacet
  facet normal 0 -1 0
    outer loop
      vertex 0 36 4
      vertex 17.0576 36 29.4147
      vertex 0 36 50
    endloop
  endfacet
  facet normal 0 -1 -0
    outer loop
      vertex 17.0576 36 29.4147
      vertex 0 36 4
      vertex 17.2284 36 28.8519
    endloop
  endfacet
  facet normal 0 -1 -0
    outer loop
      vertex 39.4147 36 27.0576
      vertex 0 36 4
      vertex 40 36 27
    endloop
  endfacet
  facet normal 0 -1 0
    outer loop
      vertex 80 36 4
      vertex 40 36 27
      vertex 0 36 4
    endloop
  endfacet
  facet normal 0 -1 -0
    outer loop
      vertex 19.4147 36 27.0576
      vertex 0 36 4
      vertex 20 36 27
    endloop
  endfacet
  facet normal 0 -1 -0
    outer loop
      vertex 18.8519 36 27.2284
      vertex 0 36 4
      vertex 19.4147 36 27.0576
    endloop
  endfacet
  facet normal 0 -1 -0
    outer loop
      vertex 18.3333 36 27.5056
      vertex 0 36 4
      vertex 18.8519 36 27.2284
    endloop
  endfacet
  facet normal 0 -1 -0
    outer loop
      vertex 17.8787 36 27.8787
      vertex 0 36 4
      vertex 18.3333 36 27.5056
    endloop
  endfacet
  facet normal 0 -1 -0
    outer loop
      vertex 17.5056 36 28.3333
      vertex 0 36 4
      vertex 17.8787 36 27.8787
    endloop
  endfacet
  facet normal 0 -1 -0
    outer loop
      vertex 17.2284 36 28.8519
      vertex 0 36 4
      vertex 17.5056 36 28.3333
    endloop
  endfacet
  facet normal 0 -1 0
    outer loop
      vertex 0 36 50
      vertex 40 36 33
      vertex 80 36 50
    endloop
  endfacet
  facet normal 0 -1 0
    outer loop
      vertex 40.5853 36 32.9424
      vertex 80 36 50
      vertex 40 36 33
    endloop
  endfacet
  facet normal 0 -1 0
    outer loop
      vertex 60.5853 36 32.9424
      vertex 80 36 50
      vertex 60 36 33
    endloop
  endfacet
  facet normal 0 -1 0
    outer loop
      vertex 61.148 36 32.7716
      vertex 80 36 50
      vertex 60.5853 36 32.9424
    endloop
  endfacet
  facet normal 0 -1 0
    outer loop
      vertex 61.6667 36 32.4944
      vertex 80 36 50
      vertex 61.148 36 32.7716
    endloop
  endfacet
  facet normal 0 -1 0
    outer loop
      vertex 62.1213 36 32.1213
      vertex 80 36 50
      vertex 61.6667 36 32.4944
    endloop
  endfacet
  facet normal 0 -1 0
    outer loop
      vertex 62.4944 36 31.6667
      vertex 80 36 50
      vertex 62.1213 36 32.1213
    endloop
  endfacet
  facet normal 0 -1 0
    outer loop
      vertex 62.7716 36 31.148
      vertex 80 36 50
      vertex 62.4944 36 31.6667
    endloop
  endfacet
  facet normal 0 -1 0
    outer loop
      vertex 62.9424 36 30.5853
      vertex 80 36 50
      vertex 62.7716 36 31.148
    endloop
  endfacet
  facet normal 0 -1 0
    outer loop
      vertex 63 36 30
      vertex 80 36 50
      vertex 62.9424 36 30.5853
    endloop
  endfacet
  facet normal 0 -1 0
    outer loop
      vertex 62.9424 36 29.4147
      vertex 80 36 50
      vertex 63 36 30
    endloop
  endfacet
  facet normal 0 -1 0
    outer loop
      vertex 80 36 4
      vertex 62.9424 36 29.4147
      vertex 62.7716 36 28.8519
    endloop
  endfacet
  facet normal 0 -1 0
    outer loop
      vertex 80 36 4
      vertex 62.7716 36 28.8519
      vertex 62.4944 36 28.3333
    endloop
  endfacet
  facet normal 0 -1 0
    outer loop
      vertex 59.4147 36 27.0576
      vertex 80 36 4
      vertex 60 36 27
    endloop
  endfacet
  facet normal 0 -1 0
    outer loop
      vertex 60 36 27
      vertex 80 36 4
      vertex 60.5853 36 27.0576
    endloop
  endfacet
  facet normal 0 -1 0
    outer loop
      vertex 62.9424 36 29.4147
      vertex 80 36 4
      vertex 80 36 50
    endloop
  endfacet
  facet normal 0 -1 0
    outer loop
      vertex 62.1213 36 27.8787
      vertex 80 36 4
      vertex 62.4944 36 28.3333
    endloop
  endfacet
  facet normal 0 -1 0
    outer loop
      vertex 61.6667 36 27.5056
      vertex 80 36 4
      vertex 62.1213 36 27.8787
    endloop
  endfacet
  facet normal 0 -1 0
    outer loop
      vertex 61.148 36 27.2284
      vertex 80 36 4
      vertex 61.6667 36 27.5056
    endloop
  endfacet
  facet normal 0 -1 0
    outer loop
      vertex 60.5853 36 27.0576
      vertex 80 36 4
      vertex 61.148 36 27.2284
    endloop
  endfacet
  facet normal 0.95689 0 -0.290451
    outer loop
      vertex 17.2284 36 31.148
      vertex 17.0576 40 30.5853
      vertex 17.2284 40 31.148
    endloop
  endfacet
  facet normal 0.95689 0 -0.290451
    outer loop
      vertex 17.0576 40 30.5853
      vertex 17.2284 36 31.148
      vertex 17.0576 36 30.5853
    endloop
  endfacet
  facet normal -0.634413 2.46834e-19 0.772994
    outer loop
      vertex 21.6667 40 27.5056
      vertex 22.1213 36 27.8787
      vertex 22.1213 40 27.8787
    endloop
  endfacet
  facet normal -0.634413 2.46834e-19 0.772994
    outer loop
      vertex 22.1213 36 27.8787
      vertex 21.6667 40 27.5056
      vertex 21.6667 36 27.5056
    endloop
  endfacet
  facet normal 0.772994 -0 0.634413
    outer loop
      vertex 17.5056 36 28.3333
      vertex 17.8787 40 27.8787
      vertex 17.5056 40 28.3333
    endloop
  endfacet
  facet normal 0.772994 0 0.634413
    outer loop
      vertex 17.8787 40 27.8787
      vertex 17.5056 36 28.3333
      vertex 17.8787 36 27.8787
    endloop
  endfacet
  facet normal -0.995193 0 -0.097938
    outer loop
      vertex 23 36 30
      vertex 22.9424 40 30.5853
      vertex 23 40 30
    endloop
  endfacet
  facet normal -0.995193 -0 -0.097938
    outer loop
      vertex 22.9424 40 30.5853
      vertex 23 36 30
      vertex 22.9424 36 30.5853
    endloop
  endfacet
  facet normal -0.881919 0 0.4714
    outer loop
      vertex 22.4944 36 28.3333
      vertex 22.7716 40 28.8519
      vertex 22.4944 40 28.3333
    endloop
  endfacet
  facet normal -0.881919 0 0.4714
    outer loop
      vertex 22.7716 40 28.8519
      vertex 22.4944 36 28.3333
      vertex 22.7716 36 28.8519
    endloop
  endfacet
  facet normal -0.881957 0 -0.471329
    outer loop
      vertex 22.7716 36 31.148
      vertex 22.4944 40 31.6667
      vertex 22.7716 40 31.148
    endloop
  endfacet
  facet normal -0.881957 -0 -0.471329
    outer loop
      vertex 22.4944 40 31.6667
      vertex 22.7716 36 31.148
      vertex 22.4944 36 31.6667
    endloop
  endfacet
  facet normal -0.995193 0 0.097938
    outer loop
      vertex 22.9424 36 29.4147
      vertex 23 40 30
      vertex 22.9424 40 29.4147
    endloop
  endfacet
  facet normal -0.995193 0 0.097938
    outer loop
      vertex 23 40 30
      vertex 22.9424 36 29.4147
      vertex 23 36 30
    endloop
  endfacet
  facet normal 0.290404 1.06795e-18 0.956904
    outer loop
      vertex 18.8519 40 27.2284
      vertex 19.4147 36 27.0576
      vertex 19.4147 40 27.0576
    endloop
  endfacet
  facet normal 0.290404 1.06795e-18 0.956904
    outer loop
      vertex 19.4147 36 27.0576
      vertex 18.8519 40 27.2284
      vertex 18.8519 36 27.2284
    endloop
  endfacet
  facet normal -0.956904 0 0.290404
    outer loop
      vertex 22.7716 36 28.8519
      vertex 22.9424 40 29.4147
      vertex 22.7716 40 28.8519
    endloop
  endfacet
  facet normal -0.956904 0 0.290404
    outer loop
      vertex 22.9424 40 29.4147
      vertex 22.7716 36 28.8519
      vertex 22.9424 36 29.4147
    endloop
  endfacet
  facet normal -0.290451 -7.12082e-19 0.95689
    outer loop
      vertex 20.5853 40 27.0576
      vertex 21.148 36 27.2284
      vertex 21.148 40 27.2284
    endloop
  endfacet
  facet normal -0.290451 -7.12082e-19 0.95689
    outer loop
      vertex 21.148 36 27.2284
      vertex 20.5853 40 27.0576
      vertex 20.5853 36 27.0576
    endloop
  endfacet
  facet normal 0.995193 0 -0.097938
    outer loop
      vertex 17.0576 36 30.5853
      vertex 17 40 30
      vertex 17.0576 40 30.5853
    endloop
  endfacet
  facet normal 0.995193 0 -0.097938
    outer loop
      vertex 17 40 30
      vertex 17.0576 36 30.5853
      vertex 17 36 30
    endloop
  endfacet
  facet normal 0.995193 -0 0.097938
    outer loop
      vertex 17 36 30
      vertex 17.0576 40 29.4147
      vertex 17 40 30
    endloop
  endfacet
  facet normal 0.995193 0 0.097938
    outer loop
      vertex 17.0576 40 29.4147
      vertex 17 36 30
      vertex 17.0576 36 29.4147
    endloop
  endfacet
  facet normal 0.881957 0 -0.471329
    outer loop
      vertex 17.5056 36 31.6667
      vertex 17.2284 40 31.148
      vertex 17.5056 40 31.6667
    endloop
  endfacet
  facet normal 0.881957 0 -0.471329
    outer loop
      vertex 17.2284 40 31.148
      vertex 17.5056 36 31.6667
      vertex 17.2284 36 31.148
    endloop
  endfacet
  facet normal 0.881919 -0 0.4714
    outer loop
      vertex 17.2284 36 28.8519
      vertex 17.5056 40 28.3333
      vertex 17.2284 40 28.8519
    endloop
  endfacet
  facet normal 0.881919 0 0.4714
    outer loop
      vertex 17.5056 40 28.3333
      vertex 17.2284 36 28.8519
      vertex 17.5056 36 28.3333
    endloop
  endfacet
  facet normal 0.097938 6.59466e-19 0.995193
    outer loop
      vertex 19.4147 40 27.0576
      vertex 20 36 27
      vertex 20 40 27
    endloop
  endfacet
  facet normal 0.097938 6.59466e-19 0.995193
    outer loop
      vertex 20 36 27
      vertex 19.4147 40 27.0576
      vertex 19.4147 36 27.0576
    endloop
  endfacet
  facet normal 0.097938 -6.59466e-19 -0.995193
    outer loop
      vertex 19.4147 36 32.9424
      vertex 20 40 33
      vertex 20 36 33
    endloop
  endfacet
  facet normal 0.097938 -6.59466e-19 -0.995193
    outer loop
      vertex 20 40 33
      vertex 19.4147 36 32.9424
      vertex 19.4147 40 32.9424
    endloop
  endfacet
  facet normal -0.634413 -2.47444e-18 -0.772994
    outer loop
      vertex 21.6667 36 32.4944
      vertex 22.1213 40 32.1213
      vertex 22.1213 36 32.1213
    endloop
  endfacet
  facet normal -0.634413 -2.47444e-18 -0.772994
    outer loop
      vertex 22.1213 40 32.1213
      vertex 21.6667 36 32.4944
      vertex 21.6667 40 32.4944
    endloop
  endfacet
  facet normal 0.4714 -9.19118e-19 -0.881919
    outer loop
      vertex 18.3333 36 32.4944
      vertex 18.8519 40 32.7716
      vertex 18.8519 36 32.7716
    endloop
  endfacet
  facet normal 0.4714 -9.19118e-19 -0.881919
    outer loop
      vertex 18.8519 40 32.7716
      vertex 18.3333 36 32.4944
      vertex 18.3333 40 32.4944
    endloop
  endfacet
  facet normal -0.471329 -3.2766e-18 -0.881957
    outer loop
      vertex 21.148 36 32.7716
      vertex 21.6667 40 32.4944
      vertex 21.6667 36 32.4944
    endloop
  endfacet
  facet normal -0.471329 -3.2766e-18 -0.881957
    outer loop
      vertex 21.6667 40 32.4944
      vertex 21.148 36 32.7716
      vertex 21.148 40 32.7716
    endloop
  endfacet
  facet normal -0.471329 3.2766e-18 0.881957
    outer loop
      vertex 21.148 40 27.2284
      vertex 21.6667 36 27.5056
      vertex 21.6667 40 27.5056
    endloop
  endfacet
  facet normal -0.471329 3.2766e-18 0.881957
    outer loop
      vertex 21.6667 36 27.5056
      vertex 21.148 40 27.2284
      vertex 21.148 36 27.2284
    endloop
  endfacet
  facet normal -0.772994 0 0.634413
    outer loop
      vertex 22.1213 36 27.8787
      vertex 22.4944 40 28.3333
      vertex 22.1213 40 27.8787
    endloop
  endfacet
  facet normal -0.772994 0 0.634413
    outer loop
      vertex 22.4944 40 28.3333
      vertex 22.1213 36 27.8787
      vertex 22.4944 36 28.3333
    endloop
  endfacet
  facet normal -0.772994 0 -0.634413
    outer loop
      vertex 22.4944 36 31.6667
      vertex 22.1213 40 32.1213
      vertex 22.4944 40 31.6667
    endloop
  endfacet
  facet normal -0.772994 -0 -0.634413
    outer loop
      vertex 22.1213 40 32.1213
      vertex 22.4944 36 31.6667
      vertex 22.1213 36 32.1213
    endloop
  endfacet
  facet normal -0.097938 6.59466e-19 -0.995193
    outer loop
      vertex 20 36 33
      vertex 20.5853 40 32.9424
      vertex 20.5853 36 32.9424
    endloop
  endfacet
  facet normal -0.097938 6.59466e-19 -0.995193
    outer loop
      vertex 20.5853 40 32.9424
      vertex 20 36 33
      vertex 20 40 33
    endloop
  endfacet
  facet normal 0.290404 -1.06795e-18 -0.956904
    outer loop
      vertex 18.8519 36 32.7716
      vertex 19.4147 40 32.9424
      vertex 19.4147 36 32.9424
    endloop
  endfacet
  facet normal 0.290404 -1.06795e-18 -0.956904
    outer loop
      vertex 19.4147 40 32.9424
      vertex 18.8519 36 32.7716
      vertex 18.8519 40 32.7716
    endloop
  endfacet
  facet normal 0.634413 -2.46834e-19 0.772994
    outer loop
      vertex 17.8787 40 27.8787
      vertex 18.3333 36 27.5056
      vertex 18.3333 40 27.5056
    endloop
  endfacet
  facet normal 0.634413 -2.46834e-19 0.772994
    outer loop
      vertex 18.3333 36 27.5056
      vertex 17.8787 40 27.8787
      vertex 17.8787 36 27.8787
    endloop
  endfacet
  facet normal 0.956904 -0 0.290404
    outer loop
      vertex 17.0576 36 29.4147
      vertex 17.2284 40 28.8519
      vertex 17.0576 40 29.4147
    endloop
  endfacet
  facet normal 0.956904 0 0.290404
    outer loop
      vertex 17.2284 40 28.8519
      vertex 17.0576 36 29.4147
      vertex 17.2284 36 28.8519
    endloop
  endfacet
  facet normal 0.4714 9.19118e-19 0.881919
    outer loop
      vertex 18.3333 40 27.5056
      vertex 18.8519 36 27.2284
      vertex 18.8519 40 27.2284
    endloop
  endfacet
  facet normal 0.4714 9.19118e-19 0.881919
    outer loop
      vertex 18.8519 36 27.2284
      vertex 18.3333 40 27.5056
      vertex 18.3333 36 27.5056
    endloop
  endfacet
  facet normal 0.772994 0 -0.634413
    outer loop
      vertex 17.8787 36 32.1213
      vertex 17.5056 40 31.6667
      vertex 17.8787 40 32.1213
    endloop
  endfacet
  facet normal 0.772994 0 -0.634413
    outer loop
      vertex 17.5056 40 31.6667
      vertex 17.8787 36 32.1213
      vertex 17.5056 36 31.6667
    endloop
  endfacet
  facet normal 0.634413 2.47444e-18 -0.772994
    outer loop
      vertex 17.8787 36 32.1213
      vertex 18.3333 40 32.4944
      vertex 18.3333 36 32.4944
    endloop
  endfacet
  facet normal 0.634413 2.47444e-18 -0.772994
    outer loop
      vertex 18.3333 40 32.4944
      vertex 17.8787 36 32.1213
      vertex 17.8787 40 32.1213
    endloop
  endfacet
  facet normal -0.95689 0 -0.290451
    outer loop
      vertex 22.9424 36 30.5853
      vertex 22.7716 40 31.148
      vertex 22.9424 40 30.5853
    endloop
  endfacet
  facet normal -0.95689 -0 -0.290451
    outer loop
      vertex 22.7716 40 31.148
      vertex 22.9424 36 30.5853
      vertex 22.7716 36 31.148
    endloop
  endfacet
  facet normal -0.290451 7.12082e-19 -0.95689
    outer loop
      vertex 20.5853 36 32.9424
      vertex 21.148 40 32.7716
      vertex 21.148 36 32.7716
    endloop
  endfacet
  facet normal -0.290451 7.12082e-19 -0.95689
    outer loop
      vertex 21.148 40 32.7716
      vertex 20.5853 36 32.9424
      vertex 20.5853 40 32.9424
    endloop
  endfacet
  facet normal -0.097938 -6.59466e-19 0.995193
    outer loop
      vertex 20 40 27
      vertex 20.5853 36 27.0576
      vertex 20.5853 40 27.0576
    endloop
  endfacet
  facet normal -0.097938 -6.59466e-19 0.995193
    outer loop
      vertex 20.5853 36 27.0576
      vertex 20 40 27
      vertex 20 36 27
    endloop
  endfacet
  facet normal 0.881957 0 -0.471329
    outer loop
      vertex 37.5056 36 31.6667
      vertex 37.2284 40 31.148
      vertex 37.5056 40 31.6667
    endloop
  endfacet
  facet normal 0.881957 0 -0.471329
    outer loop
      vertex 37.2284 40 31.148
      vertex 37.5056 36 31.6667
      vertex 37.2284 36 31.148
    endloop
  endfacet
  facet normal 0.95689 0 -0.290451
    outer loop
      vertex 37.2284 36 31.148
      vertex 37.0576 40 30.5853
      vertex 37.2284 40 31.148
    endloop
  endfacet
  facet normal 0.95689 0 -0.290451
    outer loop
      vertex 37.0576 40 30.5853
      vertex 37.2284 36 31.148
      vertex 37.0576 36 30.5853
    endloop
  endfacet
  facet normal -0.634413 3.1163e-18 0.772994
    outer loop
      vertex 41.6667 40 27.5056
      vertex 42.1213 36 27.8787
      vertex 42.1213 40 27.8787
    endloop
  endfacet
  facet normal -0.634413 3.1163e-18 0.772994
    outer loop
      vertex 42.1213 36 27.8787
      vertex 41.6667 40 27.5056
      vertex 41.6667 36 27.5056
    endloop
  endfacet
  facet normal 0.772994 -0 0.634413
    outer loop
      vertex 37.5056 36 28.3333
      vertex 37.8787 40 27.8787
      vertex 37.5056 40 28.3333
    endloop
  endfacet
  facet normal 0.772994 0 0.634413
    outer loop
      vertex 37.8787 40 27.8787
      vertex 37.5056 36 28.3333
      vertex 37.8787 36 27.8787
    endloop
  endfacet
  facet normal -0.995193 0 -0.097938
    outer loop
      vertex 43 36 30
      vertex 42.9424 40 30.5853
      vertex 43 40 30
    endloop
  endfacet
  facet normal -0.995193 -0 -0.097938
    outer loop
      vertex 42.9424 40 30.5853
      vertex 43 36 30
      vertex 42.9424 36 30.5853
    endloop
  endfacet
  facet normal -0.881919 0 0.4714
    outer loop
      vertex 42.4944 36 28.3333
      vertex 42.7716 40 28.8519
      vertex 42.4944 40 28.3333
    endloop
  endfacet
  facet normal -0.881919 0 0.4714
    outer loop
      vertex 42.7716 40 28.8519
      vertex 42.4944 36 28.3333
      vertex 42.7716 36 28.8519
    endloop
  endfacet
  facet normal -0.881957 0 -0.471329
    outer loop
      vertex 42.7716 36 31.148
      vertex 42.4944 40 31.6667
      vertex 42.7716 40 31.148
    endloop
  endfacet
  facet normal -0.881957 -0 -0.471329
    outer loop
      vertex 42.4944 40 31.6667
      vertex 42.7716 36 31.148
      vertex 42.4944 36 31.6667
    endloop
  endfacet
  facet normal -0.995193 0 0.097938
    outer loop
      vertex 42.9424 36 29.4147
      vertex 43 40 30
      vertex 42.9424 40 29.4147
    endloop
  endfacet
  facet normal -0.995193 0 0.097938
    outer loop
      vertex 43 40 30
      vertex 42.9424 36 29.4147
      vertex 43 36 30
    endloop
  endfacet
  facet normal 0.290451 -1.94052e-18 0.95689
    outer loop
      vertex 38.852 40 27.2284
      vertex 39.4147 36 27.0576
      vertex 39.4147 40 27.0576
    endloop
  endfacet
  facet normal 0.290451 -1.94052e-18 0.95689
    outer loop
      vertex 39.4147 36 27.0576
      vertex 38.852 40 27.2284
      vertex 38.852 36 27.2284
    endloop
  endfacet
  facet normal -0.956904 0 0.290404
    outer loop
      vertex 42.7716 36 28.8519
      vertex 42.9424 40 29.4147
      vertex 42.7716 40 28.8519
    endloop
  endfacet
  facet normal -0.956904 0 0.290404
    outer loop
      vertex 42.9424 40 29.4147
      vertex 42.7716 36 28.8519
      vertex 42.9424 36 29.4147
    endloop
  endfacet
  facet normal -0.95689 0 -0.290451
    outer loop
      vertex 42.9424 36 30.5853
      vertex 42.7716 40 31.148
      vertex 42.9424 40 30.5853
    endloop
  endfacet
  facet normal -0.95689 -0 -0.290451
    outer loop
      vertex 42.7716 40 31.148
      vertex 42.9424 36 30.5853
      vertex 42.7716 36 31.148
    endloop
  endfacet
  facet normal -0.290451 1.94052e-18 0.95689
    outer loop
      vertex 40.5853 40 27.0576
      vertex 41.148 36 27.2284
      vertex 41.148 40 27.2284
    endloop
  endfacet
  facet normal -0.290451 1.94052e-18 0.95689
    outer loop
      vertex 41.148 36 27.2284
      vertex 40.5853 40 27.0576
      vertex 40.5853 36 27.0576
    endloop
  endfacet
  facet normal 0.995193 0 -0.097938
    outer loop
      vertex 37.0576 36 30.5853
      vertex 37 40 30
      vertex 37.0576 40 30.5853
    endloop
  endfacet
  facet normal 0.995193 0 -0.097938
    outer loop
      vertex 37 40 30
      vertex 37.0576 36 30.5853
      vertex 37 36 30
    endloop
  endfacet
  facet normal 0.995193 -0 0.097938
    outer loop
      vertex 37 36 30
      vertex 37.0576 40 29.4147
      vertex 37 40 30
    endloop
  endfacet
  facet normal 0.995193 0 0.097938
    outer loop
      vertex 37.0576 40 29.4147
      vertex 37 36 30
      vertex 37.0576 36 29.4147
    endloop
  endfacet
  facet normal 0.881919 -0 0.4714
    outer loop
      vertex 37.2284 36 28.8519
      vertex 37.5056 40 28.3333
      vertex 37.2284 40 28.8519
    endloop
  endfacet
  facet normal 0.881919 0 0.4714
    outer loop
      vertex 37.5056 40 28.3333
      vertex 37.2284 36 28.8519
      vertex 37.5056 36 28.3333
    endloop
  endfacet
  facet normal 0.097938 -8.41276e-19 0.995193
    outer loop
      vertex 39.4147 40 27.0576
      vertex 40 36 27
      vertex 40 40 27
    endloop
  endfacet
  facet normal 0.097938 -8.41276e-19 0.995193
    outer loop
      vertex 40 36 27
      vertex 39.4147 40 27.0576
      vertex 39.4147 36 27.0576
    endloop
  endfacet
  facet normal 0.097938 8.41276e-19 -0.995193
    outer loop
      vertex 39.4147 36 32.9424
      vertex 40 40 33
      vertex 40 36 33
    endloop
  endfacet
  facet normal 0.097938 8.41276e-19 -0.995193
    outer loop
      vertex 40 40 33
      vertex 39.4147 36 32.9424
      vertex 39.4147 40 32.9424
    endloop
  endfacet
  facet normal -0.634413 -5.34391e-18 -0.772994
    outer loop
      vertex 41.6667 36 32.4944
      vertex 42.1213 40 32.1213
      vertex 42.1213 36 32.1213
    endloop
  endfacet
  facet normal -0.634413 -5.34391e-18 -0.772994
    outer loop
      vertex 42.1213 40 32.1213
      vertex 41.6667 36 32.4944
      vertex 41.6667 40 32.4944
    endloop
  endfacet
  facet normal 0.471329 -2.40549e-18 -0.881957
    outer loop
      vertex 38.3333 36 32.4944
      vertex 38.852 40 32.7716
      vertex 38.852 36 32.7716
    endloop
  endfacet
  facet normal 0.471329 -2.40549e-18 -0.881957
    outer loop
      vertex 38.852 40 32.7716
      vertex 38.3333 36 32.4944
      vertex 38.3333 40 32.4944
    endloop
  endfacet
  facet normal -0.471329 2.40549e-18 -0.881957
    outer loop
      vertex 41.148 36 32.7716
      vertex 41.6667 40 32.4944
      vertex 41.6667 36 32.4944
    endloop
  endfacet
  facet normal -0.471329 2.40549e-18 -0.881957
    outer loop
      vertex 41.6667 40 32.4944
      vertex 41.148 36 32.7716
      vertex 41.148 40 32.7716
    endloop
  endfacet
  facet normal -0.772994 0 0.634413
    outer loop
      vertex 42.1213 36 27.8787
      vertex 42.4944 40 28.3333
      vertex 42.1213 40 27.8787
    endloop
  endfacet
  facet normal -0.772994 0 0.634413
    outer loop
      vertex 42.4944 40 28.3333
      vertex 42.1213 36 27.8787
      vertex 42.4944 36 28.3333
    endloop
  endfacet
  facet normal -0.471329 -2.40549e-18 0.881957
    outer loop
      vertex 41.148 40 27.2284
      vertex 41.6667 36 27.5056
      vertex 41.6667 40 27.5056
    endloop
  endfacet
  facet normal -0.471329 -2.40549e-18 0.881957
    outer loop
      vertex 41.6667 36 27.5056
      vertex 41.148 40 27.2284
      vertex 41.148 36 27.2284
    endloop
  endfacet
  facet normal -0.772994 0 -0.634413
    outer loop
      vertex 42.4944 36 31.6667
      vertex 42.1213 40 32.1213
      vertex 42.4944 40 31.6667
    endloop
  endfacet
  facet normal -0.772994 -0 -0.634413
    outer loop
      vertex 42.1213 40 32.1213
      vertex 42.4944 36 31.6667
      vertex 42.1213 36 32.1213
    endloop
  endfacet
  facet normal -0.097938 -8.41276e-19 -0.995193
    outer loop
      vertex 40 36 33
      vertex 40.5853 40 32.9424
      vertex 40.5853 36 32.9424
    endloop
  endfacet
  facet normal -0.097938 -8.41276e-19 -0.995193
    outer loop
      vertex 40.5853 40 32.9424
      vertex 40 36 33
      vertex 40 40 33
    endloop
  endfacet
  facet normal 0.290451 1.94052e-18 -0.95689
    outer loop
      vertex 38.852 36 32.7716
      vertex 39.4147 40 32.9424
      vertex 39.4147 36 32.9424
    endloop
  endfacet
  facet normal 0.290451 1.94052e-18 -0.95689
    outer loop
      vertex 39.4147 40 32.9424
      vertex 38.852 36 32.7716
      vertex 38.852 40 32.7716
    endloop
  endfacet
  facet normal 0.634413 -3.1163e-18 0.772994
    outer loop
      vertex 37.8787 40 27.8787
      vertex 38.3333 36 27.5056
      vertex 38.3333 40 27.5056
    endloop
  endfacet
  facet normal 0.634413 -3.1163e-18 0.772994
    outer loop
      vertex 38.3333 36 27.5056
      vertex 37.8787 40 27.8787
      vertex 37.8787 36 27.8787
    endloop
  endfacet
  facet normal 0.956904 -0 0.290404
    outer loop
      vertex 37.0576 36 29.4147
      vertex 37.2284 40 28.8519
      vertex 37.0576 40 29.4147
    endloop
  endfacet
  facet normal 0.956904 0 0.290404
    outer loop
      vertex 37.2284 40 28.8519
      vertex 37.0576 36 29.4147
      vertex 37.2284 36 28.8519
    endloop
  endfacet
  facet normal 0.471329 2.40549e-18 0.881957
    outer loop
      vertex 38.3333 40 27.5056
      vertex 38.852 36 27.2284
      vertex 38.852 40 27.2284
    endloop
  endfacet
  facet normal 0.471329 2.40549e-18 0.881957
    outer loop
      vertex 38.852 36 27.2284
      vertex 38.3333 40 27.5056
      vertex 38.3333 36 27.5056
    endloop
  endfacet
  facet normal 0.772994 0 -0.634413
    outer loop
      vertex 37.8787 36 32.1213
      vertex 37.5056 40 31.6667
      vertex 37.8787 40 32.1213
    endloop
  endfacet
  facet normal 0.772994 0 -0.634413
    outer loop
      vertex 37.5056 40 31.6667
      vertex 37.8787 36 32.1213
      vertex 37.5056 36 31.6667
    endloop
  endfacet
  facet normal 0.634413 5.34391e-18 -0.772994
    outer loop
      vertex 37.8787 36 32.1213
      vertex 38.3333 40 32.4944
      vertex 38.3333 36 32.4944
    endloop
  endfacet
  facet normal 0.634413 5.34391e-18 -0.772994
    outer loop
      vertex 38.3333 40 32.4944
      vertex 37.8787 36 32.1213
      vertex 37.8787 40 32.1213
    endloop
  endfacet
  facet normal -0.290451 -1.94052e-18 -0.95689
    outer loop
      vertex 40.5853 36 32.9424
      vertex 41.148 40 32.7716
      vertex 41.148 36 32.7716
    endloop
  endfacet
  facet normal -0.290451 -1.94052e-18 -0.95689
    outer loop
      vertex 41.148 40 32.7716
      vertex 40.5853 36 32.9424
      vertex 40.5853 40 32.9424
    endloop
  endfacet
  facet normal -0.097938 8.41276e-19 0.995193
    outer loop
      vertex 40 40 27
      vertex 40.5853 36 27.0576
      vertex 40.5853 40 27.0576
    endloop
  endfacet
  facet normal -0.097938 8.41276e-19 0.995193
    outer loop
      vertex 40.5853 36 27.0576
      vertex 40 40 27
      vertex 40 36 27
    endloop
  endfacet
  facet normal -0.097938 8.41276e-19 0.995193
    outer loop
      vertex 60 40 27
      vertex 60.5853 36 27.0576
      vertex 60.5853 40 27.0576
    endloop
  endfacet
  facet normal -0.097938 8.41276e-19 0.995193
    outer loop
      vertex 60.5853 36 27.0576
      vertex 60 40 27
      vertex 60 36 27
    endloop
  endfacet
  facet normal -0.772994 0 -0.634413
    outer loop
      vertex 62.4944 36 31.6667
      vertex 62.1213 40 32.1213
      vertex 62.4944 40 31.6667
    endloop
  endfacet
  facet normal -0.772994 -0 -0.634413
    outer loop
      vertex 62.1213 40 32.1213
      vertex 62.4944 36 31.6667
      vertex 62.1213 36 32.1213
    endloop
  endfacet
  facet normal -0.956904 0 0.290404
    outer loop
      vertex 62.7716 36 28.8519
      vertex 62.9424 40 29.4147
      vertex 62.7716 40 28.8519
    endloop
  endfacet
  facet normal -0.956904 0 0.290404
    outer loop
      vertex 62.9424 40 29.4147
      vertex 62.7716 36 28.8519
      vertex 62.9424 36 29.4147
    endloop
  endfacet
  facet normal -0.995193 0 0.097938
    outer loop
      vertex 62.9424 36 29.4147
      vertex 63 40 30
      vertex 62.9424 40 29.4147
    endloop
  endfacet
  facet normal -0.995193 0 0.097938
    outer loop
      vertex 63 40 30
      vertex 62.9424 36 29.4147
      vertex 63 36 30
    endloop
  endfacet
  facet normal -0.881919 0 0.4714
    outer loop
      vertex 62.4944 36 28.3333
      vertex 62.7716 40 28.8519
      vertex 62.4944 40 28.3333
    endloop
  endfacet
  facet normal -0.881919 0 0.4714
    outer loop
      vertex 62.7716 40 28.8519
      vertex 62.4944 36 28.3333
      vertex 62.7716 36 28.8519
    endloop
  endfacet
  facet normal 0.634413 5.34391e-18 -0.772994
    outer loop
      vertex 57.8787 36 32.1213
      vertex 58.3333 40 32.4944
      vertex 58.3333 36 32.4944
    endloop
  endfacet
  facet normal 0.634413 5.34391e-18 -0.772994
    outer loop
      vertex 58.3333 40 32.4944
      vertex 57.8787 36 32.1213
      vertex 57.8787 40 32.1213
    endloop
  endfacet
  facet normal 0.290451 -1.94052e-18 0.95689
    outer loop
      vertex 58.852 40 27.2284
      vertex 59.4147 36 27.0576
      vertex 59.4147 40 27.0576
    endloop
  endfacet
  facet normal 0.290451 -1.94052e-18 0.95689
    outer loop
      vertex 59.4147 36 27.0576
      vertex 58.852 40 27.2284
      vertex 58.852 36 27.2284
    endloop
  endfacet
  facet normal -0.995193 0 -0.097938
    outer loop
      vertex 63 36 30
      vertex 62.9424 40 30.5853
      vertex 63 40 30
    endloop
  endfacet
  facet normal -0.995193 -0 -0.097938
    outer loop
      vertex 62.9424 40 30.5853
      vertex 63 36 30
      vertex 62.9424 36 30.5853
    endloop
  endfacet
  facet normal 0.097938 8.41276e-19 -0.995193
    outer loop
      vertex 59.4147 36 32.9424
      vertex 60 40 33
      vertex 60 36 33
    endloop
  endfacet
  facet normal 0.097938 8.41276e-19 -0.995193
    outer loop
      vertex 60 40 33
      vertex 59.4147 36 32.9424
      vertex 59.4147 40 32.9424
    endloop
  endfacet
  facet normal 0.471329 -2.40549e-18 -0.881957
    outer loop
      vertex 58.3333 36 32.4944
      vertex 58.852 40 32.7716
      vertex 58.852 36 32.7716
    endloop
  endfacet
  facet normal 0.471329 -2.40549e-18 -0.881957
    outer loop
      vertex 58.852 40 32.7716
      vertex 58.3333 36 32.4944
      vertex 58.3333 40 32.4944
    endloop
  endfacet
  facet normal 0.881957 0 -0.471329
    outer loop
      vertex 57.5056 36 31.6667
      vertex 57.2284 40 31.148
      vertex 57.5056 40 31.6667
    endloop
  endfacet
  facet normal 0.881957 0 -0.471329
    outer loop
      vertex 57.2284 40 31.148
      vertex 57.5056 36 31.6667
      vertex 57.2284 36 31.148
    endloop
  endfacet
  facet normal -0.097938 -8.41276e-19 -0.995193
    outer loop
      vertex 60 36 33
      vertex 60.5853 40 32.9424
      vertex 60.5853 36 32.9424
    endloop
  endfacet
  facet normal -0.097938 -8.41276e-19 -0.995193
    outer loop
      vertex 60.5853 40 32.9424
      vertex 60 36 33
      vertex 60 40 33
    endloop
  endfacet
  facet normal -0.95689 0 -0.290451
    outer loop
      vertex 62.9424 36 30.5853
      vertex 62.7716 40 31.148
      vertex 62.9424 40 30.5853
    endloop
  endfacet
  facet normal -0.95689 -0 -0.290451
    outer loop
      vertex 62.7716 40 31.148
      vertex 62.9424 36 30.5853
      vertex 62.7716 36 31.148
    endloop
  endfacet
  facet normal -0.290451 1.94052e-18 0.95689
    outer loop
      vertex 60.5853 40 27.0576
      vertex 61.148 36 27.2284
      vertex 61.148 40 27.2284
    endloop
  endfacet
  facet normal -0.290451 1.94052e-18 0.95689
    outer loop
      vertex 61.148 36 27.2284
      vertex 60.5853 40 27.0576
      vertex 60.5853 36 27.0576
    endloop
  endfacet
  facet normal -0.290451 -1.94052e-18 -0.95689
    outer loop
      vertex 60.5853 36 32.9424
      vertex 61.148 40 32.7716
      vertex 61.148 36 32.7716
    endloop
  endfacet
  facet normal -0.290451 -1.94052e-18 -0.95689
    outer loop
      vertex 61.148 40 32.7716
      vertex 60.5853 36 32.9424
      vertex 60.5853 40 32.9424
    endloop
  endfacet
  facet normal 0.290451 1.94052e-18 -0.95689
    outer loop
      vertex 58.852 36 32.7716
      vertex 59.4147 40 32.9424
      vertex 59.4147 36 32.9424
    endloop
  endfacet
  facet normal 0.290451 1.94052e-18 -0.95689
    outer loop
      vertex 59.4147 40 32.9424
      vertex 58.852 36 32.7716
      vertex 58.852 40 32.7716
    endloop
  endfacet
  facet normal 0.634413 -3.1163e-18 0.772994
    outer loop
      vertex 57.8787 40 27.8787
      vertex 58.3333 36 27.5056
      vertex 58.3333 40 27.5056
    endloop
  endfacet
  facet normal 0.634413 -3.1163e-18 0.772994
    outer loop
      vertex 58.3333 36 27.5056
      vertex 57.8787 40 27.8787
      vertex 57.8787 36 27.8787
    endloop
  endfacet
  facet normal -0.772994 0 0.634413
    outer loop
      vertex 62.1213 36 27.8787
      vertex 62.4944 40 28.3333
      vertex 62.1213 40 27.8787
    endloop
  endfacet
  facet normal -0.772994 0 0.634413
    outer loop
      vertex 62.4944 40 28.3333
      vertex 62.1213 36 27.8787
      vertex 62.4944 36 28.3333
    endloop
  endfacet
  facet normal 0.471329 2.40549e-18 0.881957
    outer loop
      vertex 58.3333 40 27.5056
      vertex 58.852 36 27.2284
      vertex 58.852 40 27.2284
    endloop
  endfacet
  facet normal 0.471329 2.40549e-18 0.881957
    outer loop
      vertex 58.852 36 27.2284
      vertex 58.3333 40 27.5056
      vertex 58.3333 36 27.5056
    endloop
  endfacet
  facet normal -0.471329 2.40549e-18 -0.881957
    outer loop
      vertex 61.148 36 32.7716
      vertex 61.6667 40 32.4944
      vertex 61.6667 36 32.4944
    endloop
  endfacet
  facet normal -0.471329 2.40549e-18 -0.881957
    outer loop
      vertex 61.6667 40 32.4944
      vertex 61.148 36 32.7716
      vertex 61.148 40 32.7716
    endloop
  endfacet
  facet normal 0.956904 -0 0.290404
    outer loop
      vertex 57.0576 36 29.4147
      vertex 57.2284 40 28.8519
      vertex 57.0576 40 29.4147
    endloop
  endfacet
  facet normal 0.956904 0 0.290404
    outer loop
      vertex 57.2284 40 28.8519
      vertex 57.0576 36 29.4147
      vertex 57.2284 36 28.8519
    endloop
  endfacet
  facet normal 0.097938 -8.41276e-19 0.995193
    outer loop
      vertex 59.4147 40 27.0576
      vertex 60 36 27
      vertex 60 40 27
    endloop
  endfacet
  facet normal 0.097938 -8.41276e-19 0.995193
    outer loop
      vertex 60 36 27
      vertex 59.4147 40 27.0576
      vertex 59.4147 36 27.0576
    endloop
  endfacet
  facet normal -0.881957 0 -0.471329
    outer loop
      vertex 62.7716 36 31.148
      vertex 62.4944 40 31.6667
      vertex 62.7716 40 31.148
    endloop
  endfacet
  facet normal -0.881957 -0 -0.471329
    outer loop
      vertex 62.4944 40 31.6667
      vertex 62.7716 36 31.148
      vertex 62.4944 36 31.6667
    endloop
  endfacet
  facet normal -0.634413 3.1163e-18 0.772994
    outer loop
      vertex 61.6667 40 27.5056
      vertex 62.1213 36 27.8787
      vertex 62.1213 40 27.8787
    endloop
  endfacet
  facet normal -0.634413 3.1163e-18 0.772994
    outer loop
      vertex 62.1213 36 27.8787
      vertex 61.6667 40 27.5056
      vertex 61.6667 36 27.5056
    endloop
  endfacet
  facet normal -0.634413 -5.34391e-18 -0.772994
    outer loop
      vertex 61.6667 36 32.4944
      vertex 62.1213 40 32.1213
      vertex 62.1213 36 32.1213
    endloop
  endfacet
  facet normal -0.634413 -5.34391e-18 -0.772994
    outer loop
      vertex 62.1213 40 32.1213
      vertex 61.6667 36 32.4944
      vertex 61.6667 40 32.4944
    endloop
  endfacet
  facet normal -0.471329 -2.40549e-18 0.881957
    outer loop
      vertex 61.148 40 27.2284
      vertex 61.6667 36 27.5056
      vertex 61.6667 40 27.5056
    endloop
  endfacet
  facet normal -0.471329 -2.40549e-18 0.881957
    outer loop
      vertex 61.6667 36 27.5056
      vertex 61.148 40 27.2284
      vertex 61.148 36 27.2284
    endloop
  endfacet
  facet normal 0.95689 0 -0.290451
    outer loop
      vertex 57.2284 36 31.148
      vertex 57.0576 40 30.5853
      vertex 57.2284 40 31.148
    endloop
  endfacet
  facet normal 0.95689 0 -0.290451
    outer loop
      vertex 57.0576 40 30.5853
      vertex 57.2284 36 31.148
      vertex 57.0576 36 30.5853
    endloop
  endfacet
  facet normal 0.881919 -0 0.4714
    outer loop
      vertex 57.2284 36 28.8519
      vertex 57.5056 40 28.3333
      vertex 57.2284 40 28.8519
    endloop
  endfacet
  facet normal 0.881919 0 0.4714
    outer loop
      vertex 57.5056 40 28.3333
      vertex 57.2284 36 28.8519
      vertex 57.5056 36 28.3333
    endloop
  endfacet
  facet normal 0.772994 -0 0.634413
    outer loop
      vertex 57.5056 36 28.3333
      vertex 57.8787 40 27.8787
      vertex 57.5056 40 28.3333
    endloop
  endfacet
  facet normal 0.772994 0 0.634413
    outer loop
      vertex 57.8787 40 27.8787
      vertex 57.5056 36 28.3333
      vertex 57.8787 36 27.8787
    endloop
  endfacet
  facet normal 0.772994 0 -0.634413
    outer loop
      vertex 57.8787 36 32.1213
      vertex 57.5056 40 31.6667
      vertex 57.8787 40 32.1213
    endloop
  endfacet
  facet normal 0.772994 0 -0.634413
    outer loop
      vertex 57.5056 40 31.6667
      vertex 57.8787 36 32.1213
      vertex 57.5056 36 31.6667
    endloop
  endfacet
  facet normal 0.995193 0 -0.097938
    outer loop
      vertex 57.0576 36 30.5853
      vertex 57 40 30
      vertex 57.0576 40 30.5853
    endloop
  endfacet
  facet normal 0.995193 0 -0.097938
    outer loop
      vertex 57 40 30
      vertex 57.0576 36 30.5853
      vertex 57 36 30
    endloop
  endfacet
  facet normal 0.995193 -0 0.097938
    outer loop
      vertex 57 36 30
      vertex 57.0576 40 29.4147
      vertex 57 40 30
    endloop
  endfacet
  facet normal 0.995193 0 0.097938
    outer loop
      vertex 57.0576 40 29.4147
      vertex 57 36 30
      vertex 57.0576 36 29.4147
    endloop
  endfacet
endsolid OpenSCAD_Model
