solid OpenSCAD_Model
  facet normal -0.923918 0 0.382591
    outer loop
      vertex 52.1651 0 10.75
      vertex 52.4148 3 11.353
      vertex 52.1651 3 10.75
    endloop
  endfacet
  facet normal -0.923918 0 0.382591
    outer loop
      vertex 52.4148 3 11.353
      vertex 52.1651 0 10.75
      vertex 52.4148 0 11.353
    endloop
  endfacet
  facet normal -0.991441 0 0.130558
    outer loop
      vertex 52.4148 0 11.353
      vertex 52.5 3 12
      vertex 52.4148 3 11.353
    endloop
  endfacet
  facet normal -0.991441 0 0.130558
    outer loop
      vertex 52.5 3 12
      vertex 52.4148 0 11.353
      vertex 52.5 0 12
    endloop
  endfacet
  facet normal -0.79337 0 0.60874
    outer loop
      vertex 51.7678 0 10.2322
      vertex 52.1651 3 10.75
      vertex 51.7678 3 10.2322
    endloop
  endfacet
  facet normal -0.79337 0 0.60874
    outer loop
      vertex 52.1651 3 10.75
      vertex 51.7678 0 10.2322
      vertex 52.1651 0 10.75
    endloop
  endfacet
  facet normal -0.79337 0 -0.60874
    outer loop
      vertex 52.1651 0 13.25
      vertex 51.7678 3 13.7678
      vertex 52.1651 3 13.25
    endloop
  endfacet
  facet normal -0.79337 -0 -0.60874
    outer loop
      vertex 51.7678 3 13.7678
      vertex 52.1651 0 13.25
      vertex 51.7678 0 13.7678
    endloop
  endfacet
  facet normal 0.608702 4.90939e-18 0.793399
    outer loop
      vertex 48.2322 3 10.2322
      vertex 48.75 0 9.83494
      vertex 48.75 3 9.83494
    endloop
  endfacet
  facet normal 0.608702 4.90939e-18 0.793399
    outer loop
      vertex 48.75 0 9.83494
      vertex 48.2322 3 10.2322
      vertex 48.2322 0 10.2322
    endloop
  endfacet
  facet normal -0.608702 -4.90939e-18 0.793399
    outer loop
      vertex 51.25 3 9.83494
      vertex 51.7678 0 10.2322
      vertex 51.7678 3 10.2322
    endloop
  endfacet
  facet normal -0.608702 -4.90939e-18 0.793399
    outer loop
      vertex 51.7678 0 10.2322
      vertex 51.25 3 9.83494
      vertex 51.25 0 9.83494
    endloop
  endfacet
  facet normal 0.79337 -0 0.60874
    outer loop
      vertex 47.8349 0 10.75
      vertex 48.2322 3 10.2322
      vertex 47.8349 3 10.75
    endloop
  endfacet
  facet normal 0.79337 0 0.60874
    outer loop
      vertex 48.2322 3 10.2322
      vertex 47.8349 0 10.75
      vertex 48.2322 0 10.2322
    endloop
  endfacet
  facet normal 0.923918 0 -0.382591
    outer loop
      vertex 47.8349 0 13.25
      vertex 47.5852 3 12.647
      vertex 47.8349 3 13.25
    endloop
  endfacet
  facet normal 0.923918 0 -0.382591
    outer loop
      vertex 47.5852 3 12.647
      vertex 47.8349 0 13.25
      vertex 47.5852 0 12.647
    endloop
  endfacet
  facet normal 0.60874 4.6176e-18 -0.79337
    outer loop
      vertex 48.2322 0 13.7678
      vertex 48.75 3 14.1651
      vertex 48.75 0 14.1651
    endloop
  endfacet
  facet normal 0.60874 4.6176e-18 -0.79337
    outer loop
      vertex 48.75 3 14.1651
      vertex 48.2322 0 13.7678
      vertex 48.2322 3 13.7678
    endloop
  endfacet
  facet normal -0.382591 8.34666e-21 -0.923918
    outer loop
      vertex 50.647 0 14.4148
      vertex 51.25 3 14.1651
      vertex 51.25 0 14.1651
    endloop
  endfacet
  facet normal -0.382591 8.34666e-21 -0.923918
    outer loop
      vertex 51.25 3 14.1651
      vertex 50.647 0 14.4148
      vertex 50.647 3 14.4148
    endloop
  endfacet
  facet normal -0.130543 5.00936e-19 0.991443
    outer loop
      vertex 50 3 9.5
      vertex 50.647 0 9.58519
      vertex 50.647 3 9.58519
    endloop
  endfacet
  facet normal -0.130543 5.00936e-19 0.991443
    outer loop
      vertex 50.647 0 9.58519
      vertex 50 3 9.5
      vertex 50 0 9.5
    endloop
  endfacet
  facet normal -0.923918 0 -0.382591
    outer loop
      vertex 52.4148 0 12.647
      vertex 52.1651 3 13.25
      vertex 52.4148 3 12.647
    endloop
  endfacet
  facet normal -0.923918 -0 -0.382591
    outer loop
      vertex 52.1651 3 13.25
      vertex 52.4148 0 12.647
      vertex 52.1651 0 13.25
    endloop
  endfacet
  facet normal 0.923918 -0 0.382591
    outer loop
      vertex 47.5852 0 11.353
      vertex 47.8349 3 10.75
      vertex 47.5852 3 11.353
    endloop
  endfacet
  facet normal 0.923918 0 0.382591
    outer loop
      vertex 47.8349 3 10.75
      vertex 47.5852 0 11.353
      vertex 47.8349 0 10.75
    endloop
  endfacet
  facet normal -0.991441 0 -0.130558
    outer loop
      vertex 52.5 0 12
      vertex 52.4148 3 12.647
      vertex 52.5 3 12
    endloop
  endfacet
  facet normal -0.991441 -0 -0.130558
    outer loop
      vertex 52.4148 3 12.647
      vertex 52.5 0 12
      vertex 52.4148 0 12.647
    endloop
  endfacet
  facet normal 0.991441 0 -0.130558
    outer loop
      vertex 47.5852 0 12.647
      vertex 47.5 3 12
      vertex 47.5852 3 12.647
    endloop
  endfacet
  facet normal 0.991441 0 -0.130558
    outer loop
      vertex 47.5 3 12
      vertex 47.5852 0 12.647
      vertex 47.5 0 12
    endloop
  endfacet
  facet normal -0.382656 3.31952e-18 0.923891
    outer loop
      vertex 50.647 3 9.58519
      vertex 51.25 0 9.83494
      vertex 51.25 3 9.83494
    endloop
  endfacet
  facet normal -0.382656 3.31952e-18 0.923891
    outer loop
      vertex 51.25 0 9.83494
      vertex 50.647 3 9.58519
      vertex 50.647 0 9.58519
    endloop
  endfacet
  facet normal -0.130558 1.32159e-18 -0.991441
    outer loop
      vertex 50 0 14.5
      vertex 50.647 3 14.4148
      vertex 50.647 0 14.4148
    endloop
  endfacet
  facet normal -0.130558 1.32159e-18 -0.991441
    outer loop
      vertex 50.647 3 14.4148
      vertex 50 0 14.5
      vertex 50 3 14.5
    endloop
  endfacet
  facet normal -0.60874 -4.6176e-18 -0.79337
    outer loop
      vertex 51.25 0 14.1651
      vertex 51.7678 3 13.7678
      vertex 51.7678 0 13.7678
    endloop
  endfacet
  facet normal -0.60874 -4.6176e-18 -0.79337
    outer loop
      vertex 51.7678 3 13.7678
      vertex 51.25 0 14.1651
      vertex 51.25 3 14.1651
    endloop
  endfacet
  facet normal 0.382591 -8.34666e-21 -0.923918
    outer loop
      vertex 48.75 0 14.1651
      vertex 49.353 3 14.4148
      vertex 49.353 0 14.4148
    endloop
  endfacet
  facet normal 0.382591 -8.34666e-21 -0.923918
    outer loop
      vertex 49.353 3 14.4148
      vertex 48.75 0 14.1651
      vertex 48.75 3 14.1651
    endloop
  endfacet
  facet normal 0.382656 -3.31952e-18 0.923891
    outer loop
      vertex 48.75 3 9.83494
      vertex 49.353 0 9.58519
      vertex 49.353 3 9.58519
    endloop
  endfacet
  facet normal 0.382656 -3.31952e-18 0.923891
    outer loop
      vertex 49.353 0 9.58519
      vertex 48.75 3 9.83494
      vertex 48.75 0 9.83494
    endloop
  endfacet
  facet normal 0.130558 -1.32159e-18 -0.991441
    outer loop
      vertex 49.353 0 14.4148
      vertex 50 3 14.5
      vertex 50 0 14.5
    endloop
  endfacet
  facet normal 0.130558 -1.32159e-18 -0.991441
    outer loop
      vertex 50 3 14.5
      vertex 49.353 0 14.4148
      vertex 49.353 3 14.4148
    endloop
  endfacet
  facet normal 0.130543 -5.00936e-19 0.991443
    outer loop
      vertex 49.353 3 9.58519
      vertex 50 0 9.5
      vertex 50 3 9.5
    endloop
  endfacet
  facet normal 0.130543 -5.00936e-19 0.991443
    outer loop
      vertex 50 0 9.5
      vertex 49.353 3 9.58519
      vertex 49.353 0 9.58519
    endloop
  endfacet
  facet normal 0.991441 -0 0.130558
    outer loop
      vertex 47.5 0 12
      vertex 47.5852 3 11.353
      vertex 47.5 3 12
    endloop
  endfacet
  facet normal 0.991441 0 0.130558
    outer loop
      vertex 47.5852 3 11.353
      vertex 47.5 0 12
      vertex 47.5852 0 11.353
    endloop
  endfacet
  facet normal 0.79337 0 -0.60874
    outer loop
      vertex 48.2322 0 13.7678
      vertex 47.8349 3 13.25
      vertex 48.2322 3 13.7678
    endloop
  endfacet
  facet normal 0.79337 0 -0.60874
    outer loop
      vertex 47.8349 3 13.25
      vertex 48.2322 0 13.7678
      vertex 47.8349 0 13.25
    endloop
  endfacet
  facet normal -0.923918 0 0.382591
    outer loop
      vertex 62.1651 0 10.75
      vertex 62.4148 3 11.353
      vertex 62.1651 3 10.75
    endloop
  endfacet
  facet normal -0.923918 0 0.382591
    outer loop
      vertex 62.4148 3 11.353
      vertex 62.1651 0 10.75
      vertex 62.4148 0 11.353
    endloop
  endfacet
  facet normal -0.991441 0 0.130558
    outer loop
      vertex 62.4148 0 11.353
      vertex 62.5 3 12
      vertex 62.4148 3 11.353
    endloop
  endfacet
  facet normal -0.991441 0 0.130558
    outer loop
      vertex 62.5 3 12
      vertex 62.4148 0 11.353
      vertex 62.5 0 12
    endloop
  endfacet
  facet normal -0.79337 0 0.60874
    outer loop
      vertex 61.7678 0 10.2322
      vertex 62.1651 3 10.75
      vertex 61.7678 3 10.2322
    endloop
  endfacet
  facet normal -0.79337 0 0.60874
    outer loop
      vertex 62.1651 3 10.75
      vertex 61.7678 0 10.2322
      vertex 62.1651 0 10.75
    endloop
  endfacet
  facet normal -0.79337 0 -0.60874
    outer loop
      vertex 62.1651 0 13.25
      vertex 61.7678 3 13.7678
      vertex 62.1651 3 13.25
    endloop
  endfacet
  facet normal -0.79337 -0 -0.60874
    outer loop
      vertex 61.7678 3 13.7678
      vertex 62.1651 0 13.25
      vertex 61.7678 0 13.7678
    endloop
  endfacet
  facet normal 0.608702 4.90939e-18 0.793399
    outer loop
      vertex 58.2322 3 10.2322
      vertex 58.75 0 9.83494
      vertex 58.75 3 9.83494
    endloop
  endfacet
  facet normal 0.608702 4.90939e-18 0.793399
    outer loop
      vertex 58.75 0 9.83494
      vertex 58.2322 3 10.2322
      vertex 58.2322 0 10.2322
    endloop
  endfacet
  facet normal -0.608702 -4.90939e-18 0.793399
    outer loop
      vertex 61.25 3 9.83494
      vertex 61.7678 0 10.2322
      vertex 61.7678 3 10.2322
    endloop
  endfacet
  facet normal -0.608702 -4.90939e-18 0.793399
    outer loop
      vertex 61.7678 0 10.2322
      vertex 61.25 3 9.83494
      vertex 61.25 0 9.83494
    endloop
  endfacet
  facet normal 0.79337 -0 0.60874
    outer loop
      vertex 57.8349 0 10.75
      vertex 58.2322 3 10.2322
      vertex 57.8349 3 10.75
    endloop
  endfacet
  facet normal 0.79337 0 0.60874
    outer loop
      vertex 58.2322 3 10.2322
      vertex 57.8349 0 10.75
      vertex 58.2322 0 10.2322
    endloop
  endfacet
  facet normal 0.923918 0 -0.382591
    outer loop
      vertex 57.8349 0 13.25
      vertex 57.5852 3 12.647
      vertex 57.8349 3 13.25
    endloop
  endfacet
  facet normal 0.923918 0 -0.382591
    outer loop
      vertex 57.5852 3 12.647
      vertex 57.8349 0 13.25
      vertex 57.5852 0 12.647
    endloop
  endfacet
  facet normal 0.60874 4.6176e-18 -0.79337
    outer loop
      vertex 58.2322 0 13.7678
      vertex 58.75 3 14.1651
      vertex 58.75 0 14.1651
    endloop
  endfacet
  facet normal 0.60874 4.6176e-18 -0.79337
    outer loop
      vertex 58.75 3 14.1651
      vertex 58.2322 0 13.7678
      vertex 58.2322 3 13.7678
    endloop
  endfacet
  facet normal -0.382591 8.34666e-21 -0.923918
    outer loop
      vertex 60.647 0 14.4148
      vertex 61.25 3 14.1651
      vertex 61.25 0 14.1651
    endloop
  endfacet
  facet normal -0.382591 8.34666e-21 -0.923918
    outer loop
      vertex 61.25 3 14.1651
      vertex 60.647 0 14.4148
      vertex 60.647 3 14.4148
    endloop
  endfacet
  facet normal -0.130543 5.00936e-19 0.991443
    outer loop
      vertex 60 3 9.5
      vertex 60.647 0 9.58519
      vertex 60.647 3 9.58519
    endloop
  endfacet
  facet normal -0.130543 5.00936e-19 0.991443
    outer loop
      vertex 60.647 0 9.58519
      vertex 60 3 9.5
      vertex 60 0 9.5
    endloop
  endfacet
  facet normal -0.923918 0 -0.382591
    outer loop
      vertex 62.4148 0 12.647
      vertex 62.1651 3 13.25
      vertex 62.4148 3 12.647
    endloop
  endfacet
  facet normal -0.923918 -0 -0.382591
    outer loop
      vertex 62.1651 3 13.25
      vertex 62.4148 0 12.647
      vertex 62.1651 0 13.25
    endloop
  endfacet
  facet normal 0.923918 -0 0.382591
    outer loop
      vertex 57.5852 0 11.353
      vertex 57.8349 3 10.75
      vertex 57.5852 3 11.353
    endloop
  endfacet
  facet normal 0.923918 0 0.382591
    outer loop
      vertex 57.8349 3 10.75
      vertex 57.5852 0 11.353
      vertex 57.8349 0 10.75
    endloop
  endfacet
  facet normal -0.991441 0 -0.130558
    outer loop
      vertex 62.5 0 12
      vertex 62.4148 3 12.647
      vertex 62.5 3 12
    endloop
  endfacet
  facet normal -0.991441 -0 -0.130558
    outer loop
      vertex 62.4148 3 12.647
      vertex 62.5 0 12
      vertex 62.4148 0 12.647
    endloop
  endfacet
  facet normal 0.991441 0 -0.130558
    outer loop
      vertex 57.5852 0 12.647
      vertex 57.5 3 12
      vertex 57.5852 3 12.647
    endloop
  endfacet
  facet normal 0.991441 0 -0.130558
    outer loop
      vertex 57.5 3 12
      vertex 57.5852 0 12.647
      vertex 57.5 0 12
    endloop
  endfacet
  facet normal -0.382656 3.31952e-18 0.923891
    outer loop
      vertex 60.647 3 9.58519
      vertex 61.25 0 9.83494
      vertex 61.25 3 9.83494
    endloop
  endfacet
  facet normal -0.382656 3.31952e-18 0.923891
    outer loop
      vertex 61.25 0 9.83494
      vertex 60.647 3 9.58519
      vertex 60.647 0 9.58519
    endloop
  endfacet
  facet normal -0.130558 1.32159e-18 -0.991441
    outer loop
      vertex 60 0 14.5
      vertex 60.647 3 14.4148
      vertex 60.647 0 14.4148
    endloop
  endfacet
  facet normal -0.130558 1.32159e-18 -0.991441
    outer loop
      vertex 60.647 3 14.4148
      vertex 60 0 14.5
      vertex 60 3 14.5
    endloop
  endfacet
  facet normal -0.60874 -4.6176e-18 -0.79337
    outer loop
      vertex 61.25 0 14.1651
      vertex 61.7678 3 13.7678
      vertex 61.7678 0 13.7678
    endloop
  endfacet
  facet normal -0.60874 -4.6176e-18 -0.79337
    outer loop
      vertex 61.7678 3 13.7678
      vertex 61.25 0 14.1651
      vertex 61.25 3 14.1651
    endloop
  endfacet
  facet normal 0.382591 -8.34666e-21 -0.923918
    outer loop
      vertex 58.75 0 14.1651
      vertex 59.353 3 14.4148
      vertex 59.353 0 14.4148
    endloop
  endfacet
  facet normal 0.382591 -8.34666e-21 -0.923918
    outer loop
      vertex 59.353 3 14.4148
      vertex 58.75 0 14.1651
      vertex 58.75 3 14.1651
    endloop
  endfacet
  facet normal 0.382656 -3.31952e-18 0.923891
    outer loop
      vertex 58.75 3 9.83494
      vertex 59.353 0 9.58519
      vertex 59.353 3 9.58519
    endloop
  endfacet
  facet normal 0.382656 -3.31952e-18 0.923891
    outer loop
      vertex 59.353 0 9.58519
      vertex 58.75 3 9.83494
      vertex 58.75 0 9.83494
    endloop
  endfacet
  facet normal 0.130558 -1.32159e-18 -0.991441
    outer loop
      vertex 59.353 0 14.4148
      vertex 60 3 14.5
      vertex 60 0 14.5
    endloop
  endfacet
  facet normal 0.130558 -1.32159e-18 -0.991441
    outer loop
      vertex 60 3 14.5
      vertex 59.353 0 14.4148
      vertex 59.353 3 14.4148
    endloop
  endfacet
  facet normal 0.130543 -5.00936e-19 0.991443
    outer loop
      vertex 59.353 3 9.58519
      vertex 60 0 9.5
      vertex 60 3 9.5
    endloop
  endfacet
  facet normal 0.130543 -5.00936e-19 0.991443
    outer loop
      vertex 60 0 9.5
      vertex 59.353 3 9.58519
      vertex 59.353 0 9.58519
    endloop
  endfacet
  facet normal 0.991441 -0 0.130558
    outer loop
      vertex 57.5 0 12
      vertex 57.5852 3 11.353
      vertex 57.5 3 12
    endloop
  endfacet
  facet normal 0.991441 0 0.130558
    outer loop
      vertex 57.5852 3 11.353
      vertex 57.5 0 12
      vertex 57.5852 0 11.353
    endloop
  endfacet
  facet normal 0.79337 0 -0.60874
    outer loop
      vertex 58.2322 0 13.7678
      vertex 57.8349 3 13.25
      vertex 58.2322 3 13.7678
    endloop
  endfacet
  facet normal 0.79337 0 -0.60874
    outer loop
      vertex 57.8349 3 13.25
      vertex 58.2322 0 13.7678
      vertex 57.8349 0 13.25
    endloop
  endfacet
  facet normal -0.923918 0 0.382591
    outer loop
      vertex 72.1651 0 10.75
      vertex 72.4148 3 11.353
      vertex 72.1651 3 10.75
    endloop
  endfacet
  facet normal -0.923918 0 0.382591
    outer loop
      vertex 72.4148 3 11.353
      vertex 72.1651 0 10.75
      vertex 72.4148 0 11.353
    endloop
  endfacet
  facet normal -0.991441 0 0.130558
    outer loop
      vertex 72.4148 0 11.353
      vertex 72.5 3 12
      vertex 72.4148 3 11.353
    endloop
  endfacet
  facet normal -0.991441 0 0.130558
    outer loop
      vertex 72.5 3 12
      vertex 72.4148 0 11.353
      vertex 72.5 0 12
    endloop
  endfacet
  facet normal -0.79337 0 0.60874
    outer loop
      vertex 71.7678 0 10.2322
      vertex 72.1651 3 10.75
      vertex 71.7678 3 10.2322
    endloop
  endfacet
  facet normal -0.79337 0 0.60874
    outer loop
      vertex 72.1651 3 10.75
      vertex 71.7678 0 10.2322
      vertex 72.1651 0 10.75
    endloop
  endfacet
  facet normal -0.79337 0 -0.60874
    outer loop
      vertex 72.1651 0 13.25
      vertex 71.7678 3 13.7678
      vertex 72.1651 3 13.25
    endloop
  endfacet
  facet normal -0.79337 -0 -0.60874
    outer loop
      vertex 71.7678 3 13.7678
      vertex 72.1651 0 13.25
      vertex 71.7678 0 13.7678
    endloop
  endfacet
  facet normal 0.608702 6.36123e-19 0.793399
    outer loop
      vertex 68.2322 3 10.2322
      vertex 68.75 0 9.83494
      vertex 68.75 3 9.83494
    endloop
  endfacet
  facet normal 0.608702 6.36123e-19 0.793399
    outer loop
      vertex 68.75 0 9.83494
      vertex 68.2322 3 10.2322
      vertex 68.2322 0 10.2322
    endloop
  endfacet
  facet normal -0.608702 -6.36123e-19 0.793399
    outer loop
      vertex 71.25 3 9.83494
      vertex 71.7678 0 10.2322
      vertex 71.7678 3 10.2322
    endloop
  endfacet
  facet normal -0.608702 -6.36123e-19 0.793399
    outer loop
      vertex 71.7678 0 10.2322
      vertex 71.25 3 9.83494
      vertex 71.25 0 9.83494
    endloop
  endfacet
  facet normal 0.79337 -0 0.60874
    outer loop
      vertex 67.8349 0 10.75
      vertex 68.2322 3 10.2322
      vertex 67.8349 3 10.75
    endloop
  endfacet
  facet normal 0.79337 0 0.60874
    outer loop
      vertex 68.2322 3 10.2322
      vertex 67.8349 0 10.75
      vertex 68.2322 0 10.2322
    endloop
  endfacet
  facet normal 0.923918 0 -0.382591
    outer loop
      vertex 67.8349 0 13.25
      vertex 67.5852 3 12.647
      vertex 67.8349 3 13.25
    endloop
  endfacet
  facet normal 0.923918 0 -0.382591
    outer loop
      vertex 67.5852 3 12.647
      vertex 67.8349 0 13.25
      vertex 67.5852 0 12.647
    endloop
  endfacet
  facet normal 0.60874 -5.43009e-18 -0.79337
    outer loop
      vertex 68.2322 0 13.7678
      vertex 68.75 3 14.1651
      vertex 68.75 0 14.1651
    endloop
  endfacet
  facet normal 0.60874 -5.43009e-18 -0.79337
    outer loop
      vertex 68.75 3 14.1651
      vertex 68.2322 0 13.7678
      vertex 68.2322 3 13.7678
    endloop
  endfacet
  facet normal -0.382591 -1.08035e-18 -0.923918
    outer loop
      vertex 70.647 0 14.4148
      vertex 71.25 3 14.1651
      vertex 71.25 0 14.1651
    endloop
  endfacet
  facet normal -0.382591 -1.08035e-18 -0.923918
    outer loop
      vertex 71.25 3 14.1651
      vertex 70.647 0 14.4148
      vertex 70.647 3 14.4148
    endloop
  endfacet
  facet normal -0.130543 1.33229e-18 0.991443
    outer loop
      vertex 70 3 9.5
      vertex 70.647 0 9.58519
      vertex 70.647 3 9.58519
    endloop
  endfacet
  facet normal -0.130543 1.33229e-18 0.991443
    outer loop
      vertex 70.647 0 9.58519
      vertex 70 3 9.5
      vertex 70 0 9.5
    endloop
  endfacet
  facet normal -0.923918 0 -0.382591
    outer loop
      vertex 72.4148 0 12.647
      vertex 72.1651 3 13.25
      vertex 72.4148 3 12.647
    endloop
  endfacet
  facet normal -0.923918 -0 -0.382591
    outer loop
      vertex 72.1651 3 13.25
      vertex 72.4148 0 12.647
      vertex 72.1651 0 13.25
    endloop
  endfacet
  facet normal 0.923918 -0 0.382591
    outer loop
      vertex 67.5852 0 11.353
      vertex 67.8349 3 10.75
      vertex 67.5852 3 11.353
    endloop
  endfacet
  facet normal 0.923918 0 0.382591
    outer loop
      vertex 67.8349 3 10.75
      vertex 67.5852 0 11.353
      vertex 67.8349 0 10.75
    endloop
  endfacet
  facet normal -0.991441 0 -0.130558
    outer loop
      vertex 72.5 0 12
      vertex 72.4148 3 12.647
      vertex 72.5 3 12
    endloop
  endfacet
  facet normal -0.991441 -0 -0.130558
    outer loop
      vertex 72.4148 3 12.647
      vertex 72.5 0 12
      vertex 72.4148 0 12.647
    endloop
  endfacet
  facet normal 0.991441 0 -0.130558
    outer loop
      vertex 67.5852 0 12.647
      vertex 67.5 3 12
      vertex 67.5852 3 12.647
    endloop
  endfacet
  facet normal 0.991441 0 -0.130558
    outer loop
      vertex 67.5 3 12
      vertex 67.5852 0 12.647
      vertex 67.5 0 12
    endloop
  endfacet
  facet normal -0.382656 4.22673e-18 0.923891
    outer loop
      vertex 70.647 3 9.58519
      vertex 71.25 0 9.83494
      vertex 71.25 3 9.83494
    endloop
  endfacet
  facet normal -0.382656 4.22673e-18 0.923891
    outer loop
      vertex 71.25 0 9.83494
      vertex 70.647 3 9.58519
      vertex 70.647 0 9.58519
    endloop
  endfacet
  facet normal -0.130558 4.53944e-19 -0.991441
    outer loop
      vertex 70 0 14.5
      vertex 70.647 3 14.4148
      vertex 70.647 0 14.4148
    endloop
  endfacet
  facet normal -0.130558 4.53944e-19 -0.991441
    outer loop
      vertex 70.647 3 14.4148
      vertex 70 0 14.5
      vertex 70 3 14.5
    endloop
  endfacet
  facet normal -0.60874 5.43009e-18 -0.79337
    outer loop
      vertex 71.25 0 14.1651
      vertex 71.7678 3 13.7678
      vertex 71.7678 0 13.7678
    endloop
  endfacet
  facet normal -0.60874 5.43009e-18 -0.79337
    outer loop
      vertex 71.7678 3 13.7678
      vertex 71.25 0 14.1651
      vertex 71.25 3 14.1651
    endloop
  endfacet
  facet normal 0.382591 1.08035e-18 -0.923918
    outer loop
      vertex 68.75 0 14.1651
      vertex 69.353 3 14.4148
      vertex 69.353 0 14.4148
    endloop
  endfacet
  facet normal 0.382591 1.08035e-18 -0.923918
    outer loop
      vertex 69.353 3 14.4148
      vertex 68.75 0 14.1651
      vertex 68.75 3 14.1651
    endloop
  endfacet
  facet normal 0.382656 -4.22673e-18 0.923891
    outer loop
      vertex 68.75 3 9.83494
      vertex 69.353 0 9.58519
      vertex 69.353 3 9.58519
    endloop
  endfacet
  facet normal 0.382656 -4.22673e-18 0.923891
    outer loop
      vertex 69.353 0 9.58519
      vertex 68.75 3 9.83494
      vertex 68.75 0 9.83494
    endloop
  endfacet
  facet normal 0.130558 -4.53944e-19 -0.991441
    outer loop
      vertex 69.353 0 14.4148
      vertex 70 3 14.5
      vertex 70 0 14.5
    endloop
  endfacet
  facet normal 0.130558 -4.53944e-19 -0.991441
    outer loop
      vertex 70 3 14.5
      vertex 69.353 0 14.4148
      vertex 69.353 3 14.4148
    endloop
  endfacet
  facet normal 0.130543 -1.33229e-18 0.991443
    outer loop
      vertex 69.353 3 9.58519
      vertex 70 0 9.5
      vertex 70 3 9.5
    endloop
  endfacet
  facet normal 0.130543 -1.33229e-18 0.991443
    outer loop
      vertex 70 0 9.5
      vertex 69.353 3 9.58519
      vertex 69.353 0 9.58519
    endloop
  endfacet
  facet normal 0.991441 -0 0.130558
    outer loop
      vertex 67.5 0 12
      vertex 67.5852 3 11.353
      vertex 67.5 3 12
    endloop
  endfacet
  facet normal 0.991441 0 0.130558
    outer loop
      vertex 67.5852 3 11.353
      vertex 67.5 0 12
      vertex 67.5852 0 11.353
    endloop
  endfacet
  facet normal 0.79337 0 -0.60874
    outer loop
      vertex 68.2322 0 13.7678
      vertex 67.8349 3 13.25
      vertex 68.2322 3 13.7678
    endloop
  endfacet
  facet normal 0.79337 0 -0.60874
    outer loop
      vertex 67.8349 3 13.25
      vertex 68.2322 0 13.7678
      vertex 67.8349 0 13.25
    endloop
  endfacet
  facet normal -0.923918 0 0.382591
    outer loop
      vertex 82.1651 0 10.75
      vertex 82.4148 3 11.353
      vertex 82.1651 3 10.75
    endloop
  endfacet
  facet normal -0.923918 0 0.382591
    outer loop
      vertex 82.4148 3 11.353
      vertex 82.1651 0 10.75
      vertex 82.4148 0 11.353
    endloop
  endfacet
  facet normal -0.991441 0 0.130558
    outer loop
      vertex 82.4148 0 11.353
      vertex 82.5 3 12
      vertex 82.4148 3 11.353
    endloop
  endfacet
  facet normal -0.991441 0 0.130558
    outer loop
      vertex 82.5 3 12
      vertex 82.4148 0 11.353
      vertex 82.5 0 12
    endloop
  endfacet
  facet normal -0.79337 0 0.60874
    outer loop
      vertex 81.7678 0 10.2322
      vertex 82.1651 3 10.75
      vertex 81.7678 3 10.2322
    endloop
  endfacet
  facet normal -0.79337 0 0.60874
    outer loop
      vertex 82.1651 3 10.75
      vertex 81.7678 0 10.2322
      vertex 82.1651 0 10.75
    endloop
  endfacet
  facet normal -0.79337 0 -0.60874
    outer loop
      vertex 82.1651 0 13.25
      vertex 81.7678 3 13.7678
      vertex 82.1651 3 13.25
    endloop
  endfacet
  facet normal -0.79337 -0 -0.60874
    outer loop
      vertex 81.7678 3 13.7678
      vertex 82.1651 0 13.25
      vertex 81.7678 0 13.7678
    endloop
  endfacet
  facet normal 0.608702 6.36123e-19 0.793399
    outer loop
      vertex 78.2322 3 10.2322
      vertex 78.75 0 9.83494
      vertex 78.75 3 9.83494
    endloop
  endfacet
  facet normal 0.608702 6.36123e-19 0.793399
    outer loop
      vertex 78.75 0 9.83494
      vertex 78.2322 3 10.2322
      vertex 78.2322 0 10.2322
    endloop
  endfacet
  facet normal -0.608702 -6.36123e-19 0.793399
    outer loop
      vertex 81.25 3 9.83494
      vertex 81.7678 0 10.2322
      vertex 81.7678 3 10.2322
    endloop
  endfacet
  facet normal -0.608702 -6.36123e-19 0.793399
    outer loop
      vertex 81.7678 0 10.2322
      vertex 81.25 3 9.83494
      vertex 81.25 0 9.83494
    endloop
  endfacet
  facet normal 0.79337 -0 0.60874
    outer loop
      vertex 77.8349 0 10.75
      vertex 78.2322 3 10.2322
      vertex 77.8349 3 10.75
    endloop
  endfacet
  facet normal 0.79337 0 0.60874
    outer loop
      vertex 78.2322 3 10.2322
      vertex 77.8349 0 10.75
      vertex 78.2322 0 10.2322
    endloop
  endfacet
  facet normal 0.923918 0 -0.382591
    outer loop
      vertex 77.8349 0 13.25
      vertex 77.5852 3 12.647
      vertex 77.8349 3 13.25
    endloop
  endfacet
  facet normal 0.923918 0 -0.382591
    outer loop
      vertex 77.5852 3 12.647
      vertex 77.8349 0 13.25
      vertex 77.5852 0 12.647
    endloop
  endfacet
  facet normal 0.60874 -5.43009e-18 -0.79337
    outer loop
      vertex 78.2322 0 13.7678
      vertex 78.75 3 14.1651
      vertex 78.75 0 14.1651
    endloop
  endfacet
  facet normal 0.60874 -5.43009e-18 -0.79337
    outer loop
      vertex 78.75 3 14.1651
      vertex 78.2322 0 13.7678
      vertex 78.2322 3 13.7678
    endloop
  endfacet
  facet normal -0.382591 -1.08035e-18 -0.923918
    outer loop
      vertex 80.647 0 14.4148
      vertex 81.25 3 14.1651
      vertex 81.25 0 14.1651
    endloop
  endfacet
  facet normal -0.382591 -1.08035e-18 -0.923918
    outer loop
      vertex 81.25 3 14.1651
      vertex 80.647 0 14.4148
      vertex 80.647 3 14.4148
    endloop
  endfacet
  facet normal -0.130543 1.33229e-18 0.991443
    outer loop
      vertex 80 3 9.5
      vertex 80.647 0 9.58519
      vertex 80.647 3 9.58519
    endloop
  endfacet
  facet normal -0.130543 1.33229e-18 0.991443
    outer loop
      vertex 80.647 0 9.58519
      vertex 80 3 9.5
      vertex 80 0 9.5
    endloop
  endfacet
  facet normal -0.923918 0 -0.382591
    outer loop
      vertex 82.4148 0 12.647
      vertex 82.1651 3 13.25
      vertex 82.4148 3 12.647
    endloop
  endfacet
  facet normal -0.923918 -0 -0.382591
    outer loop
      vertex 82.1651 3 13.25
      vertex 82.4148 0 12.647
      vertex 82.1651 0 13.25
    endloop
  endfacet
  facet normal 0.923918 -0 0.382591
    outer loop
      vertex 77.5852 0 11.353
      vertex 77.8349 3 10.75
      vertex 77.5852 3 11.353
    endloop
  endfacet
  facet normal 0.923918 0 0.382591
    outer loop
      vertex 77.8349 3 10.75
      vertex 77.5852 0 11.353
      vertex 77.8349 0 10.75
    endloop
  endfacet
  facet normal -0.991441 0 -0.130558
    outer loop
      vertex 82.5 0 12
      vertex 82.4148 3 12.647
      vertex 82.5 3 12
    endloop
  endfacet
  facet normal -0.991441 -0 -0.130558
    outer loop
      vertex 82.4148 3 12.647
      vertex 82.5 0 12
      vertex 82.4148 0 12.647
    endloop
  endfacet
  facet normal 0.991441 0 -0.130558
    outer loop
      vertex 77.5852 0 12.647
      vertex 77.5 3 12
      vertex 77.5852 3 12.647
    endloop
  endfacet
  facet normal 0.991441 0 -0.130558
    outer loop
      vertex 77.5 3 12
      vertex 77.5852 0 12.647
      vertex 77.5 0 12
    endloop
  endfacet
  facet normal -0.382656 4.22673e-18 0.923891
    outer loop
      vertex 80.647 3 9.58519
      vertex 81.25 0 9.83494
      vertex 81.25 3 9.83494
    endloop
  endfacet
  facet normal -0.382656 4.22673e-18 0.923891
    outer loop
      vertex 81.25 0 9.83494
      vertex 80.647 3 9.58519
      vertex 80.647 0 9.58519
    endloop
  endfacet
  facet normal -0.130558 4.53944e-19 -0.991441
    outer loop
      vertex 80 0 14.5
      vertex 80.647 3 14.4148
      vertex 80.647 0 14.4148
    endloop
  endfacet
  facet normal -0.130558 4.53944e-19 -0.991441
    outer loop
      vertex 80.647 3 14.4148
      vertex 80 0 14.5
      vertex 80 3 14.5
    endloop
  endfacet
  facet normal -0.60874 5.43009e-18 -0.79337
    outer loop
      vertex 81.25 0 14.1651
      vertex 81.7678 3 13.7678
      vertex 81.7678 0 13.7678
    endloop
  endfacet
  facet normal -0.60874 5.43009e-18 -0.79337
    outer loop
      vertex 81.7678 3 13.7678
      vertex 81.25 0 14.1651
      vertex 81.25 3 14.1651
    endloop
  endfacet
  facet normal 0.382591 1.08035e-18 -0.923918
    outer loop
      vertex 78.75 0 14.1651
      vertex 79.353 3 14.4148
      vertex 79.353 0 14.4148
    endloop
  endfacet
  facet normal 0.382591 1.08035e-18 -0.923918
    outer loop
      vertex 79.353 3 14.4148
      vertex 78.75 0 14.1651
      vertex 78.75 3 14.1651
    endloop
  endfacet
  facet normal 0.382656 -4.22673e-18 0.923891
    outer loop
      vertex 78.75 3 9.83494
      vertex 79.353 0 9.58519
      vertex 79.353 3 9.58519
    endloop
  endfacet
  facet normal 0.382656 -4.22673e-18 0.923891
    outer loop
      vertex 79.353 0 9.58519
      vertex 78.75 3 9.83494
      vertex 78.75 0 9.83494
    endloop
  endfacet
  facet normal 0.130558 -4.53944e-19 -0.991441
    outer loop
      vertex 79.353 0 14.4148
      vertex 80 3 14.5
      vertex 80 0 14.5
    endloop
  endfacet
  facet normal 0.130558 -4.53944e-19 -0.991441
    outer loop
      vertex 80 3 14.5
      vertex 79.353 0 14.4148
      vertex 79.353 3 14.4148
    endloop
  endfacet
  facet normal 0.130543 -1.33229e-18 0.991443
    outer loop
      vertex 79.353 3 9.58519
      vertex 80 0 9.5
      vertex 80 3 9.5
    endloop
  endfacet
  facet normal 0.130543 -1.33229e-18 0.991443
    outer loop
      vertex 80 0 9.5
      vertex 79.353 3 9.58519
      vertex 79.353 0 9.58519
    endloop
  endfacet
  facet normal 0.991441 -0 0.130558
    outer loop
      vertex 77.5 0 12
      vertex 77.5852 3 11.353
      vertex 77.5 3 12
    endloop
  endfacet
  facet normal 0.991441 0 0.130558
    outer loop
      vertex 77.5852 3 11.353
      vertex 77.5 0 12
      vertex 77.5852 0 11.353
    endloop
  endfacet
  facet normal 0.79337 0 -0.60874
    outer loop
      vertex 78.2322 0 13.7678
      vertex 77.8349 3 13.25
      vertex 78.2322 3 13.7678
    endloop
  endfacet
  facet normal 0.79337 0 -0.60874
    outer loop
      vertex 77.8349 3 13.25
      vertex 78.2322 0 13.7678
      vertex 77.8349 0 13.25
    endloop
  endfacet
  facet normal -0.923918 0 0.382591
    outer loop
      vertex 92.1651 0 10.75
      vertex 92.4148 3 11.353
      vertex 92.1651 3 10.75
    endloop
  endfacet
  facet normal -0.923918 0 0.382591
    outer loop
      vertex 92.4148 3 11.353
      vertex 92.1651 0 10.75
      vertex 92.4148 0 11.353
    endloop
  endfacet
  facet normal -0.991441 0 0.130558
    outer loop
      vertex 92.4148 0 11.353
      vertex 92.5 3 12
      vertex 92.4148 3 11.353
    endloop
  endfacet
  facet normal -0.991441 0 0.130558
    outer loop
      vertex 92.5 3 12
      vertex 92.4148 0 11.353
      vertex 92.5 0 12
    endloop
  endfacet
  facet normal -0.79337 0 0.60874
    outer loop
      vertex 91.7678 0 10.2322
      vertex 92.1651 3 10.75
      vertex 91.7678 3 10.2322
    endloop
  endfacet
  facet normal -0.79337 0 0.60874
    outer loop
      vertex 92.1651 3 10.75
      vertex 91.7678 0 10.2322
      vertex 92.1651 0 10.75
    endloop
  endfacet
  facet normal -0.79337 0 -0.60874
    outer loop
      vertex 92.1651 0 13.25
      vertex 91.7678 3 13.7678
      vertex 92.1651 3 13.25
    endloop
  endfacet
  facet normal -0.79337 -0 -0.60874
    outer loop
      vertex 91.7678 3 13.7678
      vertex 92.1651 0 13.25
      vertex 91.7678 0 13.7678
    endloop
  endfacet
  facet normal 0.608702 6.36123e-19 0.793399
    outer loop
      vertex 88.2322 3 10.2322
      vertex 88.75 0 9.83494
      vertex 88.75 3 9.83494
    endloop
  endfacet
  facet normal 0.608702 6.36123e-19 0.793399
    outer loop
      vertex 88.75 0 9.83494
      vertex 88.2322 3 10.2322
      vertex 88.2322 0 10.2322
    endloop
  endfacet
  facet normal -0.608702 -6.36123e-19 0.793399
    outer loop
      vertex 91.25 3 9.83494
      vertex 91.7678 0 10.2322
      vertex 91.7678 3 10.2322
    endloop
  endfacet
  facet normal -0.608702 -6.36123e-19 0.793399
    outer loop
      vertex 91.7678 0 10.2322
      vertex 91.25 3 9.83494
      vertex 91.25 0 9.83494
    endloop
  endfacet
  facet normal 0.79337 -0 0.60874
    outer loop
      vertex 87.8349 0 10.75
      vertex 88.2322 3 10.2322
      vertex 87.8349 3 10.75
    endloop
  endfacet
  facet normal 0.79337 0 0.60874
    outer loop
      vertex 88.2322 3 10.2322
      vertex 87.8349 0 10.75
      vertex 88.2322 0 10.2322
    endloop
  endfacet
  facet normal 0.923918 0 -0.382591
    outer loop
      vertex 87.8349 0 13.25
      vertex 87.5852 3 12.647
      vertex 87.8349 3 13.25
    endloop
  endfacet
  facet normal 0.923918 0 -0.382591
    outer loop
      vertex 87.5852 3 12.647
      vertex 87.8349 0 13.25
      vertex 87.5852 0 12.647
    endloop
  endfacet
  facet normal 0.60874 -5.43009e-18 -0.79337
    outer loop
      vertex 88.2322 0 13.7678
      vertex 88.75 3 14.1651
      vertex 88.75 0 14.1651
    endloop
  endfacet
  facet normal 0.60874 -5.43009e-18 -0.79337
    outer loop
      vertex 88.75 3 14.1651
      vertex 88.2322 0 13.7678
      vertex 88.2322 3 13.7678
    endloop
  endfacet
  facet normal -0.382591 -1.08035e-18 -0.923918
    outer loop
      vertex 90.647 0 14.4148
      vertex 91.25 3 14.1651
      vertex 91.25 0 14.1651
    endloop
  endfacet
  facet normal -0.382591 -1.08035e-18 -0.923918
    outer loop
      vertex 91.25 3 14.1651
      vertex 90.647 0 14.4148
      vertex 90.647 3 14.4148
    endloop
  endfacet
  facet normal -0.130543 1.33229e-18 0.991443
    outer loop
      vertex 90 3 9.5
      vertex 90.647 0 9.58519
      vertex 90.647 3 9.58519
    endloop
  endfacet
  facet normal -0.130543 1.33229e-18 0.991443
    outer loop
      vertex 90.647 0 9.58519
      vertex 90 3 9.5
      vertex 90 0 9.5
    endloop
  endfacet
  facet normal -0.923918 0 -0.382591
    outer loop
      vertex 92.4148 0 12.647
      vertex 92.1651 3 13.25
      vertex 92.4148 3 12.647
    endloop
  endfacet
  facet normal -0.923918 -0 -0.382591
    outer loop
      vertex 92.1651 3 13.25
      vertex 92.4148 0 12.647
      vertex 92.1651 0 13.25
    endloop
  endfacet
  facet normal 0.923918 -0 0.382591
    outer loop
      vertex 87.5852 0 11.353
      vertex 87.8349 3 10.75
      vertex 87.5852 3 11.353
    endloop
  endfacet
  facet normal 0.923918 0 0.382591
    outer loop
      vertex 87.8349 3 10.75
      vertex 87.5852 0 11.353
      vertex 87.8349 0 10.75
    endloop
  endfacet
  facet normal -0.991441 0 -0.130558
    outer loop
      vertex 92.5 0 12
      vertex 92.4148 3 12.647
      vertex 92.5 3 12
    endloop
  endfacet
  facet normal -0.991441 -0 -0.130558
    outer loop
      vertex 92.4148 3 12.647
      vertex 92.5 0 12
      vertex 92.4148 0 12.647
    endloop
  endfacet
  facet normal 0.991441 0 -0.130558
    outer loop
      vertex 87.5852 0 12.647
      vertex 87.5 3 12
      vertex 87.5852 3 12.647
    endloop
  endfacet
  facet normal 0.991441 0 -0.130558
    outer loop
      vertex 87.5 3 12
      vertex 87.5852 0 12.647
      vertex 87.5 0 12
    endloop
  endfacet
  facet normal -0.382656 4.22673e-18 0.923891
    outer loop
      vertex 90.647 3 9.58519
      vertex 91.25 0 9.83494
      vertex 91.25 3 9.83494
    endloop
  endfacet
  facet normal -0.382656 4.22673e-18 0.923891
    outer loop
      vertex 91.25 0 9.83494
      vertex 90.647 3 9.58519
      vertex 90.647 0 9.58519
    endloop
  endfacet
  facet normal -0.130558 4.53944e-19 -0.991441
    outer loop
      vertex 90 0 14.5
      vertex 90.647 3 14.4148
      vertex 90.647 0 14.4148
    endloop
  endfacet
  facet normal -0.130558 4.53944e-19 -0.991441
    outer loop
      vertex 90.647 3 14.4148
      vertex 90 0 14.5
      vertex 90 3 14.5
    endloop
  endfacet
  facet normal -0.60874 5.43009e-18 -0.79337
    outer loop
      vertex 91.25 0 14.1651
      vertex 91.7678 3 13.7678
      vertex 91.7678 0 13.7678
    endloop
  endfacet
  facet normal -0.60874 5.43009e-18 -0.79337
    outer loop
      vertex 91.7678 3 13.7678
      vertex 91.25 0 14.1651
      vertex 91.25 3 14.1651
    endloop
  endfacet
  facet normal 0.382591 1.08035e-18 -0.923918
    outer loop
      vertex 88.75 0 14.1651
      vertex 89.353 3 14.4148
      vertex 89.353 0 14.4148
    endloop
  endfacet
  facet normal 0.382591 1.08035e-18 -0.923918
    outer loop
      vertex 89.353 3 14.4148
      vertex 88.75 0 14.1651
      vertex 88.75 3 14.1651
    endloop
  endfacet
  facet normal 0.382656 -4.22673e-18 0.923891
    outer loop
      vertex 88.75 3 9.83494
      vertex 89.353 0 9.58519
      vertex 89.353 3 9.58519
    endloop
  endfacet
  facet normal 0.382656 -4.22673e-18 0.923891
    outer loop
      vertex 89.353 0 9.58519
      vertex 88.75 3 9.83494
      vertex 88.75 0 9.83494
    endloop
  endfacet
  facet normal 0.130558 -4.53944e-19 -0.991441
    outer loop
      vertex 89.353 0 14.4148
      vertex 90 3 14.5
      vertex 90 0 14.5
    endloop
  endfacet
  facet normal 0.130558 -4.53944e-19 -0.991441
    outer loop
      vertex 90 3 14.5
      vertex 89.353 0 14.4148
      vertex 89.353 3 14.4148
    endloop
  endfacet
  facet normal 0.130543 -1.33229e-18 0.991443
    outer loop
      vertex 89.353 3 9.58519
      vertex 90 0 9.5
      vertex 90 3 9.5
    endloop
  endfacet
  facet normal 0.130543 -1.33229e-18 0.991443
    outer loop
      vertex 90 0 9.5
      vertex 89.353 3 9.58519
      vertex 89.353 0 9.58519
    endloop
  endfacet
  facet normal 0.991441 -0 0.130558
    outer loop
      vertex 87.5 0 12
      vertex 87.5852 3 11.353
      vertex 87.5 3 12
    endloop
  endfacet
  facet normal 0.991441 0 0.130558
    outer loop
      vertex 87.5852 3 11.353
      vertex 87.5 0 12
      vertex 87.5852 0 11.353
    endloop
  endfacet
  facet normal 0.79337 0 -0.60874
    outer loop
      vertex 88.2322 0 13.7678
      vertex 87.8349 3 13.25
      vertex 88.2322 3 13.7678
    endloop
  endfacet
  facet normal 0.79337 0 -0.60874
    outer loop
      vertex 87.8349 3 13.25
      vertex 88.2322 0 13.7678
      vertex 87.8349 0 13.25
    endloop
  endfacet
  facet normal 1 -0 0
    outer loop
      vertex 140 0 24
      vertex 140 3 0
      vertex 140 3 24
    endloop
  endfacet
  facet normal 1 0 0
    outer loop
      vertex 140 3 0
      vertex 140 0 24
      vertex 140 0 0
    endloop
  endfacet
  facet normal -0 0 1
    outer loop
      vertex 0 3 24
      vertex 140 0 24
      vertex 140 3 24
    endloop
  endfacet
  facet normal 0 0 1
    outer loop
      vertex 140 0 24
      vertex 0 3 24
      vertex 0 0 24
    endloop
  endfacet
  facet normal 0 0 -1
    outer loop
      vertex 0 0 0
      vertex 140 3 0
      vertex 140 0 0
    endloop
  endfacet
  facet normal -0 0 -1
    outer loop
      vertex 140 3 0
      vertex 0 0 0
      vertex 0 3 0
    endloop
  endfacet
  facet normal -1 0 0
    outer loop
      vertex 0 0 0
      vertex 0 3 24
      vertex 0 3 0
    endloop
  endfacet
  facet normal -1 -0 0
    outer loop
      vertex 0 3 24
      vertex 0 0 0
      vertex 0 0 24
    endloop
  endfacet
  facet normal 0 1 -0
    outer loop
      vertex 59.353 3 14.4148
      vertex 50 3 14.5
      vertex 60 3 14.5
    endloop
  endfacet
  facet normal 0 1 0
    outer loop
      vertex 59.353 3 14.4148
      vertex 50.647 3 14.4148
      vertex 50 3 14.5
    endloop
  endfacet
  facet normal 0 1 -0
    outer loop
      vertex 58.75 3 14.1651
      vertex 50.647 3 14.4148
      vertex 59.353 3 14.4148
    endloop
  endfacet
  facet normal 0 1 0
    outer loop
      vertex 58.75 3 14.1651
      vertex 51.25 3 14.1651
      vertex 50.647 3 14.4148
    endloop
  endfacet
  facet normal 0 1 -0
    outer loop
      vertex 58.2322 3 13.7678
      vertex 51.25 3 14.1651
      vertex 58.75 3 14.1651
    endloop
  endfacet
  facet normal 0 1 0
    outer loop
      vertex 58.2322 3 13.7678
      vertex 51.7678 3 13.7678
      vertex 51.25 3 14.1651
    endloop
  endfacet
  facet normal 0 1 -0
    outer loop
      vertex 57.8349 3 13.25
      vertex 51.7678 3 13.7678
      vertex 58.2322 3 13.7678
    endloop
  endfacet
  facet normal 0 1 0
    outer loop
      vertex 57.8349 3 13.25
      vertex 52.1651 3 13.25
      vertex 51.7678 3 13.7678
    endloop
  endfacet
  facet normal 0 1 -0
    outer loop
      vertex 57.5852 3 12.647
      vertex 52.1651 3 13.25
      vertex 57.8349 3 13.25
    endloop
  endfacet
  facet normal 0 1 0
    outer loop
      vertex 57.5852 3 12.647
      vertex 52.4148 3 12.647
      vertex 52.1651 3 13.25
    endloop
  endfacet
  facet normal 0 1 -0
    outer loop
      vertex 57.5 3 12
      vertex 52.4148 3 12.647
      vertex 57.5852 3 12.647
    endloop
  endfacet
  facet normal 0 1 0
    outer loop
      vertex 57.5 3 12
      vertex 52.5 3 12
      vertex 52.4148 3 12.647
    endloop
  endfacet
  facet normal 0 1 0
    outer loop
      vertex 57.5852 3 11.353
      vertex 52.5 3 12
      vertex 57.5 3 12
    endloop
  endfacet
  facet normal 0 1 0
    outer loop
      vertex 57.5852 3 11.353
      vertex 52.4148 3 11.353
      vertex 52.5 3 12
    endloop
  endfacet
  facet normal 0 1 0
    outer loop
      vertex 57.8349 3 10.75
      vertex 52.4148 3 11.353
      vertex 57.5852 3 11.353
    endloop
  endfacet
  facet normal 0 1 0
    outer loop
      vertex 57.8349 3 10.75
      vertex 52.1651 3 10.75
      vertex 52.4148 3 11.353
    endloop
  endfacet
  facet normal 0 1 0
    outer loop
      vertex 58.2322 3 10.2322
      vertex 52.1651 3 10.75
      vertex 57.8349 3 10.75
    endloop
  endfacet
  facet normal 0 1 0
    outer loop
      vertex 58.2322 3 10.2322
      vertex 51.7678 3 10.2322
      vertex 52.1651 3 10.75
    endloop
  endfacet
  facet normal 0 1 0
    outer loop
      vertex 58.75 3 9.83494
      vertex 51.7678 3 10.2322
      vertex 58.2322 3 10.2322
    endloop
  endfacet
  facet normal 0 1 0
    outer loop
      vertex 58.75 3 9.83494
      vertex 51.25 3 9.83494
      vertex 51.7678 3 10.2322
    endloop
  endfacet
  facet normal 0 1 0
    outer loop
      vertex 59.353 3 9.58519
      vertex 51.25 3 9.83494
      vertex 58.75 3 9.83494
    endloop
  endfacet
  facet normal 0 1 0
    outer loop
      vertex 59.353 3 9.58519
      vertex 50.647 3 9.58519
      vertex 51.25 3 9.83494
    endloop
  endfacet
  facet normal 0 1 0
    outer loop
      vertex 60 3 9.5
      vertex 50.647 3 9.58519
      vertex 59.353 3 9.58519
    endloop
  endfacet
  facet normal 0 1 0
    outer loop
      vertex 50.647 3 9.58519
      vertex 60 3 9.5
      vertex 50 3 9.5
    endloop
  endfacet
  facet normal 0 1 -0
    outer loop
      vertex 69.353 3 14.4148
      vertex 60 3 14.5
      vertex 70 3 14.5
    endloop
  endfacet
  facet normal 0 1 0
    outer loop
      vertex 69.353 3 14.4148
      vertex 60.647 3 14.4148
      vertex 60 3 14.5
    endloop
  endfacet
  facet normal 0 1 -0
    outer loop
      vertex 68.75 3 14.1651
      vertex 60.647 3 14.4148
      vertex 69.353 3 14.4148
    endloop
  endfacet
  facet normal 0 1 0
    outer loop
      vertex 68.75 3 14.1651
      vertex 61.25 3 14.1651
      vertex 60.647 3 14.4148
    endloop
  endfacet
  facet normal 0 1 -0
    outer loop
      vertex 68.2322 3 13.7678
      vertex 61.25 3 14.1651
      vertex 68.75 3 14.1651
    endloop
  endfacet
  facet normal 0 1 0
    outer loop
      vertex 68.2322 3 13.7678
      vertex 61.7678 3 13.7678
      vertex 61.25 3 14.1651
    endloop
  endfacet
  facet normal 0 1 -0
    outer loop
      vertex 67.8349 3 13.25
      vertex 61.7678 3 13.7678
      vertex 68.2322 3 13.7678
    endloop
  endfacet
  facet normal 0 1 0
    outer loop
      vertex 67.8349 3 13.25
      vertex 62.1651 3 13.25
      vertex 61.7678 3 13.7678
    endloop
  endfacet
  facet normal 0 1 -0
    outer loop
      vertex 67.5852 3 12.647
      vertex 62.1651 3 13.25
      vertex 67.8349 3 13.25
    endloop
  endfacet
  facet normal 0 1 0
    outer loop
      vertex 67.5852 3 12.647
      vertex 62.4148 3 12.647
      vertex 62.1651 3 13.25
    endloop
  endfacet
  facet normal 0 1 -0
    outer loop
      vertex 67.5 3 12
      vertex 62.4148 3 12.647
      vertex 67.5852 3 12.647
    endloop
  endfacet
  facet normal 0 1 0
    outer loop
      vertex 67.5 3 12
      vertex 62.5 3 12
      vertex 62.4148 3 12.647
    endloop
  endfacet
  facet normal 0 1 0
    outer loop
      vertex 67.5852 3 11.353
      vertex 62.5 3 12
      vertex 67.5 3 12
    endloop
  endfacet
  facet normal 0 1 0
    outer loop
      vertex 67.5852 3 11.353
      vertex 62.4148 3 11.353
      vertex 62.5 3 12
    endloop
  endfacet
  facet normal 0 1 0
    outer loop
      vertex 67.8349 3 10.75
      vertex 62.4148 3 11.353
      vertex 67.5852 3 11.353
    endloop
  endfacet
  facet normal 0 1 0
    outer loop
      vertex 67.8349 3 10.75
      vertex 62.1651 3 10.75
      vertex 62.4148 3 11.353
    endloop
  endfacet
  facet normal 0 1 0
    outer loop
      vertex 68.2322 3 10.2322
      vertex 62.1651 3 10.75
      vertex 67.8349 3 10.75
    endloop
  endfacet
  facet normal 0 1 0
    outer loop
      vertex 68.2322 3 10.2322
      vertex 61.7678 3 10.2322
      vertex 62.1651 3 10.75
    endloop
  endfacet
  facet normal 0 1 0
    outer loop
      vertex 68.75 3 9.83494
      vertex 61.7678 3 10.2322
      vertex 68.2322 3 10.2322
    endloop
  endfacet
  facet normal 0 1 0
    outer loop
      vertex 68.75 3 9.83494
      vertex 61.25 3 9.83494
      vertex 61.7678 3 10.2322
    endloop
  endfacet
  facet normal 0 1 0
    outer loop
      vertex 69.353 3 9.58519
      vertex 61.25 3 9.83494
      vertex 68.75 3 9.83494
    endloop
  endfacet
  facet normal 0 1 0
    outer loop
      vertex 69.353 3 9.58519
      vertex 60.647 3 9.58519
      vertex 61.25 3 9.83494
    endloop
  endfacet
  facet normal 0 1 0
    outer loop
      vertex 70 3 9.5
      vertex 60.647 3 9.58519
      vertex 69.353 3 9.58519
    endloop
  endfacet
  facet normal 0 1 0
    outer loop
      vertex 60.647 3 9.58519
      vertex 70 3 9.5
      vertex 60 3 9.5
    endloop
  endfacet
  facet normal 0 1 -0
    outer loop
      vertex 79.353 3 14.4148
      vertex 70 3 14.5
      vertex 80 3 14.5
    endloop
  endfacet
  facet normal 0 1 0
    outer loop
      vertex 79.353 3 14.4148
      vertex 70.647 3 14.4148
      vertex 70 3 14.5
    endloop
  endfacet
  facet normal 0 1 -0
    outer loop
      vertex 78.75 3 14.1651
      vertex 70.647 3 14.4148
      vertex 79.353 3 14.4148
    endloop
  endfacet
  facet normal 0 1 0
    outer loop
      vertex 78.75 3 14.1651
      vertex 71.25 3 14.1651
      vertex 70.647 3 14.4148
    endloop
  endfacet
  facet normal 0 1 -0
    outer loop
      vertex 78.2322 3 13.7678
      vertex 71.25 3 14.1651
      vertex 78.75 3 14.1651
    endloop
  endfacet
  facet normal 0 1 0
    outer loop
      vertex 78.2322 3 13.7678
      vertex 71.7678 3 13.7678
      vertex 71.25 3 14.1651
    endloop
  endfacet
  facet normal 0 1 -0
    outer loop
      vertex 77.8349 3 13.25
      vertex 71.7678 3 13.7678
      vertex 78.2322 3 13.7678
    endloop
  endfacet
  facet normal 0 1 0
    outer loop
      vertex 77.8349 3 13.25
      vertex 72.1651 3 13.25
      vertex 71.7678 3 13.7678
    endloop
  endfacet
  facet normal 0 1 -0
    outer loop
      vertex 77.5852 3 12.647
      vertex 72.1651 3 13.25
      vertex 77.8349 3 13.25
    endloop
  endfacet
  facet normal 0 1 0
    outer loop
      vertex 77.5852 3 12.647
      vertex 72.4148 3 12.647
      vertex 72.1651 3 13.25
    endloop
  endfacet
  facet normal 0 1 -0
    outer loop
      vertex 77.5 3 12
      vertex 72.4148 3 12.647
      vertex 77.5852 3 12.647
    endloop
  endfacet
  facet normal 0 1 0
    outer loop
      vertex 77.5 3 12
      vertex 72.5 3 12
      vertex 72.4148 3 12.647
    endloop
  endfacet
  facet normal 0 1 0
    outer loop
      vertex 77.5852 3 11.353
      vertex 72.5 3 12
      vertex 77.5 3 12
    endloop
  endfacet
  facet normal 0 1 0
    outer loop
      vertex 77.5852 3 11.353
      vertex 72.4148 3 11.353
      vertex 72.5 3 12
    endloop
  endfacet
  facet normal 0 1 0
    outer loop
      vertex 77.8349 3 10.75
      vertex 72.4148 3 11.353
      vertex 77.5852 3 11.353
    endloop
  endfacet
  facet normal 0 1 0
    outer loop
      vertex 77.8349 3 10.75
      vertex 72.1651 3 10.75
      vertex 72.4148 3 11.353
    endloop
  endfacet
  facet normal 0 1 0
    outer loop
      vertex 78.2322 3 10.2322
      vertex 72.1651 3 10.75
      vertex 77.8349 3 10.75
    endloop
  endfacet
  facet normal 0 1 0
    outer loop
      vertex 78.2322 3 10.2322
      vertex 71.7678 3 10.2322
      vertex 72.1651 3 10.75
    endloop
  endfacet
  facet normal 0 1 0
    outer loop
      vertex 78.75 3 9.83494
      vertex 71.7678 3 10.2322
      vertex 78.2322 3 10.2322
    endloop
  endfacet
  facet normal 0 1 0
    outer loop
      vertex 78.75 3 9.83494
      vertex 71.25 3 9.83494
      vertex 71.7678 3 10.2322
    endloop
  endfacet
  facet normal 0 1 0
    outer loop
      vertex 79.353 3 9.58519
      vertex 71.25 3 9.83494
      vertex 78.75 3 9.83494
    endloop
  endfacet
  facet normal 0 1 0
    outer loop
      vertex 79.353 3 9.58519
      vertex 70.647 3 9.58519
      vertex 71.25 3 9.83494
    endloop
  endfacet
  facet normal 0 1 0
    outer loop
      vertex 80 3 9.5
      vertex 70.647 3 9.58519
      vertex 79.353 3 9.58519
    endloop
  endfacet
  facet normal 0 1 0
    outer loop
      vertex 70.647 3 9.58519
      vertex 80 3 9.5
      vertex 70 3 9.5
    endloop
  endfacet
  facet normal 0 1 -0
    outer loop
      vertex 89.353 3 14.4148
      vertex 80 3 14.5
      vertex 90 3 14.5
    endloop
  endfacet
  facet normal 0 1 0
    outer loop
      vertex 89.353 3 14.4148
      vertex 80.647 3 14.4148
      vertex 80 3 14.5
    endloop
  endfacet
  facet normal 0 1 -0
    outer loop
      vertex 88.75 3 14.1651
      vertex 80.647 3 14.4148
      vertex 89.353 3 14.4148
    endloop
  endfacet
  facet normal 0 1 0
    outer loop
      vertex 88.75 3 14.1651
      vertex 81.25 3 14.1651
      vertex 80.647 3 14.4148
    endloop
  endfacet
  facet normal 0 1 -0
    outer loop
      vertex 88.2322 3 13.7678
      vertex 81.25 3 14.1651
      vertex 88.75 3 14.1651
    endloop
  endfacet
  facet normal 0 1 0
    outer loop
      vertex 88.2322 3 13.7678
      vertex 81.7678 3 13.7678
      vertex 81.25 3 14.1651
    endloop
  endfacet
  facet normal 0 1 -0
    outer loop
      vertex 87.8349 3 13.25
      vertex 81.7678 3 13.7678
      vertex 88.2322 3 13.7678
    endloop
  endfacet
  facet normal 0 1 0
    outer loop
      vertex 87.8349 3 13.25
      vertex 82.1651 3 13.25
      vertex 81.7678 3 13.7678
    endloop
  endfacet
  facet normal 0 1 -0
    outer loop
      vertex 87.5852 3 12.647
      vertex 82.1651 3 13.25
      vertex 87.8349 3 13.25
    endloop
  endfacet
  facet normal 0 1 0
    outer loop
      vertex 87.5852 3 12.647
      vertex 82.4148 3 12.647
      vertex 82.1651 3 13.25
    endloop
  endfacet
  facet normal 0 1 -0
    outer loop
      vertex 87.5 3 12
      vertex 82.4148 3 12.647
      vertex 87.5852 3 12.647
    endloop
  endfacet
  facet normal 0 1 0
    outer loop
      vertex 87.5 3 12
      vertex 82.5 3 12
      vertex 82.4148 3 12.647
    endloop
  endfacet
  facet normal 0 1 0
    outer loop
      vertex 87.5852 3 11.353
      vertex 82.5 3 12
      vertex 87.5 3 12
    endloop
  endfacet
  facet normal 0 1 0
    outer loop
      vertex 87.5852 3 11.353
      vertex 82.4148 3 11.353
      vertex 82.5 3 12
    endloop
  endfacet
  facet normal 0 1 0
    outer loop
      vertex 87.8349 3 10.75
      vertex 82.4148 3 11.353
      vertex 87.5852 3 11.353
    endloop
  endfacet
  facet normal 0 1 0
    outer loop
      vertex 87.8349 3 10.75
      vertex 82.1651 3 10.75
      vertex 82.4148 3 11.353
    endloop
  endfacet
  facet normal 0 1 0
    outer loop
      vertex 88.2322 3 10.2322
      vertex 82.1651 3 10.75
      vertex 87.8349 3 10.75
    endloop
  endfacet
  facet normal 0 1 0
    outer loop
      vertex 88.2322 3 10.2322
      vertex 81.7678 3 10.2322
      vertex 82.1651 3 10.75
    endloop
  endfacet
  facet normal 0 1 0
    outer loop
      vertex 88.75 3 9.83494
      vertex 81.7678 3 10.2322
      vertex 88.2322 3 10.2322
    endloop
  endfacet
  facet normal 0 1 0
    outer loop
      vertex 88.75 3 9.83494
      vertex 81.25 3 9.83494
      vertex 81.7678 3 10.2322
    endloop
  endfacet
  facet normal 0 1 0
    outer loop
      vertex 89.353 3 9.58519
      vertex 81.25 3 9.83494
      vertex 88.75 3 9.83494
    endloop
  endfacet
  facet normal 0 1 0
    outer loop
      vertex 89.353 3 9.58519
      vertex 80.647 3 9.58519
      vertex 81.25 3 9.83494
    endloop
  endfacet
  facet normal 0 1 0
    outer loop
      vertex 90 3 9.5
      vertex 80.647 3 9.58519
      vertex 89.353 3 9.58519
    endloop
  endfacet
  facet normal 0 1 0
    outer loop
      vertex 80.647 3 9.58519
      vertex 90 3 9.5
      vertex 80 3 9.5
    endloop
  endfacet
  facet normal 0 1 0
    outer loop
      vertex 70 3 14.5
      vertex 140 3 24
      vertex 80 3 14.5
    endloop
  endfacet
  facet normal 0 1 0
    outer loop
      vertex 140 3 24
      vertex 90.647 3 14.4148
      vertex 90 3 14.5
    endloop
  endfacet
  facet normal 0 1 0
    outer loop
      vertex 119 3 15
      vertex 91.25 3 14.1651
      vertex 90.647 3 14.4148
    endloop
  endfacet
  facet normal 0 1 0
    outer loop
      vertex 119 3 15
      vertex 91.7678 3 13.7678
      vertex 91.25 3 14.1651
    endloop
  endfacet
  facet normal 0 1 0
    outer loop
      vertex 119 3 15
      vertex 92.1651 3 13.25
      vertex 91.7678 3 13.7678
    endloop
  endfacet
  facet normal 0 1 0
    outer loop
      vertex 119 3 15
      vertex 92.4148 3 12.647
      vertex 92.1651 3 13.25
    endloop
  endfacet
  facet normal 0 1 0
    outer loop
      vertex 119 3 15
      vertex 92.5 3 12
      vertex 92.4148 3 12.647
    endloop
  endfacet
  facet normal 0 1 -0
    outer loop
      vertex 119 3 9
      vertex 92.5 3 12
      vertex 119 3 15
    endloop
  endfacet
  facet normal 0 1 0
    outer loop
      vertex 92.5 3 12
      vertex 119 3 9
      vertex 92.4148 3 11.353
    endloop
  endfacet
  facet normal 0 1 0
    outer loop
      vertex 92.4148 3 11.353
      vertex 119 3 9
      vertex 92.1651 3 10.75
    endloop
  endfacet
  facet normal 0 1 0
    outer loop
      vertex 92.1651 3 10.75
      vertex 119 3 9
      vertex 91.7678 3 10.2322
    endloop
  endfacet
  facet normal 0 1 0
    outer loop
      vertex 91.7678 3 10.2322
      vertex 119 3 9
      vertex 91.25 3 9.83494
    endloop
  endfacet
  facet normal 0 0 0
    outer loop
      vertex 90 3 9.5
      vertex 70 3 9.5
      vertex 80 3 9.5
    endloop
  endfacet
  facet normal 0 0 0
    outer loop
      vertex 90 3 9.5
      vertex 60 3 9.5
      vertex 70 3 9.5
    endloop
  endfacet
  facet normal 0 0 0
    outer loop
      vertex 90 3 9.5
      vertex 50 3 9.5
      vertex 60 3 9.5
    endloop
  endfacet
  facet normal 0 1 0
    outer loop
      vertex 90 3 9.5
      vertex 119 3 9
      vertex 50 3 9.5
    endloop
  endfacet
  facet normal 0 1 0
    outer loop
      vertex 90.647 3 9.58519
      vertex 119 3 9
      vertex 90 3 9.5
    endloop
  endfacet
  facet normal 0 1 0
    outer loop
      vertex 91.25 3 9.83494
      vertex 119 3 9
      vertex 90.647 3 9.58519
    endloop
  endfacet
  facet normal 0 1 0
    outer loop
      vertex 119 3 15
      vertex 140 3 24
      vertex 131 3 15
    endloop
  endfacet
  facet normal 0 1 0
    outer loop
      vertex 140 3 24
      vertex 131 3 9
      vertex 131 3 15
    endloop
  endfacet
  facet normal 0 1 0
    outer loop
      vertex 140 3 0
      vertex 119 3 9
      vertex 131 3 9
    endloop
  endfacet
  facet normal 0 1 0
    outer loop
      vertex 119 3 9
      vertex 140 3 0
      vertex 21 3 9
    endloop
  endfacet
  facet normal 0 1 0
    outer loop
      vertex 0 3 0
      vertex 21 3 9
      vertex 140 3 0
    endloop
  endfacet
  facet normal 0 1 -0
    outer loop
      vertex 140 3 0
      vertex 131 3 9
      vertex 140 3 24
    endloop
  endfacet
  facet normal 0 1 0
    outer loop
      vertex 90.647 3 14.4148
      vertex 140 3 24
      vertex 119 3 15
    endloop
  endfacet
  facet normal 0 1 0
    outer loop
      vertex 80 3 14.5
      vertex 140 3 24
      vertex 90 3 14.5
    endloop
  endfacet
  facet normal 0 1 -0
    outer loop
      vertex 9 3 15
      vertex 0 3 24
      vertex 21 3 15
    endloop
  endfacet
  facet normal 0 1 -0
    outer loop
      vertex 9 3 9
      vertex 0 3 24
      vertex 9 3 15
    endloop
  endfacet
  facet normal 0 1 0
    outer loop
      vertex 9 3 9
      vertex 0 3 0
      vertex 0 3 24
    endloop
  endfacet
  facet normal 0 1 0
    outer loop
      vertex 21 3 9
      vertex 0 3 0
      vertex 9 3 9
    endloop
  endfacet
  facet normal 0 1 0
    outer loop
      vertex 140 3 24
      vertex 70 3 14.5
      vertex 0 3 24
    endloop
  endfacet
  facet normal 0 1 -0
    outer loop
      vertex 60 3 14.5
      vertex 0 3 24
      vertex 70 3 14.5
    endloop
  endfacet
  facet normal 0 1 -0
    outer loop
      vertex 50 3 14.5
      vertex 0 3 24
      vertex 60 3 14.5
    endloop
  endfacet
  facet normal 0 1 -0
    outer loop
      vertex 49.353 3 14.4148
      vertex 0 3 24
      vertex 50 3 14.5
    endloop
  endfacet
  facet normal 0 1 0
    outer loop
      vertex 0 3 24
      vertex 49.353 3 14.4148
      vertex 21 3 15
    endloop
  endfacet
  facet normal 0 1 -0
    outer loop
      vertex 48.75 3 14.1651
      vertex 21 3 15
      vertex 49.353 3 14.4148
    endloop
  endfacet
  facet normal 0 1 -0
    outer loop
      vertex 48.2322 3 13.7678
      vertex 21 3 15
      vertex 48.75 3 14.1651
    endloop
  endfacet
  facet normal 0 1 -0
    outer loop
      vertex 47.8349 3 13.25
      vertex 21 3 15
      vertex 48.2322 3 13.7678
    endloop
  endfacet
  facet normal 0 1 -0
    outer loop
      vertex 47.5852 3 12.647
      vertex 21 3 15
      vertex 47.8349 3 13.25
    endloop
  endfacet
  facet normal 0 1 -0
    outer loop
      vertex 47.5 3 12
      vertex 21 3 15
      vertex 47.5852 3 12.647
    endloop
  endfacet
  facet normal 0 1 0
    outer loop
      vertex 21 3 9
      vertex 47.5 3 12
      vertex 47.5852 3 11.353
    endloop
  endfacet
  facet normal 0 1 0
    outer loop
      vertex 21 3 9
      vertex 47.5852 3 11.353
      vertex 47.8349 3 10.75
    endloop
  endfacet
  facet normal 0 1 0
    outer loop
      vertex 21 3 9
      vertex 47.8349 3 10.75
      vertex 48.2322 3 10.2322
    endloop
  endfacet
  facet normal 0 1 0
    outer loop
      vertex 21 3 9
      vertex 48.2322 3 10.2322
      vertex 48.75 3 9.83494
    endloop
  endfacet
  facet normal 0 1 0
    outer loop
      vertex 21 3 9
      vertex 48.75 3 9.83494
      vertex 49.353 3 9.58519
    endloop
  endfacet
  facet normal 0 1 0
    outer loop
      vertex 47.5 3 12
      vertex 21 3 9
      vertex 21 3 15
    endloop
  endfacet
  facet normal 0 1 0
    outer loop
      vertex 50 3 9.5
      vertex 21 3 9
      vertex 49.353 3 9.58519
    endloop
  endfacet
  facet normal 0 1 0
    outer loop
      vertex 21 3 9
      vertex 50 3 9.5
      vertex 119 3 9
    endloop
  endfacet
  facet normal 0 -1 0
    outer loop
      vertex 80.647 0 14.4148
      vertex 90 0 14.5
      vertex 80 0 14.5
    endloop
  endfacet
  facet normal 0 -1 0
    outer loop
      vertex 80.647 0 14.4148
      vertex 89.353 0 14.4148
      vertex 90 0 14.5
    endloop
  endfacet
  facet normal 0 -1 0
    outer loop
      vertex 81.25 0 14.1651
      vertex 89.353 0 14.4148
      vertex 80.647 0 14.4148
    endloop
  endfacet
  facet normal 0 -1 0
    outer loop
      vertex 81.25 0 14.1651
      vertex 88.75 0 14.1651
      vertex 89.353 0 14.4148
    endloop
  endfacet
  facet normal 0 -1 0
    outer loop
      vertex 81.7678 0 13.7678
      vertex 88.75 0 14.1651
      vertex 81.25 0 14.1651
    endloop
  endfacet
  facet normal 0 -1 0
    outer loop
      vertex 81.7678 0 13.7678
      vertex 88.2322 0 13.7678
      vertex 88.75 0 14.1651
    endloop
  endfacet
  facet normal 0 -1 0
    outer loop
      vertex 82.1651 0 13.25
      vertex 88.2322 0 13.7678
      vertex 81.7678 0 13.7678
    endloop
  endfacet
  facet normal 0 -1 0
    outer loop
      vertex 82.1651 0 13.25
      vertex 87.8349 0 13.25
      vertex 88.2322 0 13.7678
    endloop
  endfacet
  facet normal 0 -1 0
    outer loop
      vertex 82.4148 0 12.647
      vertex 87.8349 0 13.25
      vertex 82.1651 0 13.25
    endloop
  endfacet
  facet normal 0 -1 0
    outer loop
      vertex 82.4148 0 12.647
      vertex 87.5852 0 12.647
      vertex 87.8349 0 13.25
    endloop
  endfacet
  facet normal 0 -1 0
    outer loop
      vertex 82.5 0 12
      vertex 87.5852 0 12.647
      vertex 82.4148 0 12.647
    endloop
  endfacet
  facet normal 0 -1 0
    outer loop
      vertex 82.5 0 12
      vertex 87.5 0 12
      vertex 87.5852 0 12.647
    endloop
  endfacet
  facet normal 0 -1 0
    outer loop
      vertex 82.4148 0 11.353
      vertex 87.5 0 12
      vertex 82.5 0 12
    endloop
  endfacet
  facet normal 0 -1 0
    outer loop
      vertex 82.4148 0 11.353
      vertex 87.5852 0 11.353
      vertex 87.5 0 12
    endloop
  endfacet
  facet normal 0 -1 0
    outer loop
      vertex 82.1651 0 10.75
      vertex 87.5852 0 11.353
      vertex 82.4148 0 11.353
    endloop
  endfacet
  facet normal 0 -1 0
    outer loop
      vertex 82.1651 0 10.75
      vertex 87.8349 0 10.75
      vertex 87.5852 0 11.353
    endloop
  endfacet
  facet normal 0 -1 0
    outer loop
      vertex 81.7678 0 10.2322
      vertex 87.8349 0 10.75
      vertex 82.1651 0 10.75
    endloop
  endfacet
  facet normal 0 -1 0
    outer loop
      vertex 81.7678 0 10.2322
      vertex 88.2322 0 10.2322
      vertex 87.8349 0 10.75
    endloop
  endfacet
  facet normal 0 -1 0
    outer loop
      vertex 81.25 0 9.83494
      vertex 88.2322 0 10.2322
      vertex 81.7678 0 10.2322
    endloop
  endfacet
  facet normal 0 -1 0
    outer loop
      vertex 81.25 0 9.83494
      vertex 88.75 0 9.83494
      vertex 88.2322 0 10.2322
    endloop
  endfacet
  facet normal 0 -1 0
    outer loop
      vertex 80.647 0 9.58519
      vertex 88.75 0 9.83494
      vertex 81.25 0 9.83494
    endloop
  endfacet
  facet normal 0 -1 0
    outer loop
      vertex 80.647 0 9.58519
      vertex 89.353 0 9.58519
      vertex 88.75 0 9.83494
    endloop
  endfacet
  facet normal 0 -1 0
    outer loop
      vertex 80 0 9.5
      vertex 89.353 0 9.58519
      vertex 80.647 0 9.58519
    endloop
  endfacet
  facet normal 0 -1 -0
    outer loop
      vertex 89.353 0 9.58519
      vertex 80 0 9.5
      vertex 90 0 9.5
    endloop
  endfacet
  facet normal 0 -1 0
    outer loop
      vertex 70.647 0 14.4148
      vertex 80 0 14.5
      vertex 70 0 14.5
    endloop
  endfacet
  facet normal 0 -1 0
    outer loop
      vertex 70.647 0 14.4148
      vertex 79.353 0 14.4148
      vertex 80 0 14.5
    endloop
  endfacet
  facet normal 0 -1 0
    outer loop
      vertex 71.25 0 14.1651
      vertex 79.353 0 14.4148
      vertex 70.647 0 14.4148
    endloop
  endfacet
  facet normal 0 -1 0
    outer loop
      vertex 71.25 0 14.1651
      vertex 78.75 0 14.1651
      vertex 79.353 0 14.4148
    endloop
  endfacet
  facet normal 0 -1 0
    outer loop
      vertex 71.7678 0 13.7678
      vertex 78.75 0 14.1651
      vertex 71.25 0 14.1651
    endloop
  endfacet
  facet normal 0 -1 0
    outer loop
      vertex 71.7678 0 13.7678
      vertex 78.2322 0 13.7678
      vertex 78.75 0 14.1651
    endloop
  endfacet
  facet normal 0 -1 0
    outer loop
      vertex 72.1651 0 13.25
      vertex 78.2322 0 13.7678
      vertex 71.7678 0 13.7678
    endloop
  endfacet
  facet normal 0 -1 0
    outer loop
      vertex 72.1651 0 13.25
      vertex 77.8349 0 13.25
      vertex 78.2322 0 13.7678
    endloop
  endfacet
  facet normal 0 -1 0
    outer loop
      vertex 72.4148 0 12.647
      vertex 77.8349 0 13.25
      vertex 72.1651 0 13.25
    endloop
  endfacet
  facet normal 0 -1 0
    outer loop
      vertex 72.4148 0 12.647
      vertex 77.5852 0 12.647
      vertex 77.8349 0 13.25
    endloop
  endfacet
  facet normal 0 -1 0
    outer loop
      vertex 72.5 0 12
      vertex 77.5852 0 12.647
      vertex 72.4148 0 12.647
    endloop
  endfacet
  facet normal 0 -1 0
    outer loop
      vertex 72.5 0 12
      vertex 77.5 0 12
      vertex 77.5852 0 12.647
    endloop
  endfacet
  facet normal 0 -1 0
    outer loop
      vertex 72.4148 0 11.353
      vertex 77.5 0 12
      vertex 72.5 0 12
    endloop
  endfacet
  facet normal 0 -1 0
    outer loop
      vertex 72.4148 0 11.353
      vertex 77.5852 0 11.353
      vertex 77.5 0 12
    endloop
  endfacet
  facet normal 0 -1 0
    outer loop
      vertex 72.1651 0 10.75
      vertex 77.5852 0 11.353
      vertex 72.4148 0 11.353
    endloop
  endfacet
  facet normal 0 -1 0
    outer loop
      vertex 72.1651 0 10.75
      vertex 77.8349 0 10.75
      vertex 77.5852 0 11.353
    endloop
  endfacet
  facet normal 0 -1 0
    outer loop
      vertex 71.7678 0 10.2322
      vertex 77.8349 0 10.75
      vertex 72.1651 0 10.75
    endloop
  endfacet
  facet normal 0 -1 0
    outer loop
      vertex 71.7678 0 10.2322
      vertex 78.2322 0 10.2322
      vertex 77.8349 0 10.75
    endloop
  endfacet
  facet normal 0 -1 0
    outer loop
      vertex 71.25 0 9.83494
      vertex 78.2322 0 10.2322
      vertex 71.7678 0 10.2322
    endloop
  endfacet
  facet normal 0 -1 0
    outer loop
      vertex 71.25 0 9.83494
      vertex 78.75 0 9.83494
      vertex 78.2322 0 10.2322
    endloop
  endfacet
  facet normal 0 -1 0
    outer loop
      vertex 70.647 0 9.58519
      vertex 78.75 0 9.83494
      vertex 71.25 0 9.83494
    endloop
  endfacet
  facet normal 0 -1 0
    outer loop
      vertex 70.647 0 9.58519
      vertex 79.353 0 9.58519
      vertex 78.75 0 9.83494
    endloop
  endfacet
  facet normal 0 -1 0
    outer loop
      vertex 70 0 9.5
      vertex 79.353 0 9.58519
      vertex 70.647 0 9.58519
    endloop
  endfacet
  facet normal 0 -1 -0
    outer loop
      vertex 79.353 0 9.58519
      vertex 70 0 9.5
      vertex 80 0 9.5
    endloop
  endfacet
  facet normal 0 -1 0
    outer loop
      vertex 60.647 0 14.4148
      vertex 70 0 14.5
      vertex 60 0 14.5
    endloop
  endfacet
  facet normal 0 -1 0
    outer loop
      vertex 60.647 0 14.4148
      vertex 69.353 0 14.4148
      vertex 70 0 14.5
    endloop
  endfacet
  facet normal 0 -1 0
    outer loop
      vertex 61.25 0 14.1651
      vertex 69.353 0 14.4148
      vertex 60.647 0 14.4148
    endloop
  endfacet
  facet normal 0 -1 0
    outer loop
      vertex 61.25 0 14.1651
      vertex 68.75 0 14.1651
      vertex 69.353 0 14.4148
    endloop
  endfacet
  facet normal 0 -1 0
    outer loop
      vertex 61.7678 0 13.7678
      vertex 68.75 0 14.1651
      vertex 61.25 0 14.1651
    endloop
  endfacet
  facet normal 0 -1 0
    outer loop
      vertex 61.7678 0 13.7678
      vertex 68.2322 0 13.7678
      vertex 68.75 0 14.1651
    endloop
  endfacet
  facet normal 0 -1 0
    outer loop
      vertex 62.1651 0 13.25
      vertex 68.2322 0 13.7678
      vertex 61.7678 0 13.7678
    endloop
  endfacet
  facet normal 0 -1 0
    outer loop
      vertex 62.1651 0 13.25
      vertex 67.8349 0 13.25
      vertex 68.2322 0 13.7678
    endloop
  endfacet
  facet normal 0 -1 0
    outer loop
      vertex 62.4148 0 12.647
      vertex 67.8349 0 13.25
      vertex 62.1651 0 13.25
    endloop
  endfacet
  facet normal 0 -1 0
    outer loop
      vertex 62.4148 0 12.647
      vertex 67.5852 0 12.647
      vertex 67.8349 0 13.25
    endloop
  endfacet
  facet normal 0 -1 0
    outer loop
      vertex 62.5 0 12
      vertex 67.5852 0 12.647
      vertex 62.4148 0 12.647
    endloop
  endfacet
  facet normal 0 -1 0
    outer loop
      vertex 62.5 0 12
      vertex 67.5 0 12
      vertex 67.5852 0 12.647
    endloop
  endfacet
  facet normal 0 -1 0
    outer loop
      vertex 62.4148 0 11.353
      vertex 67.5 0 12
      vertex 62.5 0 12
    endloop
  endfacet
  facet normal 0 -1 0
    outer loop
      vertex 62.4148 0 11.353
      vertex 67.5852 0 11.353
      vertex 67.5 0 12
    endloop
  endfacet
  facet normal 0 -1 0
    outer loop
      vertex 62.1651 0 10.75
      vertex 67.5852 0 11.353
      vertex 62.4148 0 11.353
    endloop
  endfacet
  facet normal 0 -1 0
    outer loop
      vertex 62.1651 0 10.75
      vertex 67.8349 0 10.75
      vertex 67.5852 0 11.353
    endloop
  endfacet
  facet normal 0 -1 0
    outer loop
      vertex 61.7678 0 10.2322
      vertex 67.8349 0 10.75
      vertex 62.1651 0 10.75
    endloop
  endfacet
  facet normal 0 -1 0
    outer loop
      vertex 61.7678 0 10.2322
      vertex 68.2322 0 10.2322
      vertex 67.8349 0 10.75
    endloop
  endfacet
  facet normal 0 -1 0
    outer loop
      vertex 61.25 0 9.83494
      vertex 68.2322 0 10.2322
      vertex 61.7678 0 10.2322
    endloop
  endfacet
  facet normal 0 -1 0
    outer loop
      vertex 61.25 0 9.83494
      vertex 68.75 0 9.83494
      vertex 68.2322 0 10.2322
    endloop
  endfacet
  facet normal 0 -1 0
    outer loop
      vertex 60.647 0 9.58519
      vertex 68.75 0 9.83494
      vertex 61.25 0 9.83494
    endloop
  endfacet
  facet normal 0 -1 0
    outer loop
      vertex 60.647 0 9.58519
      vertex 69.353 0 9.58519
      vertex 68.75 0 9.83494
    endloop
  endfacet
  facet normal 0 -1 0
    outer loop
      vertex 60 0 9.5
      vertex 69.353 0 9.58519
      vertex 60.647 0 9.58519
    endloop
  endfacet
  facet normal 0 -1 -0
    outer loop
      vertex 69.353 0 9.58519
      vertex 60 0 9.5
      vertex 70 0 9.5
    endloop
  endfacet
  facet normal 0 -1 0
    outer loop
      vertex 50.647 0 14.4148
      vertex 60 0 14.5
      vertex 50 0 14.5
    endloop
  endfacet
  facet normal 0 -1 0
    outer loop
      vertex 50.647 0 14.4148
      vertex 59.353 0 14.4148
      vertex 60 0 14.5
    endloop
  endfacet
  facet normal 0 -1 0
    outer loop
      vertex 51.25 0 14.1651
      vertex 59.353 0 14.4148
      vertex 50.647 0 14.4148
    endloop
  endfacet
  facet normal 0 -1 0
    outer loop
      vertex 51.25 0 14.1651
      vertex 58.75 0 14.1651
      vertex 59.353 0 14.4148
    endloop
  endfacet
  facet normal 0 -1 0
    outer loop
      vertex 51.7678 0 13.7678
      vertex 58.75 0 14.1651
      vertex 51.25 0 14.1651
    endloop
  endfacet
  facet normal 0 -1 0
    outer loop
      vertex 51.7678 0 13.7678
      vertex 58.2322 0 13.7678
      vertex 58.75 0 14.1651
    endloop
  endfacet
  facet normal 0 -1 0
    outer loop
      vertex 52.1651 0 13.25
      vertex 58.2322 0 13.7678
      vertex 51.7678 0 13.7678
    endloop
  endfacet
  facet normal 0 -1 0
    outer loop
      vertex 52.1651 0 13.25
      vertex 57.8349 0 13.25
      vertex 58.2322 0 13.7678
    endloop
  endfacet
  facet normal 0 -1 0
    outer loop
      vertex 52.4148 0 12.647
      vertex 57.8349 0 13.25
      vertex 52.1651 0 13.25
    endloop
  endfacet
  facet normal 0 -1 0
    outer loop
      vertex 52.4148 0 12.647
      vertex 57.5852 0 12.647
      vertex 57.8349 0 13.25
    endloop
  endfacet
  facet normal 0 -1 0
    outer loop
      vertex 52.5 0 12
      vertex 57.5852 0 12.647
      vertex 52.4148 0 12.647
    endloop
  endfacet
  facet normal 0 -1 0
    outer loop
      vertex 52.5 0 12
      vertex 57.5 0 12
      vertex 57.5852 0 12.647
    endloop
  endfacet
  facet normal 0 -1 0
    outer loop
      vertex 52.4148 0 11.353
      vertex 57.5 0 12
      vertex 52.5 0 12
    endloop
  endfacet
  facet normal 0 -1 0
    outer loop
      vertex 52.4148 0 11.353
      vertex 57.5852 0 11.353
      vertex 57.5 0 12
    endloop
  endfacet
  facet normal 0 -1 0
    outer loop
      vertex 52.1651 0 10.75
      vertex 57.5852 0 11.353
      vertex 52.4148 0 11.353
    endloop
  endfacet
  facet normal 0 -1 0
    outer loop
      vertex 52.1651 0 10.75
      vertex 57.8349 0 10.75
      vertex 57.5852 0 11.353
    endloop
  endfacet
  facet normal 0 -1 0
    outer loop
      vertex 51.7678 0 10.2322
      vertex 57.8349 0 10.75
      vertex 52.1651 0 10.75
    endloop
  endfacet
  facet normal 0 -1 0
    outer loop
      vertex 51.7678 0 10.2322
      vertex 58.2322 0 10.2322
      vertex 57.8349 0 10.75
    endloop
  endfacet
  facet normal 0 -1 0
    outer loop
      vertex 51.25 0 9.83494
      vertex 58.2322 0 10.2322
      vertex 51.7678 0 10.2322
    endloop
  endfacet
  facet normal 0 -1 0
    outer loop
      vertex 51.25 0 9.83494
      vertex 58.75 0 9.83494
      vertex 58.2322 0 10.2322
    endloop
  endfacet
  facet normal 0 -1 0
    outer loop
      vertex 50.647 0 9.58519
      vertex 58.75 0 9.83494
      vertex 51.25 0 9.83494
    endloop
  endfacet
  facet normal 0 -1 0
    outer loop
      vertex 50.647 0 9.58519
      vertex 59.353 0 9.58519
      vertex 58.75 0 9.83494
    endloop
  endfacet
  facet normal 0 -1 0
    outer loop
      vertex 50 0 9.5
      vertex 59.353 0 9.58519
      vertex 50.647 0 9.58519
    endloop
  endfacet
  facet normal 0 -1 -0
    outer loop
      vertex 59.353 0 9.58519
      vertex 50 0 9.5
      vertex 60 0 9.5
    endloop
  endfacet
  facet normal 0 -1 0
    outer loop
      vertex 70 0 14.5
      vertex 0 0 24
      vertex 60 0 14.5
    endloop
  endfacet
  facet normal 0 -1 0
    outer loop
      vertex 0 0 24
      vertex 49.353 0 14.4148
      vertex 50 0 14.5
    endloop
  endfacet
  facet normal 0 -1 0
    outer loop
      vertex 21 0 15
      vertex 48.75 0 14.1651
      vertex 49.353 0 14.4148
    endloop
  endfacet
  facet normal 0 -1 0
    outer loop
      vertex 21 0 15
      vertex 48.2322 0 13.7678
      vertex 48.75 0 14.1651
    endloop
  endfacet
  facet normal 0 -1 0
    outer loop
      vertex 21 0 15
      vertex 47.8349 0 13.25
      vertex 48.2322 0 13.7678
    endloop
  endfacet
  facet normal 0 -1 0
    outer loop
      vertex 21 0 15
      vertex 47.5852 0 12.647
      vertex 47.8349 0 13.25
    endloop
  endfacet
  facet normal 0 -1 0
    outer loop
      vertex 21 0 15
      vertex 47.5 0 12
      vertex 47.5852 0 12.647
    endloop
  endfacet
  facet normal 0 -1 0
    outer loop
      vertex 21 0 9
      vertex 47.5 0 12
      vertex 21 0 15
    endloop
  endfacet
  facet normal 0 -1 -0
    outer loop
      vertex 47.5 0 12
      vertex 21 0 9
      vertex 47.5852 0 11.353
    endloop
  endfacet
  facet normal 0 -1 -0
    outer loop
      vertex 47.5852 0 11.353
      vertex 21 0 9
      vertex 47.8349 0 10.75
    endloop
  endfacet
  facet normal 0 -1 -0
    outer loop
      vertex 47.8349 0 10.75
      vertex 21 0 9
      vertex 48.2322 0 10.2322
    endloop
  endfacet
  facet normal 0 -1 -0
    outer loop
      vertex 48.2322 0 10.2322
      vertex 21 0 9
      vertex 48.75 0 9.83494
    endloop
  endfacet
  facet normal 0 0 0
    outer loop
      vertex 50 0 9.5
      vertex 70 0 9.5
      vertex 60 0 9.5
    endloop
  endfacet
  facet normal 0 0 0
    outer loop
      vertex 50 0 9.5
      vertex 80 0 9.5
      vertex 70 0 9.5
    endloop
  endfacet
  facet normal 0 0 0
    outer loop
      vertex 50 0 9.5
      vertex 90 0 9.5
      vertex 80 0 9.5
    endloop
  endfacet
  facet normal 0 -1 -0
    outer loop
      vertex 50 0 9.5
      vertex 21 0 9
      vertex 90 0 9.5
    endloop
  endfacet
  facet normal 0 -1 -0
    outer loop
      vertex 49.353 0 9.58519
      vertex 21 0 9
      vertex 50 0 9.5
    endloop
  endfacet
  facet normal 0 -1 -0
    outer loop
      vertex 48.75 0 9.83494
      vertex 21 0 9
      vertex 49.353 0 9.58519
    endloop
  endfacet
  facet normal 0 -1 0
    outer loop
      vertex 21 0 15
      vertex 0 0 24
      vertex 9 0 15
    endloop
  endfacet
  facet normal 0 -1 0
    outer loop
      vertex 0 0 24
      vertex 9 0 9
      vertex 9 0 15
    endloop
  endfacet
  facet normal 0 -1 0
    outer loop
      vertex 0 0 0
      vertex 21 0 9
      vertex 9 0 9
    endloop
  endfacet
  facet normal 0 -1 -0
    outer loop
      vertex 21 0 9
      vertex 0 0 0
      vertex 119 0 9
    endloop
  endfacet
  facet normal 0 -1 0
    outer loop
      vertex 140 0 0
      vertex 119 0 9
      vertex 0 0 0
    endloop
  endfacet
  facet normal 0 -1 0
    outer loop
      vertex 0 0 0
      vertex 9 0 9
      vertex 0 0 24
    endloop
  endfacet
  facet normal 0 -1 0
    outer loop
      vertex 49.353 0 14.4148
      vertex 0 0 24
      vertex 21 0 15
    endloop
  endfacet
  facet normal 0 -1 0
    outer loop
      vertex 60 0 14.5
      vertex 0 0 24
      vertex 50 0 14.5
    endloop
  endfacet
  facet normal 0 -1 0
    outer loop
      vertex 131 0 15
      vertex 140 0 24
      vertex 119 0 15
    endloop
  endfacet
  facet normal 0 -1 0
    outer loop
      vertex 131 0 9
      vertex 140 0 24
      vertex 131 0 15
    endloop
  endfacet
  facet normal 0 -1 0
    outer loop
      vertex 131 0 9
      vertex 140 0 0
      vertex 140 0 24
    endloop
  endfacet
  facet normal 0 -1 0
    outer loop
      vertex 119 0 9
      vertex 140 0 0
      vertex 131 0 9
    endloop
  endfacet
  facet normal 0 -1 0
    outer loop
      vertex 0 0 24
      vertex 70 0 14.5
      vertex 140 0 24
    endloop
  endfacet
  facet normal 0 -1 0
    outer loop
      vertex 80 0 14.5
      vertex 140 0 24
      vertex 70 0 14.5
    endloop
  endfacet
  facet normal 0 -1 0
    outer loop
      vertex 90 0 14.5
      vertex 140 0 24
      vertex 80 0 14.5
    endloop
  endfacet
  facet normal 0 -1 0
    outer loop
      vertex 90.647 0 14.4148
      vertex 140 0 24
      vertex 90 0 14.5
    endloop
  endfacet
  facet normal 0 -1 0
    outer loop
      vertex 140 0 24
      vertex 90.647 0 14.4148
      vertex 119 0 15
    endloop
  endfacet
  facet normal 0 -1 0
    outer loop
      vertex 91.25 0 14.1651
      vertex 119 0 15
      vertex 90.647 0 14.4148
    endloop
  endfacet
  facet normal 0 -1 0
    outer loop
      vertex 91.7678 0 13.7678
      vertex 119 0 15
      vertex 91.25 0 14.1651
    endloop
  endfacet
  facet normal 0 -1 0
    outer loop
      vertex 92.1651 0 13.25
      vertex 119 0 15
      vertex 91.7678 0 13.7678
    endloop
  endfacet
  facet normal 0 -1 0
    outer loop
      vertex 92.4148 0 12.647
      vertex 119 0 15
      vertex 92.1651 0 13.25
    endloop
  endfacet
  facet normal 0 -1 0
    outer loop
      vertex 92.5 0 12
      vertex 119 0 15
      vertex 92.4148 0 12.647
    endloop
  endfacet
  facet normal 0 -1 0
    outer loop
      vertex 119 0 9
      vertex 92.5 0 12
      vertex 92.4148 0 11.353
    endloop
  endfacet
  facet normal 0 -1 0
    outer loop
      vertex 119 0 9
      vertex 92.4148 0 11.353
      vertex 92.1651 0 10.75
    endloop
  endfacet
  facet normal 0 -1 0
    outer loop
      vertex 119 0 9
      vertex 92.1651 0 10.75
      vertex 91.7678 0 10.2322
    endloop
  endfacet
  facet normal 0 -1 0
    outer loop
      vertex 119 0 9
      vertex 91.7678 0 10.2322
      vertex 91.25 0 9.83494
    endloop
  endfacet
  facet normal 0 -1 0
    outer loop
      vertex 119 0 9
      vertex 91.25 0 9.83494
      vertex 90.647 0 9.58519
    endloop
  endfacet
  facet normal 0 -1 0
    outer loop
      vertex 92.5 0 12
      vertex 119 0 9
      vertex 119 0 15
    endloop
  endfacet
  facet normal 0 -1 0
    outer loop
      vertex 90 0 9.5
      vertex 119 0 9
      vertex 90.647 0 9.58519
    endloop
  endfacet
  facet normal 0 -1 0
    outer loop
      vertex 119 0 9
      vertex 90 0 9.5
      vertex 21 0 9
    endloop
  endfacet
  facet normal -1 0 0
    outer loop
      vertex 21 0 9
      vertex 21 3 15
      vertex 21 3 9
    endloop
  endfacet
  facet normal -1 -0 0
    outer loop
      vertex 21 3 15
      vertex 21 0 9
      vertex 21 0 15
    endloop
  endfacet
  facet normal 0 0 -1
    outer loop
      vertex 9 0 15
      vertex 21 3 15
      vertex 21 0 15
    endloop
  endfacet
  facet normal -0 0 -1
    outer loop
      vertex 21 3 15
      vertex 9 0 15
      vertex 9 3 15
    endloop
  endfacet
  facet normal -0 0 1
    outer loop
      vertex 9 3 9
      vertex 21 0 9
      vertex 21 3 9
    endloop
  endfacet
  facet normal 0 0 1
    outer loop
      vertex 21 0 9
      vertex 9 3 9
      vertex 9 0 9
    endloop
  endfacet
  facet normal 1 -0 0
    outer loop
      vertex 9 0 15
      vertex 9 3 9
      vertex 9 3 15
    endloop
  endfacet
  facet normal 1 0 0
    outer loop
      vertex 9 3 9
      vertex 9 0 15
      vertex 9 0 9
    endloop
  endfacet
  facet normal -1 0 0
    outer loop
      vertex 131 0 9
      vertex 131 3 15
      vertex 131 3 9
    endloop
  endfacet
  facet normal -1 -0 0
    outer loop
      vertex 131 3 15
      vertex 131 0 9
      vertex 131 0 15
    endloop
  endfacet
  facet normal 0 0 -1
    outer loop
      vertex 119 0 15
      vertex 131 3 15
      vertex 131 0 15
    endloop
  endfacet
  facet normal -0 0 -1
    outer loop
      vertex 131 3 15
      vertex 119 0 15
      vertex 119 3 15
    endloop
  endfacet
  facet normal -0 0 1
    outer loop
      vertex 119 3 9
      vertex 131 0 9
      vertex 131 3 9
    endloop
  endfacet
  facet normal 0 0 1
    outer loop
      vertex 131 0 9
      vertex 119 3 9
      vertex 119 0 9
    endloop
  endfacet
  facet normal 1 -0 0
    outer loop
      vertex 119 0 15
      vertex 119 3 9
      vertex 119 3 15
    endloop
  endfacet
  facet normal 1 0 0
    outer loop
      vertex 119 3 9
      vertex 119 0 15
      vertex 119 0 9
    endloop
  endfacet
endsolid OpenSCAD_Model
