solid OpenSCAD_Model
  facet normal 1 -0 0
    outer loop
      vertex 100 0 60
      vertex 100 5 0
      vertex 100 5 60
    endloop
  endfacet
  facet normal 1 0 0
    outer loop
      vertex 100 5 0
      vertex 100 0 60
      vertex 100 0 0
    endloop
  endfacet
  facet normal -0 0 1
    outer loop
      vertex 0 5 60
      vertex 100 0 60
      vertex 100 5 60
    endloop
  endfacet
  facet normal 0 0 1
    outer loop
      vertex 100 0 60
      vertex 0 5 60
      vertex 0 0 60
    endloop
  endfacet
  facet normal 0 0 -1
    outer loop
      vertex 0 0 0
      vertex 100 5 0
      vertex 100 0 0
    endloop
  endfacet
  facet normal -0 0 -1
    outer loop
      vertex 100 5 0
      vertex 0 0 0
      vertex 0 5 0
    endloop
  endfacet
  facet normal -1 0 0
    outer loop
      vertex 0 0 0
      vertex 0 5 60
      vertex 0 5 0
    endloop
  endfacet
  facet normal -1 -0 0
    outer loop
      vertex 0 5 60
      vertex 0 0 0
      vertex 0 0 60
    endloop
  endfacet
  facet normal 0 1 -0
    outer loop
      vertex 16.148 5 47.7716
      vertex 0 5 60
      vertex 100 5 60
    endloop
  endfacet
  facet normal 0 1 0
    outer loop
      vertex 0 5 60
      vertex 15.5853 5 47.9424
      vertex 15 5 48
    endloop
  endfacet
  facet normal 0 1 0
    outer loop
      vertex 0 5 60
      vertex 16.148 5 47.7716
      vertex 15.5853 5 47.9424
    endloop
  endfacet
  facet normal 0 1 0
    outer loop
      vertex 100 5 60
      vertex 16.6667 5 47.4944
      vertex 16.148 5 47.7716
    endloop
  endfacet
  facet normal 0 1 0
    outer loop
      vertex 100 5 60
      vertex 17.1213 5 47.1213
      vertex 16.6667 5 47.4944
    endloop
  endfacet
  facet normal 0 1 -0
    outer loop
      vertex 65 5 34
      vertex 17.1213 5 47.1213
      vertex 100 5 60
    endloop
  endfacet
  facet normal 0 1 0
    outer loop
      vertex 17.1213 5 47.1213
      vertex 65 5 34
      vertex 17.4944 5 46.6667
    endloop
  endfacet
  facet normal 0 1 -0
    outer loop
      vertex 35 5 34
      vertex 17.4944 5 46.6667
      vertex 65 5 34
    endloop
  endfacet
  facet normal 0 1 0
    outer loop
      vertex 17.4944 5 46.6667
      vertex 35 5 34
      vertex 17.7716 5 46.148
    endloop
  endfacet
  facet normal 0 1 0
    outer loop
      vertex 17.7716 5 46.148
      vertex 35 5 34
      vertex 17.9424 5 45.5853
    endloop
  endfacet
  facet normal 0 1 0
    outer loop
      vertex 17.9424 5 45.5853
      vertex 35 5 34
      vertex 18 5 45
    endloop
  endfacet
  facet normal 0 1 0
    outer loop
      vertex 18 5 45
      vertex 35 5 34
      vertex 17.9424 5 44.4147
    endloop
  endfacet
  facet normal 0 1 0
    outer loop
      vertex 17.9424 5 44.4147
      vertex 35 5 34
      vertex 17.7716 5 43.852
    endloop
  endfacet
  facet normal 0 1 0
    outer loop
      vertex 17.7716 5 43.852
      vertex 35 5 34
      vertex 17.4944 5 43.3333
    endloop
  endfacet
  facet normal 0 1 0
    outer loop
      vertex 17.1213 5 42.8787
      vertex 35 5 34
      vertex 16.6667 5 42.5056
    endloop
  endfacet
  facet normal 0 1 0
    outer loop
      vertex 16.6667 5 42.5056
      vertex 35 5 34
      vertex 16.148 5 42.2284
    endloop
  endfacet
  facet normal 0 1 -0
    outer loop
      vertex 35 5 26
      vertex 16.148 5 42.2284
      vertex 35 5 34
    endloop
  endfacet
  facet normal 0 1 0
    outer loop
      vertex 17.4944 5 43.3333
      vertex 35 5 34
      vertex 17.1213 5 42.8787
    endloop
  endfacet
  facet normal 0 1 -0
    outer loop
      vertex 85 5 18
      vertex 65 5 34
      vertex 100 5 60
    endloop
  endfacet
  facet normal 0 1 -0
    outer loop
      vertex 83.852 5 17.7716
      vertex 65 5 34
      vertex 84.4147 5 17.9424
    endloop
  endfacet
  facet normal 0 1 -0
    outer loop
      vertex 84.4147 5 17.9424
      vertex 65 5 34
      vertex 85 5 18
    endloop
  endfacet
  facet normal 0 1 0
    outer loop
      vertex 100 5 60
      vertex 85.5853 5 17.9424
      vertex 85 5 18
    endloop
  endfacet
  facet normal 0 1 0
    outer loop
      vertex 100 5 60
      vertex 86.148 5 17.7716
      vertex 85.5853 5 17.9424
    endloop
  endfacet
  facet normal 0 1 0
    outer loop
      vertex 100 5 60
      vertex 86.6667 5 17.4944
      vertex 86.148 5 17.7716
    endloop
  endfacet
  facet normal 0 1 0
    outer loop
      vertex 100 5 60
      vertex 87.1213 5 17.1213
      vertex 86.6667 5 17.4944
    endloop
  endfacet
  facet normal 0 1 0
    outer loop
      vertex 100 5 60
      vertex 87.4944 5 16.6667
      vertex 87.1213 5 17.1213
    endloop
  endfacet
  facet normal 0 1 0
    outer loop
      vertex 100 5 60
      vertex 87.7716 5 16.148
      vertex 87.4944 5 16.6667
    endloop
  endfacet
  facet normal 0 1 -0
    outer loop
      vertex 100 5 0
      vertex 87.7716 5 16.148
      vertex 100 5 60
    endloop
  endfacet
  facet normal 0 1 0
    outer loop
      vertex 87.7716 5 16.148
      vertex 100 5 0
      vertex 87.9424 5 15.5853
    endloop
  endfacet
  facet normal 0 1 0
    outer loop
      vertex 87.9424 5 15.5853
      vertex 100 5 0
      vertex 88 5 15
    endloop
  endfacet
  facet normal 0 1 0
    outer loop
      vertex 85.5853 5 12.0576
      vertex 100 5 0
      vertex 85 5 12
    endloop
  endfacet
  facet normal 0 1 0
    outer loop
      vertex 86.148 5 12.2284
      vertex 100 5 0
      vertex 85.5853 5 12.0576
    endloop
  endfacet
  facet normal 0 1 0
    outer loop
      vertex 86.6667 5 12.5056
      vertex 100 5 0
      vertex 86.148 5 12.2284
    endloop
  endfacet
  facet normal 0 1 0
    outer loop
      vertex 87.1213 5 12.8787
      vertex 100 5 0
      vertex 86.6667 5 12.5056
    endloop
  endfacet
  facet normal 0 1 0
    outer loop
      vertex 87.4944 5 13.3333
      vertex 100 5 0
      vertex 87.1213 5 12.8787
    endloop
  endfacet
  facet normal 0 1 0
    outer loop
      vertex 87.7716 5 13.8519
      vertex 100 5 0
      vertex 87.4944 5 13.3333
    endloop
  endfacet
  facet normal 0 1 0
    outer loop
      vertex 87.9424 5 14.4147
      vertex 100 5 0
      vertex 87.7716 5 13.8519
    endloop
  endfacet
  facet normal 0 1 0
    outer loop
      vertex 88 5 15
      vertex 100 5 0
      vertex 87.9424 5 14.4147
    endloop
  endfacet
  facet normal 0 1 -0
    outer loop
      vertex 14.4147 5 47.9424
      vertex 0 5 60
      vertex 15 5 48
    endloop
  endfacet
  facet normal 0 1 -0
    outer loop
      vertex 13.8519 5 47.7716
      vertex 0 5 60
      vertex 14.4147 5 47.9424
    endloop
  endfacet
  facet normal 0 1 -0
    outer loop
      vertex 13.3333 5 47.4944
      vertex 0 5 60
      vertex 13.8519 5 47.7716
    endloop
  endfacet
  facet normal 0 1 -0
    outer loop
      vertex 12.8787 5 47.1213
      vertex 0 5 60
      vertex 13.3333 5 47.4944
    endloop
  endfacet
  facet normal 0 1 -0
    outer loop
      vertex 12.5056 5 46.6667
      vertex 0 5 60
      vertex 12.8787 5 47.1213
    endloop
  endfacet
  facet normal 0 1 -0
    outer loop
      vertex 12.2284 5 46.148
      vertex 0 5 60
      vertex 12.5056 5 46.6667
    endloop
  endfacet
  facet normal 0 1 -0
    outer loop
      vertex 12.0576 5 45.5853
      vertex 0 5 60
      vertex 12.2284 5 46.148
    endloop
  endfacet
  facet normal 0 1 -0
    outer loop
      vertex 12 5 45
      vertex 0 5 60
      vertex 12.0576 5 45.5853
    endloop
  endfacet
  facet normal 0 1 0
    outer loop
      vertex 12.0576 5 44.4147
      vertex 0 5 60
      vertex 12 5 45
    endloop
  endfacet
  facet normal 0 1 0
    outer loop
      vertex 12.2284 5 43.852
      vertex 0 5 60
      vertex 12.0576 5 44.4147
    endloop
  endfacet
  facet normal 0 1 0
    outer loop
      vertex 0 5 0
      vertex 12.2284 5 43.852
      vertex 12.5056 5 43.3333
    endloop
  endfacet
  facet normal 0 1 0
    outer loop
      vertex 16.148 5 42.2284
      vertex 35 5 26
      vertex 15.5853 5 42.0576
    endloop
  endfacet
  facet normal 0 1 0
    outer loop
      vertex 15.5853 5 42.0576
      vertex 35 5 26
      vertex 15 5 42
    endloop
  endfacet
  facet normal 0 1 0
    outer loop
      vertex 0 5 0
      vertex 15 5 42
      vertex 35 5 26
    endloop
  endfacet
  facet normal 0 1 0
    outer loop
      vertex 15 5 42
      vertex 0 5 0
      vertex 14.4147 5 42.0576
    endloop
  endfacet
  facet normal 0 1 0
    outer loop
      vertex 14.4147 5 42.0576
      vertex 0 5 0
      vertex 13.8519 5 42.2284
    endloop
  endfacet
  facet normal 0 1 0
    outer loop
      vertex 65 5 34
      vertex 83.852 5 17.7716
      vertex 65 5 26
    endloop
  endfacet
  facet normal 0 1 -0
    outer loop
      vertex 83.3333 5 17.4944
      vertex 65 5 26
      vertex 83.852 5 17.7716
    endloop
  endfacet
  facet normal 0 1 -0
    outer loop
      vertex 82.8787 5 17.1213
      vertex 65 5 26
      vertex 83.3333 5 17.4944
    endloop
  endfacet
  facet normal 0 1 -0
    outer loop
      vertex 82.5056 5 16.6667
      vertex 65 5 26
      vertex 82.8787 5 17.1213
    endloop
  endfacet
  facet normal 0 1 -0
    outer loop
      vertex 82.2284 5 16.148
      vertex 65 5 26
      vertex 82.5056 5 16.6667
    endloop
  endfacet
  facet normal 0 1 -0
    outer loop
      vertex 82.0576 5 15.5853
      vertex 65 5 26
      vertex 82.2284 5 16.148
    endloop
  endfacet
  facet normal 0 1 -0
    outer loop
      vertex 82 5 15
      vertex 65 5 26
      vertex 82.0576 5 15.5853
    endloop
  endfacet
  facet normal 0 1 0
    outer loop
      vertex 82.0576 5 14.4147
      vertex 65 5 26
      vertex 82 5 15
    endloop
  endfacet
  facet normal 0 1 0
    outer loop
      vertex 82.2284 5 13.8519
      vertex 65 5 26
      vertex 82.0576 5 14.4147
    endloop
  endfacet
  facet normal 0 1 0
    outer loop
      vertex 82.5056 5 13.3333
      vertex 65 5 26
      vertex 82.2284 5 13.8519
    endloop
  endfacet
  facet normal 0 1 0
    outer loop
      vertex 65 5 26
      vertex 82.5056 5 13.3333
      vertex 35 5 26
    endloop
  endfacet
  facet normal 0 1 0
    outer loop
      vertex 82.8787 5 12.8787
      vertex 35 5 26
      vertex 82.5056 5 13.3333
    endloop
  endfacet
  facet normal 0 1 0
    outer loop
      vertex 0 5 0
      vertex 82.8787 5 12.8787
      vertex 83.3333 5 12.5056
    endloop
  endfacet
  facet normal 0 1 0
    outer loop
      vertex 0 5 0
      vertex 83.3333 5 12.5056
      vertex 83.852 5 12.2284
    endloop
  endfacet
  facet normal 0 1 0
    outer loop
      vertex 100 5 0
      vertex 83.852 5 12.2284
      vertex 84.4147 5 12.0576
    endloop
  endfacet
  facet normal 0 1 0
    outer loop
      vertex 100 5 0
      vertex 84.4147 5 12.0576
      vertex 85 5 12
    endloop
  endfacet
  facet normal 0 1 0
    outer loop
      vertex 83.852 5 12.2284
      vertex 100 5 0
      vertex 0 5 0
    endloop
  endfacet
  facet normal 0 1 0
    outer loop
      vertex 12.2284 5 43.852
      vertex 0 5 0
      vertex 0 5 60
    endloop
  endfacet
  facet normal 0 1 0
    outer loop
      vertex 12.8787 5 42.8787
      vertex 0 5 0
      vertex 12.5056 5 43.3333
    endloop
  endfacet
  facet normal 0 1 0
    outer loop
      vertex 13.3333 5 42.5056
      vertex 0 5 0
      vertex 12.8787 5 42.8787
    endloop
  endfacet
  facet normal 0 1 0
    outer loop
      vertex 13.8519 5 42.2284
      vertex 0 5 0
      vertex 13.3333 5 42.5056
    endloop
  endfacet
  facet normal 0 1 0
    outer loop
      vertex 82.8787 5 12.8787
      vertex 0 5 0
      vertex 35 5 26
    endloop
  endfacet
  facet normal 0 -1 0
    outer loop
      vertex 15.5853 0 47.9424
      vertex 0 0 60
      vertex 15 0 48
    endloop
  endfacet
  facet normal 0 -1 0
    outer loop
      vertex 0 0 60
      vertex 14.4147 0 47.9424
      vertex 15 0 48
    endloop
  endfacet
  facet normal 0 -1 0
    outer loop
      vertex 0 0 60
      vertex 13.8519 0 47.7716
      vertex 14.4147 0 47.9424
    endloop
  endfacet
  facet normal 0 -1 0
    outer loop
      vertex 0 0 60
      vertex 13.3333 0 47.4944
      vertex 13.8519 0 47.7716
    endloop
  endfacet
  facet normal 0 -1 0
    outer loop
      vertex 0 0 60
      vertex 12.8787 0 47.1213
      vertex 13.3333 0 47.4944
    endloop
  endfacet
  facet normal 0 -1 0
    outer loop
      vertex 0 0 60
      vertex 12.5056 0 46.6667
      vertex 12.8787 0 47.1213
    endloop
  endfacet
  facet normal 0 -1 0
    outer loop
      vertex 0 0 60
      vertex 12.2284 0 46.148
      vertex 12.5056 0 46.6667
    endloop
  endfacet
  facet normal 0 -1 0
    outer loop
      vertex 0 0 60
      vertex 12.0576 0 45.5853
      vertex 12.2284 0 46.148
    endloop
  endfacet
  facet normal 0 -1 0
    outer loop
      vertex 0 0 60
      vertex 12 0 45
      vertex 12.0576 0 45.5853
    endloop
  endfacet
  facet normal 0 -1 0
    outer loop
      vertex 0 0 60
      vertex 12.0576 0 44.4147
      vertex 12 0 45
    endloop
  endfacet
  facet normal 0 -1 0
    outer loop
      vertex 0 0 60
      vertex 12.2284 0 43.852
      vertex 12.0576 0 44.4147
    endloop
  endfacet
  facet normal 0 -1 0
    outer loop
      vertex 0 0 0
      vertex 12.2284 0 43.852
      vertex 0 0 60
    endloop
  endfacet
  facet normal 0 -1 0
    outer loop
      vertex 0 0 0
      vertex 15 0 42
      vertex 14.4147 0 42.0576
    endloop
  endfacet
  facet normal 0 -1 0
    outer loop
      vertex 0 0 0
      vertex 14.4147 0 42.0576
      vertex 13.8519 0 42.2284
    endloop
  endfacet
  facet normal 0 -1 0
    outer loop
      vertex 15 0 42
      vertex 35 0 26
      vertex 35 0 34
    endloop
  endfacet
  facet normal 0 -1 0
    outer loop
      vertex 0 0 0
      vertex 13.8519 0 42.2284
      vertex 13.3333 0 42.5056
    endloop
  endfacet
  facet normal 0 -1 0
    outer loop
      vertex 82.5056 0 13.3333
      vertex 65 0 26
      vertex 35 0 26
    endloop
  endfacet
  facet normal 0 -1 0
    outer loop
      vertex 65 0 26
      vertex 84.4147 0 17.9424
      vertex 85 0 18
    endloop
  endfacet
  facet normal 0 -1 0
    outer loop
      vertex 65 0 26
      vertex 83.852 0 17.7716
      vertex 84.4147 0 17.9424
    endloop
  endfacet
  facet normal 0 -1 0
    outer loop
      vertex 65 0 26
      vertex 83.3333 0 17.4944
      vertex 83.852 0 17.7716
    endloop
  endfacet
  facet normal 0 -1 0
    outer loop
      vertex 65 0 26
      vertex 82.8787 0 17.1213
      vertex 83.3333 0 17.4944
    endloop
  endfacet
  facet normal 0 -1 0
    outer loop
      vertex 65 0 26
      vertex 82.5056 0 16.6667
      vertex 82.8787 0 17.1213
    endloop
  endfacet
  facet normal 0 -1 0
    outer loop
      vertex 65 0 26
      vertex 82.2284 0 16.148
      vertex 82.5056 0 16.6667
    endloop
  endfacet
  facet normal 0 -1 0
    outer loop
      vertex 65 0 26
      vertex 82.0576 0 15.5853
      vertex 82.2284 0 16.148
    endloop
  endfacet
  facet normal 0 -1 0
    outer loop
      vertex 65 0 26
      vertex 82 0 15
      vertex 82.0576 0 15.5853
    endloop
  endfacet
  facet normal 0 -1 0
    outer loop
      vertex 65 0 26
      vertex 82.0576 0 14.4147
      vertex 82 0 15
    endloop
  endfacet
  facet normal 0 -1 0
    outer loop
      vertex 65 0 26
      vertex 82.2284 0 13.8519
      vertex 82.0576 0 14.4147
    endloop
  endfacet
  facet normal 0 -1 0
    outer loop
      vertex 65 0 26
      vertex 82.5056 0 13.3333
      vertex 82.2284 0 13.8519
    endloop
  endfacet
  facet normal 0 -1 0
    outer loop
      vertex 35 0 26
      vertex 82.8787 0 12.8787
      vertex 82.5056 0 13.3333
    endloop
  endfacet
  facet normal 0 -1 0
    outer loop
      vertex 0 0 0
      vertex 82.8787 0 12.8787
      vertex 35 0 26
    endloop
  endfacet
  facet normal 0 -1 -0
    outer loop
      vertex 82.8787 0 12.8787
      vertex 0 0 0
      vertex 83.3333 0 12.5056
    endloop
  endfacet
  facet normal 0 -1 -0
    outer loop
      vertex 83.3333 0 12.5056
      vertex 0 0 0
      vertex 83.852 0 12.2284
    endloop
  endfacet
  facet normal 0 -1 0
    outer loop
      vertex 83.852 0 12.2284
      vertex 100 0 0
      vertex 84.4147 0 12.0576
    endloop
  endfacet
  facet normal 0 -1 0
    outer loop
      vertex 100 0 0
      vertex 83.852 0 12.2284
      vertex 0 0 0
    endloop
  endfacet
  facet normal 0 -1 -0
    outer loop
      vertex 15 0 42
      vertex 0 0 0
      vertex 35 0 26
    endloop
  endfacet
  facet normal 0 -1 -0
    outer loop
      vertex 12.8787 0 42.8787
      vertex 0 0 0
      vertex 13.3333 0 42.5056
    endloop
  endfacet
  facet normal 0 -1 -0
    outer loop
      vertex 12.5056 0 43.3333
      vertex 0 0 0
      vertex 12.8787 0 42.8787
    endloop
  endfacet
  facet normal 0 -1 -0
    outer loop
      vertex 12.2284 0 43.852
      vertex 0 0 0
      vertex 12.5056 0 43.3333
    endloop
  endfacet
  facet normal 0 -1 0
    outer loop
      vertex 16.148 0 47.7716
      vertex 0 0 60
      vertex 15.5853 0 47.9424
    endloop
  endfacet
  facet normal 0 -1 0
    outer loop
      vertex 0 0 60
      vertex 16.148 0 47.7716
      vertex 100 0 60
    endloop
  endfacet
  facet normal 0 -1 0
    outer loop
      vertex 16.6667 0 47.4944
      vertex 100 0 60
      vertex 16.148 0 47.7716
    endloop
  endfacet
  facet normal 0 -1 0
    outer loop
      vertex 17.1213 0 47.1213
      vertex 100 0 60
      vertex 16.6667 0 47.4944
    endloop
  endfacet
  facet normal 0 -1 0
    outer loop
      vertex 65 0 34
      vertex 17.1213 0 47.1213
      vertex 17.4944 0 46.6667
    endloop
  endfacet
  facet normal 0 -1 0
    outer loop
      vertex 35 0 34
      vertex 17.4944 0 46.6667
      vertex 17.7716 0 46.148
    endloop
  endfacet
  facet normal 0 -1 0
    outer loop
      vertex 35 0 34
      vertex 17.7716 0 46.148
      vertex 17.9424 0 45.5853
    endloop
  endfacet
  facet normal 0 -1 0
    outer loop
      vertex 35 0 34
      vertex 17.9424 0 45.5853
      vertex 18 0 45
    endloop
  endfacet
  facet normal 0 -1 0
    outer loop
      vertex 35 0 34
      vertex 18 0 45
      vertex 17.9424 0 44.4147
    endloop
  endfacet
  facet normal 0 -1 0
    outer loop
      vertex 35 0 34
      vertex 17.9424 0 44.4147
      vertex 17.7716 0 43.852
    endloop
  endfacet
  facet normal 0 -1 0
    outer loop
      vertex 35 0 34
      vertex 17.7716 0 43.852
      vertex 17.4944 0 43.3333
    endloop
  endfacet
  facet normal 0 -1 0
    outer loop
      vertex 35 0 34
      vertex 17.4944 0 43.3333
      vertex 17.1213 0 42.8787
    endloop
  endfacet
  facet normal 0 -1 0
    outer loop
      vertex 35 0 34
      vertex 17.1213 0 42.8787
      vertex 16.6667 0 42.5056
    endloop
  endfacet
  facet normal 0 -1 0
    outer loop
      vertex 35 0 34
      vertex 16.6667 0 42.5056
      vertex 16.148 0 42.2284
    endloop
  endfacet
  facet normal 0 -1 0
    outer loop
      vertex 35 0 34
      vertex 16.148 0 42.2284
      vertex 15.5853 0 42.0576
    endloop
  endfacet
  facet normal 0 -1 0
    outer loop
      vertex 35 0 34
      vertex 15.5853 0 42.0576
      vertex 15 0 42
    endloop
  endfacet
  facet normal 0 -1 0
    outer loop
      vertex 17.4944 0 46.6667
      vertex 35 0 34
      vertex 65 0 34
    endloop
  endfacet
  facet normal 0 -1 0
    outer loop
      vertex 17.1213 0 47.1213
      vertex 65 0 34
      vertex 100 0 60
    endloop
  endfacet
  facet normal 0 -1 0
    outer loop
      vertex 85 0 18
      vertex 65 0 34
      vertex 65 0 26
    endloop
  endfacet
  facet normal 0 -1 0
    outer loop
      vertex 65 0 34
      vertex 85 0 18
      vertex 100 0 60
    endloop
  endfacet
  facet normal 0 -1 0
    outer loop
      vertex 85.5853 0 17.9424
      vertex 100 0 60
      vertex 85 0 18
    endloop
  endfacet
  facet normal 0 -1 0
    outer loop
      vertex 86.148 0 17.7716
      vertex 100 0 60
      vertex 85.5853 0 17.9424
    endloop
  endfacet
  facet normal 0 -1 0
    outer loop
      vertex 86.6667 0 17.4944
      vertex 100 0 60
      vertex 86.148 0 17.7716
    endloop
  endfacet
  facet normal 0 -1 0
    outer loop
      vertex 87.1213 0 17.1213
      vertex 100 0 60
      vertex 86.6667 0 17.4944
    endloop
  endfacet
  facet normal 0 -1 0
    outer loop
      vertex 87.4944 0 16.6667
      vertex 100 0 60
      vertex 87.1213 0 17.1213
    endloop
  endfacet
  facet normal 0 -1 0
    outer loop
      vertex 87.7716 0 16.148
      vertex 100 0 60
      vertex 87.4944 0 16.6667
    endloop
  endfacet
  facet normal 0 -1 0
    outer loop
      vertex 100 0 0
      vertex 87.7716 0 16.148
      vertex 87.9424 0 15.5853
    endloop
  endfacet
  facet normal 0 -1 0
    outer loop
      vertex 100 0 0
      vertex 87.9424 0 15.5853
      vertex 88 0 15
    endloop
  endfacet
  facet normal 0 -1 0
    outer loop
      vertex 100 0 0
      vertex 88 0 15
      vertex 87.9424 0 14.4147
    endloop
  endfacet
  facet normal 0 -1 0
    outer loop
      vertex 84.4147 0 12.0576
      vertex 100 0 0
      vertex 85 0 12
    endloop
  endfacet
  facet normal 0 -1 0
    outer loop
      vertex 87.7716 0 16.148
      vertex 100 0 0
      vertex 100 0 60
    endloop
  endfacet
  facet normal 0 -1 0
    outer loop
      vertex 87.7716 0 13.8519
      vertex 100 0 0
      vertex 87.9424 0 14.4147
    endloop
  endfacet
  facet normal 0 -1 0
    outer loop
      vertex 87.4944 0 13.3333
      vertex 100 0 0
      vertex 87.7716 0 13.8519
    endloop
  endfacet
  facet normal 0 -1 0
    outer loop
      vertex 87.1213 0 12.8787
      vertex 100 0 0
      vertex 87.4944 0 13.3333
    endloop
  endfacet
  facet normal 0 -1 0
    outer loop
      vertex 86.6667 0 12.5056
      vertex 100 0 0
      vertex 87.1213 0 12.8787
    endloop
  endfacet
  facet normal 0 -1 0
    outer loop
      vertex 86.148 0 12.2284
      vertex 100 0 0
      vertex 86.6667 0 12.5056
    endloop
  endfacet
  facet normal 0 -1 0
    outer loop
      vertex 85.5853 0 12.0576
      vertex 100 0 0
      vertex 86.148 0 12.2284
    endloop
  endfacet
  facet normal 0 -1 0
    outer loop
      vertex 85 0 12
      vertex 100 0 0
      vertex 85.5853 0 12.0576
    endloop
  endfacet
  facet normal -0.097938 -5.27572e-19 0.995193
    outer loop
      vertex 15 5 42
      vertex 15.5853 0 42.0576
      vertex 15.5853 5 42.0576
    endloop
  endfacet
  facet normal -0.097938 -5.27572e-19 0.995193
    outer loop
      vertex 15.5853 0 42.0576
      vertex 15 5 42
      vertex 15 0 42
    endloop
  endfacet
  facet normal -0.772994 0 -0.634413
    outer loop
      vertex 17.4944 0 46.6667
      vertex 17.1213 5 47.1213
      vertex 17.4944 5 46.6667
    endloop
  endfacet
  facet normal -0.772994 -0 -0.634413
    outer loop
      vertex 17.1213 5 47.1213
      vertex 17.4944 0 46.6667
      vertex 17.1213 0 47.1213
    endloop
  endfacet
  facet normal -0.95689 0 0.290451
    outer loop
      vertex 17.7716 0 43.852
      vertex 17.9424 5 44.4147
      vertex 17.7716 5 43.852
    endloop
  endfacet
  facet normal -0.95689 0 0.290451
    outer loop
      vertex 17.9424 5 44.4147
      vertex 17.7716 0 43.852
      vertex 17.9424 0 44.4147
    endloop
  endfacet
  facet normal -0.995193 0 0.097938
    outer loop
      vertex 17.9424 0 44.4147
      vertex 18 5 45
      vertex 17.9424 5 44.4147
    endloop
  endfacet
  facet normal -0.995193 0 0.097938
    outer loop
      vertex 18 5 45
      vertex 17.9424 0 44.4147
      vertex 18 0 45
    endloop
  endfacet
  facet normal -0.881957 0 0.471329
    outer loop
      vertex 17.4944 0 43.3333
      vertex 17.7716 5 43.852
      vertex 17.4944 5 43.3333
    endloop
  endfacet
  facet normal -0.881957 0 0.471329
    outer loop
      vertex 17.7716 5 43.852
      vertex 17.4944 0 43.3333
      vertex 17.7716 0 43.852
    endloop
  endfacet
  facet normal 0.634413 4.27513e-18 -0.772994
    outer loop
      vertex 12.8787 0 47.1213
      vertex 13.3333 5 47.4944
      vertex 13.3333 0 47.4944
    endloop
  endfacet
  facet normal 0.634413 4.27513e-18 -0.772994
    outer loop
      vertex 13.3333 5 47.4944
      vertex 12.8787 0 47.1213
      vertex 12.8787 5 47.1213
    endloop
  endfacet
  facet normal 0.290404 8.5436e-19 0.956904
    outer loop
      vertex 13.8519 5 42.2284
      vertex 14.4147 0 42.0576
      vertex 14.4147 5 42.0576
    endloop
  endfacet
  facet normal 0.290404 8.5436e-19 0.956904
    outer loop
      vertex 14.4147 0 42.0576
      vertex 13.8519 5 42.2284
      vertex 13.8519 0 42.2284
    endloop
  endfacet
  facet normal -0.995193 0 -0.097938
    outer loop
      vertex 18 0 45
      vertex 17.9424 5 45.5853
      vertex 18 5 45
    endloop
  endfacet
  facet normal -0.995193 -0 -0.097938
    outer loop
      vertex 17.9424 5 45.5853
      vertex 18 0 45
      vertex 17.9424 0 45.5853
    endloop
  endfacet
  facet normal 0.097938 -5.27572e-19 -0.995193
    outer loop
      vertex 14.4147 0 47.9424
      vertex 15 5 48
      vertex 15 0 48
    endloop
  endfacet
  facet normal 0.097938 -5.27572e-19 -0.995193
    outer loop
      vertex 15 5 48
      vertex 14.4147 0 47.9424
      vertex 14.4147 5 47.9424
    endloop
  endfacet
  facet normal 0.4714 -3.18217e-18 -0.881919
    outer loop
      vertex 13.3333 0 47.4944
      vertex 13.8519 5 47.7716
      vertex 13.8519 0 47.7716
    endloop
  endfacet
  facet normal 0.4714 -3.18217e-18 -0.881919
    outer loop
      vertex 13.8519 5 47.7716
      vertex 13.3333 0 47.4944
      vertex 13.3333 5 47.4944
    endloop
  endfacet
  facet normal 0.881957 0 -0.471329
    outer loop
      vertex 12.5056 0 46.6667
      vertex 12.2284 5 46.148
      vertex 12.5056 5 46.6667
    endloop
  endfacet
  facet normal 0.881957 0 -0.471329
    outer loop
      vertex 12.2284 5 46.148
      vertex 12.5056 0 46.6667
      vertex 12.2284 0 46.148
    endloop
  endfacet
  facet normal -0.097938 5.27572e-19 -0.995193
    outer loop
      vertex 15 0 48
      vertex 15.5853 5 47.9424
      vertex 15.5853 0 47.9424
    endloop
  endfacet
  facet normal -0.097938 5.27572e-19 -0.995193
    outer loop
      vertex 15.5853 5 47.9424
      vertex 15 0 48
      vertex 15 5 48
    endloop
  endfacet
  facet normal -0.95689 0 -0.290451
    outer loop
      vertex 17.9424 0 45.5853
      vertex 17.7716 5 46.148
      vertex 17.9424 5 45.5853
    endloop
  endfacet
  facet normal -0.95689 -0 -0.290451
    outer loop
      vertex 17.7716 5 46.148
      vertex 17.9424 0 45.5853
      vertex 17.7716 0 46.148
    endloop
  endfacet
  facet normal -0.471329 2.62128e-18 0.881957
    outer loop
      vertex 16.148 5 42.2284
      vertex 16.6667 0 42.5056
      vertex 16.6667 5 42.5056
    endloop
  endfacet
  facet normal -0.471329 2.62128e-18 0.881957
    outer loop
      vertex 16.6667 0 42.5056
      vertex 16.148 5 42.2284
      vertex 16.148 0 42.2284
    endloop
  endfacet
  facet normal -0.290451 -5.69666e-19 0.95689
    outer loop
      vertex 15.5853 5 42.0576
      vertex 16.148 0 42.2284
      vertex 16.148 5 42.2284
    endloop
  endfacet
  facet normal -0.290451 -5.69666e-19 0.95689
    outer loop
      vertex 16.148 0 42.2284
      vertex 15.5853 5 42.0576
      vertex 15.5853 0 42.0576
    endloop
  endfacet
  facet normal -0.290451 5.69666e-19 -0.95689
    outer loop
      vertex 15.5853 0 47.9424
      vertex 16.148 5 47.7716
      vertex 16.148 0 47.7716
    endloop
  endfacet
  facet normal -0.290451 5.69666e-19 -0.95689
    outer loop
      vertex 16.148 5 47.7716
      vertex 15.5853 0 47.9424
      vertex 15.5853 5 47.9424
    endloop
  endfacet
  facet normal 0.290404 -8.5436e-19 -0.956904
    outer loop
      vertex 13.8519 0 47.7716
      vertex 14.4147 5 47.9424
      vertex 14.4147 0 47.9424
    endloop
  endfacet
  facet normal 0.290404 -8.5436e-19 -0.956904
    outer loop
      vertex 14.4147 5 47.9424
      vertex 13.8519 0 47.7716
      vertex 13.8519 5 47.7716
    endloop
  endfacet
  facet normal 0.634413 -4.27513e-18 0.772994
    outer loop
      vertex 12.8787 5 42.8787
      vertex 13.3333 0 42.5056
      vertex 13.3333 5 42.5056
    endloop
  endfacet
  facet normal 0.634413 -4.27513e-18 0.772994
    outer loop
      vertex 13.3333 0 42.5056
      vertex 12.8787 5 42.8787
      vertex 12.8787 0 42.8787
    endloop
  endfacet
  facet normal -0.772994 0 0.634413
    outer loop
      vertex 17.1213 0 42.8787
      vertex 17.4944 5 43.3333
      vertex 17.1213 5 42.8787
    endloop
  endfacet
  facet normal -0.772994 0 0.634413
    outer loop
      vertex 17.4944 5 43.3333
      vertex 17.1213 0 42.8787
      vertex 17.4944 0 43.3333
    endloop
  endfacet
  facet normal 0.4714 3.18217e-18 0.881919
    outer loop
      vertex 13.3333 5 42.5056
      vertex 13.8519 0 42.2284
      vertex 13.8519 5 42.2284
    endloop
  endfacet
  facet normal 0.4714 3.18217e-18 0.881919
    outer loop
      vertex 13.8519 0 42.2284
      vertex 13.3333 5 42.5056
      vertex 13.3333 0 42.5056
    endloop
  endfacet
  facet normal -0.471329 -2.62128e-18 -0.881957
    outer loop
      vertex 16.148 0 47.7716
      vertex 16.6667 5 47.4944
      vertex 16.6667 0 47.4944
    endloop
  endfacet
  facet normal -0.471329 -2.62128e-18 -0.881957
    outer loop
      vertex 16.6667 5 47.4944
      vertex 16.148 0 47.7716
      vertex 16.148 5 47.7716
    endloop
  endfacet
  facet normal 0.95689 -0 0.290451
    outer loop
      vertex 12.0576 0 44.4147
      vertex 12.2284 5 43.852
      vertex 12.0576 5 44.4147
    endloop
  endfacet
  facet normal 0.95689 0 0.290451
    outer loop
      vertex 12.2284 5 43.852
      vertex 12.0576 0 44.4147
      vertex 12.2284 0 43.852
    endloop
  endfacet
  facet normal 0.097938 5.27572e-19 0.995193
    outer loop
      vertex 14.4147 5 42.0576
      vertex 15 0 42
      vertex 15 5 42
    endloop
  endfacet
  facet normal 0.097938 5.27572e-19 0.995193
    outer loop
      vertex 15 0 42
      vertex 14.4147 5 42.0576
      vertex 14.4147 0 42.0576
    endloop
  endfacet
  facet normal -0.881957 0 -0.471329
    outer loop
      vertex 17.7716 0 46.148
      vertex 17.4944 5 46.6667
      vertex 17.7716 5 46.148
    endloop
  endfacet
  facet normal -0.881957 -0 -0.471329
    outer loop
      vertex 17.4944 5 46.6667
      vertex 17.7716 0 46.148
      vertex 17.4944 0 46.6667
    endloop
  endfacet
  facet normal -0.634413 1.97956e-18 0.772994
    outer loop
      vertex 16.6667 5 42.5056
      vertex 17.1213 0 42.8787
      vertex 17.1213 5 42.8787
    endloop
  endfacet
  facet normal -0.634413 1.97956e-18 0.772994
    outer loop
      vertex 17.1213 0 42.8787
      vertex 16.6667 5 42.5056
      vertex 16.6667 0 42.5056
    endloop
  endfacet
  facet normal -0.634413 -1.97956e-18 -0.772994
    outer loop
      vertex 16.6667 0 47.4944
      vertex 17.1213 5 47.1213
      vertex 17.1213 0 47.1213
    endloop
  endfacet
  facet normal -0.634413 -1.97956e-18 -0.772994
    outer loop
      vertex 17.1213 5 47.1213
      vertex 16.6667 0 47.4944
      vertex 16.6667 5 47.4944
    endloop
  endfacet
  facet normal 0.95689 0 -0.290451
    outer loop
      vertex 12.2284 0 46.148
      vertex 12.0576 5 45.5853
      vertex 12.2284 5 46.148
    endloop
  endfacet
  facet normal 0.95689 0 -0.290451
    outer loop
      vertex 12.0576 5 45.5853
      vertex 12.2284 0 46.148
      vertex 12.0576 0 45.5853
    endloop
  endfacet
  facet normal 0.881957 -0 0.471329
    outer loop
      vertex 12.2284 0 43.852
      vertex 12.5056 5 43.3333
      vertex 12.2284 5 43.852
    endloop
  endfacet
  facet normal 0.881957 0 0.471329
    outer loop
      vertex 12.5056 5 43.3333
      vertex 12.2284 0 43.852
      vertex 12.5056 0 43.3333
    endloop
  endfacet
  facet normal 0.772994 -0 0.634413
    outer loop
      vertex 12.5056 0 43.3333
      vertex 12.8787 5 42.8787
      vertex 12.5056 5 43.3333
    endloop
  endfacet
  facet normal 0.772994 0 0.634413
    outer loop
      vertex 12.8787 5 42.8787
      vertex 12.5056 0 43.3333
      vertex 12.8787 0 42.8787
    endloop
  endfacet
  facet normal 0.772994 0 -0.634413
    outer loop
      vertex 12.8787 0 47.1213
      vertex 12.5056 5 46.6667
      vertex 12.8787 5 47.1213
    endloop
  endfacet
  facet normal 0.772994 0 -0.634413
    outer loop
      vertex 12.5056 5 46.6667
      vertex 12.8787 0 47.1213
      vertex 12.5056 0 46.6667
    endloop
  endfacet
  facet normal 0.995193 0 -0.097938
    outer loop
      vertex 12.0576 0 45.5853
      vertex 12 5 45
      vertex 12.0576 5 45.5853
    endloop
  endfacet
  facet normal 0.995193 0 -0.097938
    outer loop
      vertex 12 5 45
      vertex 12.0576 0 45.5853
      vertex 12 0 45
    endloop
  endfacet
  facet normal 0.995193 -0 0.097938
    outer loop
      vertex 12 0 45
      vertex 12.0576 5 44.4147
      vertex 12 5 45
    endloop
  endfacet
  facet normal 0.995193 0 0.097938
    outer loop
      vertex 12.0576 5 44.4147
      vertex 12 0 45
      vertex 12.0576 0 44.4147
    endloop
  endfacet
  facet normal -0.290451 -2.02818e-18 -0.95689
    outer loop
      vertex 85.5853 0 17.9424
      vertex 86.148 5 17.7716
      vertex 86.148 0 17.7716
    endloop
  endfacet
  facet normal -0.290451 -2.02818e-18 -0.95689
    outer loop
      vertex 86.148 5 17.7716
      vertex 85.5853 0 17.9424
      vertex 85.5853 5 17.9424
    endloop
  endfacet
  facet normal 0.772994 0 -0.634413
    outer loop
      vertex 82.8787 0 17.1213
      vertex 82.5056 5 16.6667
      vertex 82.8787 5 17.1213
    endloop
  endfacet
  facet normal 0.772994 0 -0.634413
    outer loop
      vertex 82.5056 5 16.6667
      vertex 82.8787 0 17.1213
      vertex 82.5056 0 16.6667
    endloop
  endfacet
  facet normal -0.634413 4.27513e-18 0.772994
    outer loop
      vertex 86.6667 5 12.5056
      vertex 87.1213 0 12.8787
      vertex 87.1213 5 12.8787
    endloop
  endfacet
  facet normal -0.634413 4.27513e-18 0.772994
    outer loop
      vertex 87.1213 0 12.8787
      vertex 86.6667 5 12.5056
      vertex 86.6667 0 12.5056
    endloop
  endfacet
  facet normal 0.471329 -2.61908e-18 -0.881957
    outer loop
      vertex 83.3333 0 17.4944
      vertex 83.852 5 17.7716
      vertex 83.852 0 17.7716
    endloop
  endfacet
  facet normal 0.471329 -2.61908e-18 -0.881957
    outer loop
      vertex 83.852 5 17.7716
      vertex 83.3333 0 17.4944
      vertex 83.3333 5 17.4944
    endloop
  endfacet
  facet normal 0.881919 -0 0.4714
    outer loop
      vertex 82.2284 0 13.8519
      vertex 82.5056 5 13.3333
      vertex 82.2284 5 13.8519
    endloop
  endfacet
  facet normal 0.881919 0 0.4714
    outer loop
      vertex 82.5056 5 13.3333
      vertex 82.2284 0 13.8519
      vertex 82.5056 0 13.3333
    endloop
  endfacet
  facet normal -0.995193 0 -0.097938
    outer loop
      vertex 88 0 15
      vertex 87.9424 5 15.5853
      vertex 88 5 15
    endloop
  endfacet
  facet normal -0.995193 -0 -0.097938
    outer loop
      vertex 87.9424 5 15.5853
      vertex 88 0 15
      vertex 87.9424 0 15.5853
    endloop
  endfacet
  facet normal -0.881919 0 0.4714
    outer loop
      vertex 87.4944 0 13.3333
      vertex 87.7716 5 13.8519
      vertex 87.4944 5 13.3333
    endloop
  endfacet
  facet normal -0.881919 0 0.4714
    outer loop
      vertex 87.7716 5 13.8519
      vertex 87.4944 0 13.3333
      vertex 87.7716 0 13.8519
    endloop
  endfacet
  facet normal -0.097938 6.31491e-19 0.995193
    outer loop
      vertex 85 5 12
      vertex 85.5853 0 12.0576
      vertex 85.5853 5 12.0576
    endloop
  endfacet
  facet normal -0.097938 6.31491e-19 0.995193
    outer loop
      vertex 85.5853 0 12.0576
      vertex 85 5 12
      vertex 85 0 12
    endloop
  endfacet
  facet normal 0.471329 4.47661e-18 0.881957
    outer loop
      vertex 83.3333 5 12.5056
      vertex 83.852 0 12.2284
      vertex 83.852 5 12.2284
    endloop
  endfacet
  facet normal 0.471329 4.47661e-18 0.881957
    outer loop
      vertex 83.852 0 12.2284
      vertex 83.3333 5 12.5056
      vertex 83.3333 0 12.5056
    endloop
  endfacet
  facet normal -0.995193 0 0.097938
    outer loop
      vertex 87.9424 0 14.4147
      vertex 88 5 15
      vertex 87.9424 5 14.4147
    endloop
  endfacet
  facet normal -0.995193 0 0.097938
    outer loop
      vertex 88 5 15
      vertex 87.9424 0 14.4147
      vertex 88 0 15
    endloop
  endfacet
  facet normal 0.995193 0 -0.097938
    outer loop
      vertex 82.0576 0 15.5853
      vertex 82 5 15
      vertex 82.0576 5 15.5853
    endloop
  endfacet
  facet normal 0.995193 0 -0.097938
    outer loop
      vertex 82 5 15
      vertex 82.0576 0 15.5853
      vertex 82 0 15
    endloop
  endfacet
  facet normal -0.956904 0 0.290404
    outer loop
      vertex 87.7716 0 13.8519
      vertex 87.9424 5 14.4147
      vertex 87.7716 5 13.8519
    endloop
  endfacet
  facet normal -0.956904 0 0.290404
    outer loop
      vertex 87.9424 5 14.4147
      vertex 87.7716 0 13.8519
      vertex 87.9424 0 14.4147
    endloop
  endfacet
  facet normal -0.290451 2.02818e-18 0.95689
    outer loop
      vertex 85.5853 5 12.0576
      vertex 86.148 0 12.2284
      vertex 86.148 5 12.2284
    endloop
  endfacet
  facet normal -0.290451 2.02818e-18 0.95689
    outer loop
      vertex 86.148 0 12.2284
      vertex 85.5853 5 12.0576
      vertex 85.5853 0 12.0576
    endloop
  endfacet
  facet normal 0.634413 -4.27513e-18 0.772994
    outer loop
      vertex 82.8787 5 12.8787
      vertex 83.3333 0 12.5056
      vertex 83.3333 5 12.5056
    endloop
  endfacet
  facet normal 0.634413 -4.27513e-18 0.772994
    outer loop
      vertex 83.3333 0 12.5056
      vertex 82.8787 5 12.8787
      vertex 82.8787 0 12.8787
    endloop
  endfacet
  facet normal -0.881957 0 -0.471329
    outer loop
      vertex 87.7716 0 16.148
      vertex 87.4944 5 16.6667
      vertex 87.7716 5 16.148
    endloop
  endfacet
  facet normal -0.881957 -0 -0.471329
    outer loop
      vertex 87.4944 5 16.6667
      vertex 87.7716 0 16.148
      vertex 87.4944 0 16.6667
    endloop
  endfacet
  facet normal -0.471329 2.61908e-18 -0.881957
    outer loop
      vertex 86.148 0 17.7716
      vertex 86.6667 5 17.4944
      vertex 86.6667 0 17.4944
    endloop
  endfacet
  facet normal -0.471329 2.61908e-18 -0.881957
    outer loop
      vertex 86.6667 5 17.4944
      vertex 86.148 0 17.7716
      vertex 86.148 5 17.7716
    endloop
  endfacet
  facet normal 0.097938 6.31491e-19 -0.995193
    outer loop
      vertex 84.4147 0 17.9424
      vertex 85 5 18
      vertex 85 0 18
    endloop
  endfacet
  facet normal 0.097938 6.31491e-19 -0.995193
    outer loop
      vertex 85 5 18
      vertex 84.4147 0 17.9424
      vertex 84.4147 5 17.9424
    endloop
  endfacet
  facet normal -0.772994 0 -0.634413
    outer loop
      vertex 87.4944 0 16.6667
      vertex 87.1213 5 17.1213
      vertex 87.4944 5 16.6667
    endloop
  endfacet
  facet normal -0.772994 -0 -0.634413
    outer loop
      vertex 87.1213 5 17.1213
      vertex 87.4944 0 16.6667
      vertex 87.1213 0 17.1213
    endloop
  endfacet
  facet normal 0.097938 -6.31491e-19 0.995193
    outer loop
      vertex 84.4147 5 12.0576
      vertex 85 0 12
      vertex 85 5 12
    endloop
  endfacet
  facet normal 0.097938 -6.31491e-19 0.995193
    outer loop
      vertex 85 0 12
      vertex 84.4147 5 12.0576
      vertex 84.4147 0 12.0576
    endloop
  endfacet
  facet normal 0.956904 -0 0.290404
    outer loop
      vertex 82.0576 0 14.4147
      vertex 82.2284 5 13.8519
      vertex 82.0576 5 14.4147
    endloop
  endfacet
  facet normal 0.956904 0 0.290404
    outer loop
      vertex 82.2284 5 13.8519
      vertex 82.0576 0 14.4147
      vertex 82.2284 0 13.8519
    endloop
  endfacet
  facet normal 0.881957 0 -0.471329
    outer loop
      vertex 82.5056 0 16.6667
      vertex 82.2284 5 16.148
      vertex 82.5056 5 16.6667
    endloop
  endfacet
  facet normal 0.881957 0 -0.471329
    outer loop
      vertex 82.2284 5 16.148
      vertex 82.5056 0 16.6667
      vertex 82.2284 0 16.148
    endloop
  endfacet
  facet normal -0.772994 0 0.634413
    outer loop
      vertex 87.1213 0 12.8787
      vertex 87.4944 5 13.3333
      vertex 87.1213 5 12.8787
    endloop
  endfacet
  facet normal -0.772994 0 0.634413
    outer loop
      vertex 87.4944 5 13.3333
      vertex 87.1213 0 12.8787
      vertex 87.4944 0 13.3333
    endloop
  endfacet
  facet normal -0.471329 -4.47661e-18 0.881957
    outer loop
      vertex 86.148 5 12.2284
      vertex 86.6667 0 12.5056
      vertex 86.6667 5 12.5056
    endloop
  endfacet
  facet normal -0.471329 -4.47661e-18 0.881957
    outer loop
      vertex 86.6667 0 12.5056
      vertex 86.148 5 12.2284
      vertex 86.148 0 12.2284
    endloop
  endfacet
  facet normal 0.290451 -2.02818e-18 0.95689
    outer loop
      vertex 83.852 5 12.2284
      vertex 84.4147 0 12.0576
      vertex 84.4147 5 12.0576
    endloop
  endfacet
  facet normal 0.290451 -2.02818e-18 0.95689
    outer loop
      vertex 84.4147 0 12.0576
      vertex 83.852 5 12.2284
      vertex 83.852 0 12.2284
    endloop
  endfacet
  facet normal 0.772994 -0 0.634413
    outer loop
      vertex 82.5056 0 13.3333
      vertex 82.8787 5 12.8787
      vertex 82.5056 5 13.3333
    endloop
  endfacet
  facet normal 0.772994 0 0.634413
    outer loop
      vertex 82.8787 5 12.8787
      vertex 82.5056 0 13.3333
      vertex 82.8787 0 12.8787
    endloop
  endfacet
  facet normal 0.290451 2.02818e-18 -0.95689
    outer loop
      vertex 83.852 0 17.7716
      vertex 84.4147 5 17.9424
      vertex 84.4147 0 17.9424
    endloop
  endfacet
  facet normal 0.290451 2.02818e-18 -0.95689
    outer loop
      vertex 84.4147 5 17.9424
      vertex 83.852 0 17.7716
      vertex 83.852 5 17.7716
    endloop
  endfacet
  facet normal -0.95689 0 -0.290451
    outer loop
      vertex 87.9424 0 15.5853
      vertex 87.7716 5 16.148
      vertex 87.9424 5 15.5853
    endloop
  endfacet
  facet normal -0.95689 -0 -0.290451
    outer loop
      vertex 87.7716 5 16.148
      vertex 87.9424 0 15.5853
      vertex 87.7716 0 16.148
    endloop
  endfacet
  facet normal 0.95689 0 -0.290451
    outer loop
      vertex 82.2284 0 16.148
      vertex 82.0576 5 15.5853
      vertex 82.2284 5 16.148
    endloop
  endfacet
  facet normal 0.95689 0 -0.290451
    outer loop
      vertex 82.0576 5 15.5853
      vertex 82.2284 0 16.148
      vertex 82.0576 0 15.5853
    endloop
  endfacet
  facet normal -0.097938 -6.31491e-19 -0.995193
    outer loop
      vertex 85 0 18
      vertex 85.5853 5 17.9424
      vertex 85.5853 0 17.9424
    endloop
  endfacet
  facet normal -0.097938 -6.31491e-19 -0.995193
    outer loop
      vertex 85.5853 5 17.9424
      vertex 85 0 18
      vertex 85 5 18
    endloop
  endfacet
  facet normal 0.634413 2.49304e-18 -0.772994
    outer loop
      vertex 82.8787 0 17.1213
      vertex 83.3333 5 17.4944
      vertex 83.3333 0 17.4944
    endloop
  endfacet
  facet normal 0.634413 2.49304e-18 -0.772994
    outer loop
      vertex 83.3333 5 17.4944
      vertex 82.8787 0 17.1213
      vertex 82.8787 5 17.1213
    endloop
  endfacet
  facet normal -0.634413 -2.49304e-18 -0.772994
    outer loop
      vertex 86.6667 0 17.4944
      vertex 87.1213 5 17.1213
      vertex 87.1213 0 17.1213
    endloop
  endfacet
  facet normal -0.634413 -2.49304e-18 -0.772994
    outer loop
      vertex 87.1213 5 17.1213
      vertex 86.6667 0 17.4944
      vertex 86.6667 5 17.4944
    endloop
  endfacet
  facet normal 0.995193 -0 0.097938
    outer loop
      vertex 82 0 15
      vertex 82.0576 5 14.4147
      vertex 82 5 15
    endloop
  endfacet
  facet normal 0.995193 0 0.097938
    outer loop
      vertex 82.0576 5 14.4147
      vertex 82 0 15
      vertex 82.0576 0 14.4147
    endloop
  endfacet
  facet normal -1 0 0
    outer loop
      vertex 65 0 26
      vertex 65 5 34
      vertex 65 5 26
    endloop
  endfacet
  facet normal -1 -0 0
    outer loop
      vertex 65 5 34
      vertex 65 0 26
      vertex 65 0 34
    endloop
  endfacet
  facet normal 0 0 -1
    outer loop
      vertex 35 0 34
      vertex 65 5 34
      vertex 65 0 34
    endloop
  endfacet
  facet normal -0 0 -1
    outer loop
      vertex 65 5 34
      vertex 35 0 34
      vertex 35 5 34
    endloop
  endfacet
  facet normal -0 0 1
    outer loop
      vertex 35 5 26
      vertex 65 0 26
      vertex 65 5 26
    endloop
  endfacet
  facet normal 0 0 1
    outer loop
      vertex 65 0 26
      vertex 35 5 26
      vertex 35 0 26
    endloop
  endfacet
  facet normal 1 -0 0
    outer loop
      vertex 35 0 34
      vertex 35 5 26
      vertex 35 5 34
    endloop
  endfacet
  facet normal 1 0 0
    outer loop
      vertex 35 5 26
      vertex 35 0 34
      vertex 35 0 26
    endloop
  endfacet
endsolid OpenSCAD_Model
