solid OpenSCAD_Model
  facet normal -2.25638e-18 0.866026 -0.499999
    outer loop
      vertex 35 8.66 -14.9996
      vertex -35 17.32 -3.16553e-18
      vertex 35 17.32 -3.16553e-18
    endloop
  endfacet
  facet normal -2.25638e-18 0.866026 -0.499999
    outer loop
      vertex -35 17.32 -3.16553e-18
      vertex 35 8.66 -14.9996
      vertex -35 8.66 -14.9996
    endloop
  endfacet
  facet normal 2.25638e-18 0.866026 0.499999
    outer loop
      vertex 35 17.32 -3.16553e-18
      vertex -35 8.66 14.9996
      vertex 35 8.66 14.9996
    endloop
  endfacet
  facet normal 2.25638e-18 0.866026 0.499999
    outer loop
      vertex -35 8.66 14.9996
      vertex 35 17.32 -3.16553e-18
      vertex -35 17.32 -3.16553e-18
    endloop
  endfacet
  facet normal -0 0 1
    outer loop
      vertex -35 8.66 14.9996
      vertex 35 -8.66 14.9996
      vertex 35 8.66 14.9996
    endloop
  endfacet
  facet normal 0 0 1
    outer loop
      vertex 35 -8.66 14.9996
      vertex -35 8.66 14.9996
      vertex -35 -8.66 14.9996
    endloop
  endfacet
  facet normal -2.25638e-18 -0.866026 0.499999
    outer loop
      vertex -35 -17.32 3.16553e-18
      vertex 35 -8.66 14.9996
      vertex -35 -8.66 14.9996
    endloop
  endfacet
  facet normal -2.25638e-18 -0.866026 0.499999
    outer loop
      vertex 35 -8.66 14.9996
      vertex -35 -17.32 3.16553e-18
      vertex 35 -17.32 3.16553e-18
    endloop
  endfacet
  facet normal 2.25638e-18 -0.866026 -0.499999
    outer loop
      vertex -35 -8.66 -14.9996
      vertex 35 -17.32 3.16553e-18
      vertex -35 -17.32 3.16553e-18
    endloop
  endfacet
  facet normal 2.25638e-18 -0.866026 -0.499999
    outer loop
      vertex 35 -17.32 3.16553e-18
      vertex -35 -8.66 -14.9996
      vertex 35 -8.66 -14.9996
    endloop
  endfacet
  facet normal 0 0 -1
    outer loop
      vertex -35 -8.66 -14.9996
      vertex 35 8.66 -14.9996
      vertex 35 -8.66 -14.9996
    endloop
  endfacet
  facet normal -0 0 -1
    outer loop
      vertex 35 8.66 -14.9996
      vertex -35 -8.66 -14.9996
      vertex -35 8.66 -14.9996
    endloop
  endfacet
  facet normal -1 0 0
    outer loop
      vertex -35 8.66 -14.9996
      vertex -35 8.66 14.9996
      vertex -35 17.32 -3.16553e-18
    endloop
  endfacet
  facet normal -1 0 0
    outer loop
      vertex -35 -8.66 -14.9996
      vertex -35 8.66 14.9996
      vertex -35 8.66 -14.9996
    endloop
  endfacet
  facet normal -1 0 0
    outer loop
      vertex -35 -8.66 -14.9996
      vertex -35 -8.66 14.9996
      vertex -35 8.66 14.9996
    endloop
  endfacet
  facet normal -1 0 -0
    outer loop
      vertex -35 -8.66 14.9996
      vertex -35 -8.66 -14.9996
      vertex -35 -17.32 3.16553e-18
    endloop
  endfacet
  facet normal 1 0 0
    outer loop
      vertex 35 8.66 14.9996
      vertex 35 8.66 -14.9996
      vertex 35 17.32 -3.16553e-18
    endloop
  endfacet
  facet normal 1 -0 0
    outer loop
      vertex 35 -8.66 14.9996
      vertex 35 8.66 -14.9996
      vertex 35 8.66 14.9996
    endloop
  endfacet
  facet normal 1 0 0
    outer loop
      vertex 35 -8.66 14.9996
      vertex 35 -8.66 -14.9996
      vertex 35 8.66 -14.9996
    endloop
  endfacet
  facet normal 1 0 -0
    outer loop
      vertex 35 -8.66 -14.9996
      vertex 35 -8.66 14.9996
      vertex 35 -17.32 3.16553e-18
    endloop
  endfacet
endsolid OpenSCAD_Model
